<?xml version="1.0" standalone="no"?>
<!DOCTYPE svg PUBLIC "-//W3C//DTD SVG 20010904//EN"
 "http://www.w3.org/TR/2001/REC-SVG-20010904/DTD/svg10.dtd">
<svg version="1.0" xmlns="http://www.w3.org/2000/svg"
 width="500.000000pt" height="500.000000pt" viewBox="0 0 500.000000 500.000000"
 preserveAspectRatio="xMidYMid meet">

<g transform="translate(0.000000,500.000000) scale(0.100000,-0.100000)"
fill="#000000" stroke="none">
<path d="M2240 4229 c-80 -10 -240 -40 -240 -45 0 -2 15 -18 33 -35 34 -33 44
-34 152 -11 61 12 216 -2 253 -23 17 -10 47 -38 67 -62 l36 -43 -33 0 c-28 0
-36 5 -45 29 -19 52 -50 64 -181 65 -132 1 -210 -17 -261 -60 -31 -26 -41 -66
-21 -79 20 -12 9 -23 -37 -35 -27 -7 -73 -24 -103 -38 -104 -45 -103 -46 -43
28 30 39 77 86 104 105 56 40 62 66 23 92 -60 39 -188 1 -389 -113 l-85 -49
45 -13 c55 -16 75 -47 57 -87 -20 -44 -15 -74 13 -81 24 -6 22 -8 -32 -46 -32
-22 -63 -41 -70 -42 -7 -1 -19 -8 -26 -16 -10 -12 -9 -12 8 0 11 8 -5 -9 -35
-37 -30 -27 -58 -50 -62 -49 -3 1 -16 -11 -28 -27 -12 -15 -26 -24 -32 -21 -7
4 -8 2 -4 -5 4 -6 0 -18 -8 -26 -14 -14 -15 -11 -10 34 5 48 4 51 -40 95 -26
27 -46 57 -48 73 -4 28 -5 27 -62 -32 -150 -156 -283 -359 -365 -560 -28 -68
-51 -130 -51 -137 0 -8 -9 -40 -20 -71 -11 -32 -30 -111 -42 -175 -25 -140
-30 -427 -10 -563 31 -214 108 -444 208 -626 30 -53 54 -98 54 -100 0 -2 -60
-3 -132 -3 -114 1 -161 -5 -326 -37 -116 -22 -192 -42 -192 -49 0 -6 77 -45
171 -86 166 -73 170 -75 132 -81 -21 -4 -87 -7 -146 -7 -100 0 -107 -1 -98
-18 5 -9 50 -35 100 -56 50 -21 91 -42 91 -46 0 -9 -145 -57 -199 -66 -25 -4
-41 -12 -41 -20 0 -8 5 -14 11 -14 27 0 240 -73 232 -80 -4 -4 -77 -32 -160
-61 -84 -30 -153 -59 -153 -65 0 -17 249 -24 593 -18 272 6 320 4 482 -16 99
-12 281 -25 405 -30 167 -5 236 -11 268 -23 67 -25 236 -55 377 -67 200 -16
451 10 630 64 82 25 527 42 754 28 268 -16 931 -15 931 1 0 7 -62 43 -137 80
-154 77 -243 127 -243 139 0 4 19 8 43 8 47 0 248 26 278 35 33 11 21 24 -53
57 -40 18 -115 53 -167 78 l-93 45 101 23 c56 13 101 27 101 32 0 11 -7 13
-165 40 -65 12 -121 22 -122 24 -8 8 110 50 239 85 220 59 204 65 -151 57
-165 -5 -301 -6 -301 -3 0 3 17 34 39 69 279 459 343 1011 179 1528 -28 91
-140 327 -188 397 -25 37 -27 38 -97 41 l-71 3 -47 55 -47 55 -63 -3 c-35 -2
-61 -6 -58 -10 2 -5 0 -8 -4 -8 -5 0 -33 24 -62 54 -41 41 -49 55 -37 59 21 8
21 65 0 95 -8 12 -38 34 -65 48 -27 13 -47 29 -44 34 3 5 0 7 -8 5 -7 -3 -29
8 -48 24 -40 36 -57 38 -111 10 l-40 -21 -77 36 c-43 19 -90 38 -105 42 -20 5
-24 9 -14 15 23 15 57 10 106 -18 l49 -27 50 21 c28 11 61 19 75 16 33 -6 68
25 71 62 2 27 -4 33 -58 62 -61 33 -238 106 -287 118 -26 7 -27 6 -21 -28 5
-32 2 -37 -25 -51 -17 -9 -41 -16 -52 -16 -33 0 -78 -31 -91 -62 -7 -16 -17
-27 -24 -24 -6 2 -38 7 -70 11 l-58 8 59 33 c39 22 72 34 99 34 23 0 50 8 65
19 21 17 23 22 12 46 -22 47 -69 58 -187 44 -103 -13 -164 -6 -172 17 -2 7 14
14 37 17 49 6 60 14 40 27 -18 12 -289 11 -380 -1z m160 -435 c13 -120 9 -143
-24 -131 -11 4 -16 19 -16 46 0 22 -4 43 -10 46 -5 3 -32 3 -59 -1 l-50 -6 2
-52 c2 -45 0 -51 -19 -54 -20 -3 -22 4 -33 98 -16 145 -16 150 13 150 23 0 25
-5 28 -47 l3 -48 40 3 c73 6 75 7 68 63 -6 47 -5 49 19 49 24 0 25 -3 38 -116z
m250 88 c0 -17 -15 -111 -25 -158 -4 -19 1 -23 33 -28 85 -15 92 -18 92 -35 0
-10 -2 -20 -5 -23 -5 -5 -166 20 -174 27 -2 2 5 56 15 120 17 108 19 115 41
115 16 0 23 -6 23 -18z m-537 -33 c5 -20 2 -22 -60 -44 -8 -2 -2 -32 18 -96
22 -72 26 -95 16 -101 -26 -16 -34 -5 -62 82 l-29 91 -43 -7 c-39 -6 -43 -4
-43 15 0 17 15 25 93 50 112 36 104 35 110 10z m858 -29 c17 -10 19 -22 19
-139 0 -123 -1 -129 -19 -124 -11 3 -24 17 -29 32 -12 34 -91 62 -116 41 -15
-12 -60 -5 -54 9 6 15 163 189 171 190 5 1 17 -4 28 -9z m-1090 -133 c40 -79
42 -86 30 -116 -8 -17 -27 -41 -43 -53 -33 -23 -99 -28 -122 -8 -15 12 -100
160 -94 164 2 1 10 7 19 14 15 11 22 3 57 -61 42 -76 61 -90 99 -76 46 17 47
43 4 126 -30 57 -37 79 -28 85 25 16 36 6 78 -75z m1288 44 c12 -8 10 -15 -7
-46 -12 -20 -22 -38 -22 -40 0 -2 25 5 56 15 42 15 61 17 75 9 28 -14 18 -23
-50 -45 -34 -10 -61 -21 -61 -24 0 -3 6 -39 14 -80 8 -41 13 -77 11 -79 -3 -2
-15 3 -28 12 -18 12 -26 28 -31 68 -4 29 -10 57 -13 62 -3 5 -17 -10 -32 -32
-25 -37 -29 -40 -46 -27 -18 13 -16 19 41 115 32 55 64 101 69 101 6 0 16 -4
24 -9z m-498 -137 c238 -41 452 -154 630 -333 157 -157 259 -334 316 -548 25
-90 27 -114 27 -293 0 -172 -2 -205 -22 -280 -64 -236 -166 -417 -327 -575
-92 -90 -214 -179 -239 -173 -11 2 15 26 73 66 418 295 599 826 446 1312 -67
210 -203 413 -369 547 -100 81 -121 95 -222 146 -329 167 -705 170 -1040 7
-479 -232 -741 -759 -638 -1280 57 -288 231 -558 467 -723 40 -29 53 -43 42
-45 -31 -7 -164 101 -260 210 -184 210 -279 449 -292 739 -16 335 106 648 347
889 175 175 393 292 627 334 109 20 318 20 434 0z m767 -52 c57 -51 62 -59 50
-75 -13 -17 -17 -16 -60 22 -52 46 -56 48 -73 24 -11 -15 -8 -22 23 -50 34
-29 36 -33 21 -48 -15 -16 -19 -14 -54 16 -36 32 -38 32 -51 14 -20 -27 -19
-29 31 -69 39 -32 43 -39 33 -56 -14 -21 -16 -20 -97 51 l-53 47 77 91 c43 50
80 91 84 91 3 -1 34 -26 69 -58z m-1789 12 c86 -72 35 -214 -76 -214 -89 0
-151 96 -112 173 35 70 130 90 188 41z m817 -23 c-3 -22 -9 -48 -12 -58 -5
-15 -4 -15 5 -3 9 12 11 9 11 -15 0 -17 -4 -25 -8 -18 -4 6 -6 -73 -5 -175 3
-177 -5 -213 -22 -109 -7 42 -16 46 -36 16 -12 -18 -14 -10 -11 66 1 48 9 125
17 172 8 47 15 100 15 118 0 37 6 45 33 45 17 0 19 -5 13 -39z m122 33 c28 -6
30 -8 21 -32 -6 -15 -10 -55 -10 -89 0 -49 5 -69 20 -90 21 -26 51 -112 51
-142 -1 -9 -12 4 -25 29 -13 25 -24 41 -24 35 -1 -5 6 -23 14 -39 8 -16 15
-34 14 -40 -1 -6 -1 -22 0 -36 1 -19 4 -21 10 -11 5 8 7 21 4 30 -3 12 -1 11
7 -2 9 -14 8 -23 -4 -42 -18 -27 -21 -39 -7 -31 10 6 25 -24 16 -32 -3 -3 -5
1 -5 8 0 7 -3 11 -6 7 -7 -6 -51 36 -81 79 -58 81 -109 268 -97 355 6 47 8 49
39 49 18 0 46 -3 63 -6z m-276 -11 c-10 -4 -10 -8 0 -21 10 -12 10 -14 1 -8
-9 5 -11 -1 -7 -22 4 -17 1 -32 -5 -36 -6 -4 -11 -13 -11 -19 0 -8 3 -8 9 1 6
10 10 9 14 -7 7 -29 -20 -28 -29 2 -4 12 -18 40 -32 61 -24 39 -25 39 -36 17
-7 -12 -16 -18 -21 -14 -4 4 -5 2 -1 -4 4 -7 4 -28 1 -47 -6 -31 -10 -34 -36
-29 -15 2 -38 -1 -49 -7 -16 -9 -22 -8 -27 6 -6 15 -7 15 -20 -2 -7 -10 -13
-28 -13 -41 0 -21 3 -22 20 -13 17 9 21 6 35 -27 19 -45 18 -46 -25 -75 -30
-20 -38 -34 -54 -96 -17 -66 -36 -95 -36 -57 0 9 -7 30 -16 46 -10 20 -12 35
-6 42 6 8 6 21 0 37 -6 18 -11 21 -17 12 -7 -11 -19 -10 -67 3 -79 23 -83 29
-50 64 19 20 25 34 20 43 -5 7 -9 18 -9 23 -1 14 33 37 45 30 5 -3 43 15 85
40 75 46 128 66 235 90 54 13 127 18 102 8z m583 -219 c25 -53 44 -98 41 -101
-10 -10 -106 153 -106 182 0 35 21 9 65 -81z m127 60 c19 13 24 13 50 0 24
-12 27 -18 17 -30 -6 -8 -18 -14 -25 -14 -21 0 -17 -14 11 -40 14 -13 25 -27
25 -31 0 -15 -31 -2 -58 24 -32 31 -50 33 -78 12 -32 -24 -39 -17 -11 13 33
35 33 39 0 76 l-28 30 38 -27 c34 -26 39 -27 59 -13z m-1822 1 c-7 -9 -19 -14
-27 -11 -7 3 -13 1 -13 -4 0 -6 5 -10 11 -10 5 0 7 -5 3 -12 -6 -9 -9 -9 -12
0 -3 10 -7 10 -18 1 -10 -8 -14 -8 -14 0 0 6 5 11 11 11 6 0 8 7 5 16 -5 13
-1 15 19 12 14 -3 28 -1 31 3 3 5 8 9 11 9 3 0 0 -7 -7 -15z m180 -18 c0 -14
-9 -26 -22 -32 -14 -6 -24 -21 -26 -37 -4 -35 13 -36 58 -3 19 14 45 25 59 25
78 0 82 -110 5 -161 -39 -25 -54 -24 -54 6 0 15 6 25 14 25 20 0 56 48 49 66
-8 21 -31 17 -65 -11 -87 -73 -165 30 -84 111 40 40 66 44 66 11z m827 -12 c2
-14 -1 -25 -7 -25 -5 0 -10 14 -10 32 0 35 12 30 17 -7z m1373 20 c30 -15 60
-61 60 -90 0 -24 -39 -18 -49 8 -13 34 -39 53 -54 38 -9 -9 -8 -19 2 -44 25
-61 25 -77 1 -103 -26 -27 -53 -30 -88 -10 -50 27 -84 116 -44 116 9 0 24 -15
32 -32 19 -40 45 -57 62 -40 9 9 8 19 -5 47 -24 50 -22 90 5 109 28 20 41 20
78 1z m-2464 -10 c-14 -11 -16 -15 -5 -15 8 0 1 -9 -16 -20 -34 -23 -59 -28
-29 -6 18 14 18 15 -8 21 -18 5 -35 1 -50 -9 -12 -9 -20 -16 -16 -16 3 0 14
-3 23 -6 10 -4 15 -2 13 6 -2 7 3 15 10 17 11 4 12 1 3 -15 -6 -11 -8 -22 -3
-25 4 -2 0 -2 -8 1 -8 3 -29 5 -47 5 -18 0 -30 4 -27 8 2 5 11 6 19 2 10 -3
13 -1 10 9 -8 21 64 56 75 38 4 -7 13 -9 20 -5 9 6 9 9 -1 16 -9 6 -2 9 21 9
33 -1 34 -2 16 -15z m2052 -46 c36 -27 53 -49 37 -49 -7 0 -105 71 -105 76 0
12 31 0 68 -27z m-891 -41 c-4 -12 0 -26 7 -32 10 -8 12 -27 6 -76 -6 -58 -13
-74 -63 -145 -32 -44 -57 -85 -57 -91 0 -5 10 -30 21 -54 26 -53 36 -148 20
-178 -18 -34 -29 -26 -36 27 -5 35 -12 50 -25 54 -11 3 -21 18 -25 38 -19 92
-56 113 -213 119 -115 5 -125 7 -143 29 -21 25 -25 81 -9 112 9 15 22 19 66
19 48 0 56 -3 66 -25 6 -14 26 -29 46 -36 20 -7 49 -26 64 -43 l29 -31 -10 28
c-16 42 15 36 41 -8 31 -53 33 -35 4 28 -14 29 -26 70 -26 89 0 41 43 110 86
138 25 17 31 18 51 5 12 -8 41 -17 65 -21 l43 -6 -29 24 c-33 28 -30 58 5 58
17 0 20 -4 16 -22z m619 -93 c108 -137 178 -251 198 -324 9 -34 21 -61 26 -61
14 0 60 60 66 87 4 13 4 54 1 89 -3 46 -1 64 7 61 6 -2 12 -12 14 -23 2 -10 8
-31 13 -46 17 -44 59 -49 59 -7 0 20 1 20 29 -3 48 -37 37 -57 -38 -72 -70
-13 -211 -148 -251 -240 -26 -62 -48 -163 -53 -244 -5 -68 -4 -72 12 -58 29
26 89 46 139 46 48 0 50 -1 56 -32 8 -40 -3 -52 -38 -38 -33 12 -155 13 -174
1 -8 -4 -37 -62 -67 -127 -29 -65 -69 -148 -89 -183 -62 -109 -81 -187 -97
-391 0 -8 -5 -2 -9 13 -10 33 16 230 50 372 27 116 132 424 169 495 15 30 45
89 67 130 36 69 39 81 39 155 0 97 -14 129 -103 235 -35 41 -81 112 -103 157
-35 71 -38 84 -27 102 7 11 15 17 19 13 3 -4 41 -52 85 -107z m-1895 62 l-23
-22 17 28 c10 15 20 25 23 22 3 -3 -5 -16 -17 -28z m2361 -128 c15 -18 36 -46
47 -61 12 -14 21 -29 21 -32 0 -9 -42 3 -66 19 -15 10 -23 11 -22 4 2 -6 -3
-14 -10 -16 -8 -3 -10 1 -6 11 3 9 1 16 -6 16 -6 0 -8 5 -5 10 10 15 -2 12
-20 -6 -9 -9 -19 -14 -22 -10 -4 3 2 12 12 19 16 13 16 14 1 20 -9 4 -16 2
-16 -3 0 -6 -7 -10 -16 -10 -14 0 -14 1 0 16 9 8 21 12 26 9 6 -4 17 -1 25 5
8 6 18 9 24 6 5 -3 7 3 4 14 -3 11 -11 20 -19 20 -7 0 -18 8 -23 18 -13 21
-13 15 -2 -24 8 -30 8 -30 -29 -30 -21 1 -42 5 -47 10 -4 5 -3 6 4 2 7 -4 23
-4 36 -1 19 5 23 13 23 39 -1 25 -5 32 -15 28 -10 -4 -12 -1 -6 7 4 8 -2 26
-15 44 -26 37 82 -73 122 -124z m652 131 c14 -5 26 -15 26 -22 0 -10 -2 -10
-9 1 -5 7 -14 10 -20 7 -6 -4 -11 -3 -11 3 0 5 -19 12 -42 14 -42 3 -42 4 -6
5 20 1 48 -2 62 -8z m-2341 -20 c-3 -12 -8 -19 -11 -16 -5 6 5 36 12 36 2 0 2
-9 -1 -20z m2172 -2 c6 -4 2 -8 -7 -8 -10 0 -18 7 -18 17 0 9 3 12 8 7 4 -5
12 -12 17 -16z m-2908 -4 c-3 -3 -12 -4 -19 -1 -8 3 -5 6 6 6 11 1 17 -2 13
-5z m2301 -12 c2 -7 -1 -12 -8 -12 -6 0 -9 4 -6 9 4 5 1 12 -4 14 -6 3 -5 4 2
3 6 -1 14 -8 16 -14z m699 12 c-3 -3 -12 -4 -19 -1 -8 3 -5 6 6 6 11 1 17 -2
13 -5z m-3034 -29 c-3 -9 -8 -14 -10 -11 -3 3 -2 9 2 15 9 16 15 13 8 -4z
m732 4 c-4 -6 0 -9 10 -7 10 2 19 -3 21 -10 1 -7 0 -8 -3 -2 -3 7 -12 5 -24
-6 -11 -9 -22 -14 -26 -11 -3 4 -16 -1 -27 -10 -12 -10 -5 -1 13 20 34 37 48
47 36 26z m1336 -16 c13 -16 12 -17 -3 -4 -17 13 -22 21 -14 21 2 0 10 -8 17
-17z m-1101 -23 c-32 -28 -73 -39 -83 -22 -3 4 -1 17 4 30 7 19 15 22 61 22
l53 -1 -35 -29z m1385 12 c-3 -3 -11 0 -18 7 -9 10 -8 11 6 5 10 -3 15 -9 12
-12z m-85 -12 c0 -11 -7 -20 -15 -20 -8 0 -15 2 -15 4 0 2 -3 11 -6 20 -4 12
0 16 15 16 14 0 21 -6 21 -20z m-1565 -41 c-6 11 -3 13 16 6 13 -4 34 -8 46
-9 36 -2 10 -16 -35 -19 -25 -1 -42 -7 -42 -14 0 -7 -18 -22 -40 -33 -22 -11
-40 -18 -40 -14 0 4 -8 0 -17 -7 -11 -9 -9 -2 7 21 43 64 52 71 67 58 8 -6 13
-7 12 -2 -4 21 2 26 18 13 14 -12 16 -12 8 0z m1599 -34 c-4 -8 -12 -15 -20
-15 -20 0 -17 18 4 23 9 3 18 5 19 6 1 0 0 -6 -3 -14z m-746 -122 c-3 -49 -1
-98 3 -110 5 -15 5 -23 -2 -23 -6 0 -7 -5 -2 -12 4 -7 8 -50 8 -95 0 -45 -1
-78 -3 -73 -8 22 -17 8 -18 -25 0 -26 3 -34 13 -31 21 8 -20 -65 -63 -113 -46
-51 -60 -53 -35 -3 28 55 36 102 20 114 -11 8 -10 9 4 4 11 -4 18 0 19 12 2
29 6 64 14 131 6 54 5 63 -7 56 -11 -7 -12 -6 -3 6 17 22 25 67 14 74 -7 4 -8
11 -1 18 5 7 12 35 16 62 16 125 28 129 23 8z m166 -23 c5 -52 4 -61 -5 -46
-6 10 -13 48 -15 85 -5 84 11 53 20 -39z m181 -41 c107 -172 109 -243 11 -406
-42 -69 -61 -114 -86 -208 -46 -172 -48 -181 -60 -272 -6 -46 -13 -91 -16
-100 -5 -15 -4 -16 5 -3 9 12 11 11 11 -8 0 -13 -4 -20 -10 -17 -5 3 -10 1
-10 -4 0 -6 3 -11 8 -11 4 0 8 -35 9 -78 2 -67 4 -334 3 -384 0 -13 -8 -18
-31 -18 -26 0 -30 3 -24 18 3 9 6 96 6 192 -2 346 50 726 134 969 30 89 30 88
8 95 -27 9 -84 66 -77 77 3 5 0 8 -6 7 -6 -2 -19 8 -28 22 -9 13 -11 21 -4 16
8 -5 12 -1 12 11 0 14 3 13 17 -7 9 -14 36 -46 60 -72 45 -49 47 -48 43 21 -2
29 -54 217 -77 277 -6 16 -5 16 15 2 13 -8 51 -62 87 -119z m635 41 c0 -5 -4
-10 -10 -10 -5 0 -10 5 -10 10 0 6 5 10 10 10 6 0 10 -4 10 -10z m18 -28 c-10
-14 -10 -15 2 -4 22 19 30 15 49 -30 34 -78 35 -85 6 -85 -33 0 -78 51 -70 78
4 13 2 18 -5 17 -7 -2 -15 3 -18 11 -2 8 0 11 6 8 5 -4 12 3 15 14 3 12 10 18
17 14 8 -5 8 -11 -2 -23z m-2035 -17 c-3 -9 -8 -14 -10 -11 -3 3 -2 9 2 15 9
16 15 13 8 -4z m1049 -17 c-7 -7 -12 -8 -12 -2 0 14 12 26 19 19 2 -3 -1 -11
-7 -17z m155 -233 c-3 -77 -17 -222 -31 -322 -15 -105 -27 -242 -28 -322 -2
-76 -6 -137 -10 -134 -10 5 -2 909 8 976 l7 48 29 -53 30 -53 -5 -140z m-1207
221 c0 -3 -4 -8 -10 -11 -5 -3 -10 -1 -10 4 0 6 5 11 10 11 6 0 10 -2 10 -4z
m428 -8 c5 -7 13 -28 17 -46 l7 -33 -46 23 c-49 23 -57 40 -28 57 23 14 38 13
50 -1z m129 -4 c8 -21 -13 -42 -28 -27 -13 13 -5 43 11 43 6 0 13 -7 17 -16z
m-43 -30 c15 -58 90 -96 124 -62 9 9 12 9 12 1 0 -21 -43 -43 -83 -43 -66 0
-121 74 -84 115 18 21 24 18 31 -11z m-440 -14 c25 -9 38 -50 16 -50 -5 0 -10
-12 -9 -27 0 -27 1 -27 9 -5 5 12 17 22 27 22 16 0 16 -1 0 -12 -9 -7 -18 -30
-20 -51 -3 -26 -11 -43 -27 -54 -13 -9 -20 -11 -16 -5 4 8 2 10 -8 6 -8 -3
-12 -12 -9 -20 3 -8 -3 -17 -13 -21 -40 -15 -60 -50 -21 -37 12 4 42 8 67 8
l45 1 0 51 c-1 47 1 50 25 52 20 1 29 -7 45 -41 11 -23 26 -41 33 -39 10 2 10
-2 2 -18 -12 -22 -52 -49 -142 -95 -38 -19 -58 -35 -58 -47 0 -10 6 -18 13
-18 8 0 7 -4 -3 -11 -12 -9 -13 -12 -1 -16 11 -4 11 -7 0 -14 -30 -18 1 -18
33 0 31 19 34 19 44 3 9 -14 7 -17 -10 -18 -49 -3 -88 -12 -98 -22 -7 -7 -16
-12 -21 -12 -4 0 -24 -12 -43 -26 -19 -15 -37 -24 -40 -21 -12 12 -5 274 9
342 29 139 33 148 79 177 49 30 57 32 92 18z m1706 -30 c0 -11 -7 -20 -15 -20
-8 0 -15 9 -15 20 0 11 7 20 15 20 8 0 15 -9 15 -20z m-1304 -41 c26 -29 80
-55 132 -64 33 -5 45 -13 52 -31 14 -36 19 -94 8 -100 -13 -8 -88 43 -88 59 0
8 -28 29 -62 48 -60 33 -118 82 -118 100 0 18 57 9 76 -12z m1344 -140 c0 -6
-4 -7 -10 -4 -5 3 -10 11 -10 16 0 6 5 7 10 4 6 -3 10 -11 10 -16z m-26 -8 c3
-5 -1 -11 -9 -14 -9 -4 -12 -1 -8 9 6 16 10 17 17 5z m-1508 -28 c-4 -4 10
-13 31 -19 l38 -12 -42 -1 c-30 -1 -43 3 -43 12 0 14 9 27 18 27 3 0 2 -3 -2
-7z m1362 -42 c2 -25 10 -54 19 -65 15 -20 15 -20 8 -1 -5 11 -10 38 -11 60
-3 39 -3 39 5 7 5 -18 16 -41 25 -51 20 -22 8 -35 -41 -46 -18 -3 -48 -17 -68
-30 -35 -24 -35 -24 -20 -2 8 12 17 49 21 82 8 72 20 97 42 93 12 -2 18 -16
20 -47z m80 3 l2 -29 -14 25 c-19 31 -20 43 -3 38 6 -3 13 -18 15 -34z m52
-26 c0 -7 -9 1 -20 17 -26 39 -26 55 0 22 11 -14 20 -31 20 -39z m400 38 c0
-18 -7 -26 -27 -31 -17 -4 -29 -2 -31 4 -2 6 -11 11 -19 11 -13 0 -13 -2 -2
-17 13 -15 12 -15 -12 0 -14 10 -33 15 -41 12 -9 -4 -18 1 -21 9 -4 9 -14 17
-24 18 -28 2 67 15 125 16 49 2 52 0 52 -22z m-470 -26 c7 -17 10 -34 6 -37
-10 -10 -35 29 -36 55 0 30 14 21 30 -18z m35 -39 c-3 -12 -10 -21 -15 -21 -4
0 -3 11 3 24 14 29 22 27 12 -3z m420 19 c-11 -5 -27 -9 -35 -9 -9 0 -8 4 5 9
11 5 27 9 35 9 9 0 8 -4 -5 -9z m-1961 -57 c-26 -68 -56 -85 -68 -38 -5 20 0
32 21 54 27 26 54 42 62 35 2 -1 -5 -24 -15 -51z m142 27 c21 -24 21 -25 3
-38 -11 -7 -17 -17 -14 -22 3 -4 -1 -10 -7 -13 -7 -2 2 -4 20 -5 19 0 44 -8
58 -17 13 -8 24 -13 24 -11 0 3 12 -6 26 -19 15 -14 31 -25 36 -25 5 0 6 -5 3
-10 -4 -6 6 -27 22 -48 15 -20 33 -48 40 -62 10 -22 12 -23 13 -5 8 76 48 255
49 218 1 -17 6 -21 19 -17 10 4 13 2 6 -3 -10 -8 -1 -251 13 -323 3 -19 6 -53
7 -75 0 -37 9 -54 29 -55 5 0 5 5 1 12 -4 7 -3 8 4 4 6 -4 20 -2 31 3 17 10
21 6 31 -23 8 -24 27 -44 66 -70 30 -20 69 -58 87 -84 18 -26 53 -68 79 -95
38 -37 48 -54 48 -80 0 -45 -19 -60 -121 -94 l-86 -29 -23 65 c-13 36 -25 72
-28 79 -2 6 3 12 11 12 20 0 31 31 15 42 -7 4 -23 8 -34 8 -31 0 -71 98 -54
130 10 18 14 20 21 9 7 -12 9 -12 9 0 0 7 -11 22 -25 32 -13 11 -22 26 -19 33
3 8 1 17 -5 21 -7 3 -8 0 -5 -9 3 -9 2 -16 -4 -16 -6 0 -13 6 -15 13 -3 6 -6
2 -6 -10 -1 -17 5 -23 22 -23 12 0 17 -3 11 -8 -6 -4 -10 -17 -9 -29 1 -15 -3
-19 -14 -15 -14 5 -14 3 1 -14 9 -11 17 -35 17 -54 0 -19 1 -94 3 -166 l3
-131 -52 78 c-29 43 -53 85 -53 94 0 8 -9 24 -20 35 -23 23 -26 40 -6 40 9 0
12 7 9 19 -3 13 -10 18 -21 13 -15 -5 -15 -4 -3 11 11 14 11 17 0 17 -20 0
-37 32 -45 80 -7 40 -6 41 20 34 23 -5 26 -3 26 18 0 13 -5 29 -12 36 -8 8 -8
12 -1 12 6 0 8 11 5 26 -3 19 -7 22 -13 12 -5 -7 -9 -9 -9 -4 0 4 -11 1 -25
-8 -14 -9 -25 -14 -25 -11 0 3 -9 1 -21 -5 -20 -11 -20 -11 2 19 21 29 38 43
24 21 -8 -13 -4 -13 37 5 35 14 35 15 37 78 1 52 -2 67 -19 82 -11 10 -20 23
-20 29 0 6 -14 27 -30 46 l-28 35 -28 -25 c-14 -14 -44 -46 -65 -73 -33 -42
-39 -45 -48 -30 -8 14 -10 15 -11 3 0 -9 12 -33 26 -54 l27 -39 13 29 c7 16
13 23 13 15 1 -11 5 -10 20 3 19 17 19 17 14 -3 -3 -12 -9 -24 -14 -27 -5 -3
-3 -15 5 -27 19 -30 -5 -117 -35 -124 -16 -5 -18 -8 -7 -14 8 -6 0 -9 -23 -9
-21 0 -42 -7 -49 -15 -11 -13 -15 -13 -23 -3 -6 9 -7 8 -3 -4 3 -10 1 -18 -4
-18 -16 0 -3 70 17 94 9 11 11 15 3 9 -20 -19 -29 -16 -23 7 3 11 9 17 14 14
5 -3 9 -1 9 5 0 6 8 8 18 5 9 -3 6 2 -8 10 l-25 15 25 1 c22 1 20 4 -15 21
-27 12 -33 19 -20 19 18 0 18 2 -5 20 -14 11 -20 20 -14 20 13 0 46 -35 39
-42 -3 -2 2 -5 10 -5 20 0 20 -2 -20 61 -28 44 -35 65 -35 104 0 85 49 111 81
42 l16 -34 25 52 c14 29 21 52 17 52 -4 0 -12 -7 -16 -15 -8 -13 -12 -13 -30
4 -23 22 -52 29 -70 18 -6 -4 -14 -3 -18 3 -3 5 0 10 7 10 28 0 38 21 23 51
-8 15 -19 29 -25 31 -5 2 -7 19 -3 41 6 37 7 38 42 35 23 -2 44 -12 57 -28z
m1764 -53 l75 -22 -3 -71 c-2 -63 -19 -152 -21 -113 -1 19 -95 101 -149 129
-49 26 -73 50 -48 50 9 0 16 -4 16 -10 0 -5 10 -14 21 -21 24 -12 20 -1 -9 34
-14 15 -13 17 6 17 11 0 23 -6 25 -12 4 -9 6 -10 6 -1 1 6 -6 19 -15 27 -14
15 -14 16 3 15 10 0 52 -10 93 -22z m-1839 -44 c10 -11 10 -14 2 -9 -7 4 -13
2 -13 -3 0 -6 -5 -11 -11 -11 -8 0 -9 4 0 13 6 8 8 17 4 20 -3 4 -4 7 -1 7 3
0 12 -8 19 -17z m1605 -6 c4 -4 2 -7 -4 -7 -19 0 -14 -71 6 -87 11 -10 12 -13
3 -11 -8 3 -18 11 -21 19 -15 30 -29 82 -25 90 6 8 31 6 41 -4z m199 -202 c44
-135 44 -158 -5 -255 -23 -47 -46 -87 -50 -90 -3 -3 -15 -19 -25 -37 l-18 -32
-24 52 c-13 28 -21 58 -18 66 3 8 3 12 -1 8 -4 -4 -14 7 -21 24 -11 26 -10 33
2 46 8 8 15 28 15 44 0 16 5 29 10 29 18 0 11 20 -7 21 -17 1 -17 2 0 6 16 4
16 6 -3 33 -11 15 -20 33 -20 40 0 6 -4 8 -10 5 -6 -4 -7 1 -3 11 6 15 8 14
17 -7 6 -13 14 -26 18 -30 4 -3 21 -31 38 -63 l29 -59 13 29 c13 32 17 209 6
264 l-8 35 19 -30 c11 -16 31 -66 46 -110z m-2088 118 c-3 -5 -8 -52 -12 -105
l-6 -98 45 0 c25 0 46 5 46 10 0 7 7 7 21 0 16 -9 18 -14 8 -26 -11 -14 -8
-48 7 -89 7 -17 6 -18 -8 -5 -8 8 -13 21 -11 27 3 7 1 13 -5 13 -5 0 -7 -28
-4 -72 4 -61 3 -70 -10 -65 -12 4 -14 0 -11 -14 3 -11 9 -22 14 -25 5 -3 6 1
3 9 -3 8 3 21 14 28 10 8 24 24 31 37 14 26 35 30 27 5 -3 -10 -8 -54 -11 -98
-4 -44 -8 -81 -10 -83 -15 -16 -163 275 -185 363 -11 47 -10 55 16 123 16 39
32 72 37 72 4 0 6 -3 4 -7z m1773 -102 l0 -99 -36 -7 c-20 -3 -47 -11 -61 -16
l-25 -9 26 -21 c14 -11 24 -25 21 -30 -4 -5 2 -6 11 -2 13 5 16 3 11 -10 -4
-11 -2 -14 7 -11 14 5 23 -17 32 -87 6 -39 -8 -54 -20 -23 -3 8 -10 13 -16 9
-5 -3 -30 30 -56 75 -26 44 -51 80 -55 80 -12 0 -22 -47 -13 -61 5 -8 3 -10
-7 -4 -8 5 -6 -1 4 -13 12 -13 19 -38 20 -70 1 -28 5 -48 10 -45 11 7 9 -21
-3 -33 -7 -7 -5 -21 6 -42 19 -38 27 -41 18 -7 -10 39 1 58 26 45 17 -9 20 -8
20 7 0 15 2 16 10 3 8 -12 10 -10 10 10 0 37 16 57 23 31 3 -13 1 -19 -5 -15
-6 4 -8 -16 -4 -57 18 -217 18 -219 6 -219 -9 0 -8 -6 3 -23 11 -17 12 -25 2
-34 -7 -7 -17 -8 -26 -2 -10 6 -11 9 -1 9 8 0 10 9 6 28 -11 52 -17 58 -25 27
-5 -17 -6 19 -4 85 4 96 3 111 -8 89 -6 -14 -18 -24 -24 -22 -7 3 -13 -3 -13
-12 0 -9 4 -13 10 -10 7 4 7 -3 0 -20 -6 -15 -8 -31 -4 -36 3 -5 0 -9 -6 -9
-6 0 -10 -10 -8 -22 2 -13 9 -22 16 -20 6 1 12 -7 12 -19 0 -11 -4 -18 -9 -14
-12 7 -32 -53 -29 -87 2 -21 5 -24 15 -16 10 8 12 7 7 -6 -10 -26 -64 -51 -78
-36 -8 9 -8 14 2 17 10 4 10 8 1 19 -7 9 -8 14 -1 14 7 0 8 10 3 28 -5 15 -6
71 -3 124 6 130 -12 164 -21 38 -5 -66 -11 -96 -22 -104 -14 -10 -14 -17 -1
-59 24 -81 18 -87 -88 -87 l-92 0 -11 71 c-12 72 -3 148 28 249 17 52 73 160
132 253 29 45 68 111 86 147 53 102 76 128 129 144 26 8 50 15 55 15 4 1 7
-43 7 -98z m-1544 -14 c3 -34 8 -65 10 -68 2 -3 4 -35 5 -72 2 -55 4 -64 18
-60 10 3 12 2 6 -4 -6 -4 -22 -24 -35 -43 -13 -19 -30 -41 -37 -48 -7 -7 -13
-20 -13 -28 0 -8 -4 -13 -9 -10 -4 3 -7 16 -5 28 2 13 9 91 15 173 10 140 12
168 18 220 2 18 3 18 12 -3 5 -13 12 -51 15 -85z m-111 3 c-9 -15 -26 -12 -41
8 -22 28 -16 34 16 17 17 -9 28 -20 25 -25z m415 -150 c11 -7 2 -9 -30 -9 -37
1 -41 2 -20 9 34 11 33 11 50 0z m287 -22 c-3 -8 -6 -5 -6 6 -1 11 2 17 5 13
3 -3 4 -12 1 -19z m126 -5 c-7 -2 -21 -2 -30 0 -10 3 -4 5 12 5 17 0 24 -2 18
-5z m37 -31 l45 -7 3 -101 c2 -83 0 -101 -12 -101 -8 0 -20 13 -27 29 -14 33
-61 73 -107 89 -42 14 -74 65 -59 92 13 20 30 20 157 -1z m-446 -18 c3 -8 2
-12 -4 -9 -6 3 -10 10 -10 16 0 14 7 11 14 -7z m-39 -43 c-2 -4 -6 -20 -9 -35
-3 -16 -8 -31 -11 -34 -11 -11 -27 17 -29 50 -1 32 1 34 26 30 15 -2 26 -7 23
-11z m-75 -21 c-13 -8 -12 -11 4 -23 15 -11 16 -16 6 -22 -9 -5 -11 -4 -6 3 4
7 2 12 -3 12 -6 0 -11 -5 -11 -11 0 -6 -7 -9 -15 -5 -14 5 -13 2 0 -24 9 -17
11 -30 5 -30 -5 0 -10 6 -11 13 -1 17 -17 -34 -17 -58 l-1 -20 9 20 c7 16 9
17 9 3 1 -9 -6 -23 -14 -32 -17 -16 -21 -51 -5 -41 6 3 10 -4 10 -18 0 -14 7
-41 15 -60 17 -41 20 -60 5 -37 -5 8 -13 11 -17 6 -4 -5 -2 -11 5 -13 15 -6
16 -23 2 -23 -6 0 -15 10 -20 23 -8 20 -9 20 -9 2 0 -20 31 -65 44 -65 4 0 5
9 2 19 -3 11 2 29 10 41 10 14 14 45 14 95 0 52 3 75 12 75 8 0 12 -21 12 -65
0 -38 -4 -65 -10 -65 -5 0 -3 -5 5 -10 13 -9 13 -11 0 -20 -13 -8 -12 -10 4
-10 20 0 20 0 0 -15 -10 -8 -14 -15 -8 -15 15 0 13 -70 -2 -70 -6 0 -22 10
-35 21 -13 12 -34 28 -46 36 -13 8 -21 19 -18 23 3 5 -3 6 -13 3 -36 -9 -56
81 -38 172 3 17 3 23 0 15 -9 -19 -27 -63 -29 -70 -1 -3 -6 -15 -11 -28 -10
-23 -10 -23 -27 -4 -17 19 -17 23 8 95 15 42 23 82 19 88 -4 7 -3 9 3 6 13 -8
26 20 16 35 -3 7 -1 8 5 4 7 -4 12 -3 12 1 0 18 54 29 79 17 30 -16 41 -10 34
16 -4 15 0 20 13 20 16 0 17 -2 4 -10z m310 -35 c0 -8 -4 -15 -10 -15 -5 0 -7
7 -4 15 4 8 8 15 10 15 2 0 4 -7 4 -15z m1038 -47 c0 -30 -1 -31 -9 -10 -5 13
-7 28 -3 33 9 15 11 11 12 -23z m-1328 8 c-7 -7 -13 -7 -20 0 -6 6 -3 10 10
10 13 0 16 -4 10 -10z m19 -35 c13 -11 20 -25 16 -32 -6 -8 -10 -8 -16 2 -8
11 -11 11 -20 -3 -5 -10 -15 -18 -20 -18 -6 0 -3 7 5 16 19 19 21 40 4 47 -8
3 -8 6 -2 6 6 1 21 -8 33 -18z m271 -35 c0 -3 -4 -8 -10 -11 -5 -3 -10 -1 -10
4 0 6 5 11 10 11 6 0 10 -2 10 -4z m-333 -68 c-3 -7 -5 -2 -5 12 0 14 2 19 5
13 2 -7 2 -19 0 -25z m91 -31 c-1 -18 3 -41 9 -52 6 -11 8 -25 6 -32 -3 -7 4
-9 19 -6 13 3 20 3 16 -1 -3 -4 -8 -7 -10 -5 -1 1 -13 -3 -25 -10 -20 -10 -23
-9 -23 7 0 11 -3 47 -7 82 -5 47 -3 61 6 56 6 -4 11 -22 9 -39z m328 -147 c8
-79 9 -75 -19 -77 -43 -3 -50 9 -34 58 8 24 18 59 22 78 10 46 22 23 31 -59z
m224 21 c-12 -18 -36 -33 -65 -41 -24 -7 -42 -16 -39 -21 3 -5 0 -9 -5 -9 -6
0 -11 -5 -11 -11 0 -5 5 -7 10 -4 6 3 10 1 10 -4 0 -6 -7 -11 -15 -11 -8 0
-15 9 -15 20 0 16 -5 19 -29 14 -39 -8 -53 23 -13 32 15 3 34 8 42 11 8 4 17
6 21 5 3 0 30 12 60 27 29 15 57 26 62 24 4 -3 -2 -17 -13 -32z m-529 -14
c-10 -9 -11 -8 -5 6 3 10 9 15 12 12 3 -3 0 -11 -7 -18z m1145 7 c-3 -9 -6
-20 -6 -25 0 -5 -4 -9 -9 -9 -4 0 -6 11 -3 25 2 14 9 25 14 25 6 0 7 -7 4 -16z
m21 -16 c-3 -7 -5 -2 -5 12 0 14 2 19 5 13 2 -7 2 -19 0 -25z m-1228 -378 c34
-74 61 -139 61 -145 0 -15 -50 -58 -51 -45 -1 6 -2 16 -3 23 -2 22 -31 33 -78
29 -42 -4 -47 -7 -53 -33 l-6 -28 -26 24 -26 23 58 146 c32 81 59 145 61 144
1 -2 30 -64 63 -138z m1037 -83 c22 -54 28 -77 18 -73 -8 3 -14 -1 -14 -9 0
-7 -4 -16 -9 -20 -6 -3 -6 7 -1 27 13 42 6 47 -11 9 l-14 -31 -17 33 c-9 17
-17 26 -18 20 0 -9 -16 -13 -45 -13 -32 0 -45 -4 -45 -14 0 -10 -7 -12 -22 -8
l-23 5 20 -24 c16 -20 15 -20 -10 3 l-28 27 59 147 58 147 34 -74 c19 -41 49
-109 68 -152z m-722 59 c-3 -77 -9 -145 -12 -150 -2 -4 -38 25 -78 65 l-74 73
0 -77 0 -77 -27 0 c-22 0 -25 2 -13 10 10 6 11 10 3 10 -10 0 -13 36 -13 145
0 80 3 145 6 145 4 0 40 -35 80 -77 l73 -78 1 81 0 81 31 -5 30 -4 -7 -142z
m291 65 c17 -45 32 -81 36 -81 3 0 20 37 38 81 22 54 36 77 41 68 4 -8 25 -71
46 -142 31 -105 35 -129 24 -140 -10 -10 -12 -9 -6 3 4 8 -1 4 -12 -9 l-20
-25 4 30 c2 16 1 22 -3 14 -4 -10 -14 8 -28 50 l-22 65 -32 -63 c-17 -34 -35
-60 -40 -58 -5 3 -19 31 -31 62 -26 63 -31 60 -50 -34 -8 -41 -16 -59 -21 -50
-5 7 -9 9 -9 4 0 -5 -6 -3 -14 3 -8 7 -13 24 -11 41 7 49 68 270 74 266 4 -3
20 -41 36 -85z m1108 -45 c31 -74 57 -138 57 -143 0 -5 -12 -20 -27 -34 -16
-13 -25 -20 -21 -15 4 4 2 13 -3 20 -5 6 -15 18 -22 27 -9 13 -23 15 -62 10
-29 -3 -50 -11 -51 -18 -3 -44 -4 -44 -30 -20 l-26 24 46 115 c55 141 68 168
75 168 3 0 32 -61 64 -134z m407 62 l1 -73 34 60 c18 33 37 66 42 73 6 10 14
6 31 -18 l23 -31 -30 -48 c-17 -26 -31 -51 -31 -54 0 -3 13 -27 29 -53 25 -38
28 -49 18 -65 -13 -21 -32 -27 -22 -6 4 6 0 4 -9 -7 -14 -17 -17 -14 -50 50
-19 38 -36 65 -37 59 -2 -12 -5 -45 -7 -97 -2 -41 -21 -53 -23 -15 -1 21 -1
21 -9 -3 -5 -17 -8 -19 -9 -7 -1 9 -5 17 -11 17 -6 0 -10 55 -10 145 l0 145
35 0 35 0 0 -72z m-3200 5 c6 -32 15 -71 19 -88 l8 -30 12 30 c23 62 44 105
50 105 3 -1 19 -29 35 -63 l28 -62 20 83 c11 45 23 82 26 82 4 0 18 -9 31 -19
l24 -18 -44 -126 c-37 -107 -45 -122 -56 -108 -12 15 -13 14 -7 -1 13 -36 -7
-16 -31 32 -28 55 -36 56 -55 10 -7 -16 -17 -27 -22 -24 -6 4 -8 -1 -4 -13 3
-10 0 -28 -8 -39 -14 -18 -15 -18 -9 5 4 17 3 22 -5 17 -7 -4 -12 -5 -12 -3 0
3 -17 61 -39 131 l-39 125 22 15 c35 25 44 18 56 -41z m350 -82 c0 -77 -3
-146 -6 -155 -4 -10 -18 -16 -35 -16 l-29 0 0 155 0 155 35 0 35 0 0 -139z
m130 19 l0 -120 34 0 c33 0 35 -1 33 -35 l-2 -34 -65 2 c-36 0 -55 3 -42 5 12
2 22 10 22 18 0 17 -17 19 -23 2 -10 -28 -15 4 -21 140 l-7 142 35 0 36 0 0
-120z m254 106 c47 -20 66 -51 66 -111 0 -52 -31 -121 -50 -110 -5 3 -7 0 -5
-7 3 -8 -7 -21 -24 -31 -35 -21 -47 -22 -32 -3 10 12 8 13 -9 9 -12 -3 -19
-11 -16 -18 3 -8 -4 -10 -20 -7 -14 2 -24 0 -24 -7 0 -6 -6 -11 -13 -11 -10 0
-14 36 -16 155 l-2 155 56 0 c31 0 71 -6 89 -14z m788 -141 c-2 -127 -6 -155
-17 -155 -8 0 -16 8 -16 18 -1 16 -2 16 -6 0 -2 -10 -9 -18 -14 -18 -5 0 -9
67 -9 155 l0 155 33 0 32 0 -3 -155z m727 34 c-1 -86 2 -124 11 -132 10 -9 11
-9 6 1 -5 8 2 12 23 12 27 0 31 -3 29 -26 -2 -19 -7 -24 -20 -21 -10 3 -18 1
-18 -3 0 -5 10 -11 23 -13 20 -4 20 -4 -4 -6 -14 0 -34 7 -45 17 -14 13 -26
17 -41 11 -19 -7 -21 -3 -27 53 -3 34 -6 99 -6 144 l0 84 36 0 35 0 -2 -121z
m336 91 c50 -47 23 -152 -50 -187 -33 -16 -43 -40 -36 -85 0 -5 -3 -8 -9 -8
-5 0 -11 10 -11 23 l-2 22 -4 -22 c-2 -13 -11 -23 -19 -23 -11 0 -14 24 -15
128 0 70 -2 140 -4 156 l-4 28 64 -4 c50 -3 70 -9 90 -28z m464 6 c26 -24 28
-77 4 -117 -15 -26 -16 -32 -4 -52 46 -72 46 -71 21 -99 l-22 -27 -40 75 c-35
67 -38 78 -25 92 30 36 25 92 -8 92 -14 0 -19 -69 -18 -232 0 -11 -8 -18 -20
-18 -13 0 -17 5 -14 15 4 8 2 17 -3 20 -5 3 -11 -5 -13 -17 -2 -13 -5 4 -6 37
-1 33 -5 104 -7 159 l-5 98 70 -4 c50 -2 75 -9 90 -22z m-789 -282 c0 -2 -12
-4 -26 -4 -14 0 -23 4 -20 9 6 8 46 4 46 -5z"/>
<path d="M2907 3722 c-15 -15 -27 -31 -27 -34 0 -3 14 -11 30 -17 l30 -10 0
45 c0 24 -1 44 -3 44 -2 0 -15 -13 -30 -28z"/>
<path d="M1526 3519 c-19 -15 -26 -30 -26 -55 0 -73 78 -103 128 -48 30 34 28
60 -7 95 -35 34 -59 36 -95 8z"/>
<path d="M2451 3544 c0 -11 3 -14 6 -6 3 7 2 16 -1 19 -3 4 -6 -2 -5 -13z"/>
<path d="M2431 3494 c0 -11 3 -14 6 -6 3 7 2 16 -1 19 -3 4 -6 -2 -5 -13z"/>
<path d="M2121 3162 c-5 -10 -16 -47 -25 -82 -12 -54 -12 -68 -1 -90 29 -55
59 -61 34 -7 -12 26 2 62 43 118 27 37 21 73 -14 77 -18 2 -30 -3 -37 -16z"/>
<path d="M1615 3190 c-3 -5 -1 -10 4 -10 6 0 11 5 11 10 0 6 -2 10 -4 10 -3 0
-8 -4 -11 -10z"/>
<path d="M2431 2834 c0 -11 3 -14 6 -6 3 7 2 16 -1 19 -3 4 -6 -2 -5 -13z"/>
<path d="M2440 2791 c0 -6 5 -13 10 -16 6 -3 10 1 10 9 0 9 -4 16 -10 16 -5 0
-10 -4 -10 -9z"/>
<path d="M3460 2864 c0 -8 5 -12 10 -9 6 4 8 11 5 16 -9 14 -15 11 -15 -7z"/>
<path d="M1754 1935 c-33 -38 -29 -42 23 -23 37 13 38 17 21 41 -12 15 -16 14
-44 -18z"/>
<path d="M2186 1744 c-4 -10 -1 -14 6 -12 15 5 23 28 10 28 -5 0 -13 -7 -16
-16z"/>
<path d="M2245 1660 c-3 -5 1 -10 9 -10 8 0 18 5 21 10 3 6 -1 10 -9 10 -8 0
-18 -4 -21 -10z"/>
<path d="M2360 1640 c0 -5 7 -10 15 -10 8 0 15 5 15 10 0 6 -7 10 -15 10 -8 0
-15 -4 -15 -10z"/>
<path d="M2283 1617 c-6 -10 21 -20 43 -15 10 1 19 8 21 14 4 13 -56 14 -64 1z"/>
<path d="M3340 1926 c0 -8 5 -18 10 -21 6 -3 10 3 10 14 0 12 -4 21 -10 21 -5
0 -10 -6 -10 -14z"/>
<path d="M1438 2073 c-46 -4 -46 -4 -38 -33 14 -48 20 -52 41 -26 10 13 19 29
19 35 0 6 6 11 14 11 8 0 18 5 21 10 3 6 3 9 -2 8 -4 -1 -29 -3 -55 -5z"/>
<path d="M2980 2025 c-10 -53 -10 -60 1 -42 6 10 8 25 6 35 -3 9 -6 13 -7 7z"/>
<path d="M2915 1874 c-102 -157 -114 -184 -100 -223 l12 -35 20 45 c25 55 64
95 109 109 l34 12 -6 86 c-4 48 -8 89 -10 90 -1 2 -28 -36 -59 -84z"/>
<path d="M2995 1930 c3 -5 8 -10 11 -10 2 0 4 5 4 10 0 6 -5 10 -11 10 -5 0
-7 -4 -4 -10z"/>
<path d="M3027 1661 c-4 -41 -5 -76 -2 -79 3 -3 5 7 5 22 0 15 5 36 10 47 7
11 7 31 2 51 -8 29 -9 25 -15 -41z"/>
<path d="M3021 1544 c0 -11 3 -14 6 -6 3 7 2 16 -1 19 -3 4 -6 -2 -5 -13z"/>
<path d="M2863 1518 c-15 -16 -20 -31 -16 -50 3 -16 9 -28 13 -28 6 0 40 82
40 97 0 10 -19 0 -37 -19z"/>
<path d="M1761 1634 c0 -11 3 -14 6 -6 3 7 2 16 -1 19 -3 4 -6 -2 -5 -13z"/>
<path d="M1752 1590 c0 -14 2 -19 5 -12 2 6 2 18 0 25 -3 6 -5 1 -5 -13z"/>
<path d="M1781 1077 c-16 -41 -14 -47 14 -47 28 0 31 13 10 50 l-13 25 -11
-28z"/>
<path d="M1700 956 c0 -2 7 -6 15 -10 8 -3 15 -1 15 4 0 6 -7 10 -15 10 -8 0
-15 -2 -15 -4z"/>
<path d="M1876 944 c-5 -14 -4 -15 9 -4 17 14 19 20 6 20 -5 0 -12 -7 -15 -16z"/>
<path d="M2788 1093 c-3 -4 -8 -20 -12 -35 -6 -25 -4 -28 20 -28 24 0 25 3 19
28 -7 31 -20 48 -27 35z"/>
<path d="M3492 1075 c-17 -38 -15 -45 14 -45 24 0 25 3 19 28 -10 40 -20 46
-33 17z"/>
<path d="M3590 950 c-9 -6 -10 -10 -3 -10 6 0 15 5 18 10 8 12 4 12 -15 0z"/>
<path d="M1270 939 c0 -5 5 -7 10 -4 6 3 10 8 10 11 0 2 -4 4 -10 4 -5 0 -10
-5 -10 -11z"/>
<path d="M1440 1080 c0 -85 10 -99 43 -62 25 28 35 64 26 96 -9 32 -24 46 -51
46 -16 0 -18 -10 -18 -80z"/>
<path d="M3280 1115 c0 -62 12 -70 35 -24 15 28 15 33 0 55 -24 38 -35 29 -35
-31z"/>
<path d="M3843 964 c-7 -7 -13 -19 -13 -26 0 -7 7 -2 16 10 18 26 16 37 -3 16z"/>
<path d="M3398 3945 c-18 -39 0 -75 57 -113 28 -18 62 -42 76 -53 26 -20 47
-74 51 -131 1 -15 4 -25 6 -23 3 2 14 -2 26 -10 11 -8 41 -15 66 -15 25 -1 55
-6 66 -13 42 -24 95 -77 88 -89 -4 -7 -3 -8 4 -4 7 4 12 13 12 21 0 21 23 24
44 6 28 -24 -37 64 -100 136 -61 69 -196 186 -294 255 -92 64 -88 62 -102 33z"/>
<path d="M1360 3873 c-102 -67 -116 -122 -55 -211 6 -8 171 72 183 89 7 10 17
17 21 15 4 -3 6 16 5 42 -2 34 -9 52 -25 65 -27 22 -97 22 -129 0z"/>
<path d="M3864 3502 c0 -10 6 -19 13 -19 8 0 9 6 2 19 -5 10 -11 18 -12 18 -2
0 -3 -8 -3 -18z"/>
<path d="M3807 3488 c7 -8 10 -17 7 -20 -2 -3 2 -8 11 -12 13 -4 14 -2 5 14
-5 10 -16 22 -23 26 -9 6 -9 5 0 -8z"/>
<path d="M3906 3492 c-3 -5 1 -9 9 -9 8 0 12 4 9 9 -3 4 -7 8 -9 8 -2 0 -6 -4
-9 -8z"/>
<path d="M3848 3468 c6 -6 18 -8 28 -6 14 3 12 5 -9 10 -19 3 -25 2 -19 -4z"/>
<path d="M3936 3452 c-3 -5 1 -9 9 -9 8 0 12 4 9 9 -3 4 -7 8 -9 8 -2 0 -6 -4
-9 -8z"/>
</g>
</svg>
