<?xml version="1.0" encoding="UTF-8" standalone="no" ?>
<!DOCTYPE svg PUBLIC "-//W3C//DTD SVG 1.1//EN" "http://www.w3.org/Graphics/SVG/1.1/DTD/svg11.dtd">
<svg xmlns="http://www.w3.org/2000/svg" xmlns:xlink="http://www.w3.org/1999/xlink" version="1.1" width="1080" height="1080" viewBox="0 0 1080 1080" xml:space="preserve">
<desc>Created with Fabric.js 5.2.4</desc>
<defs>
</defs>
<rect x="0" y="0" width="100%" height="100%" fill="transparent"></rect>
<g transform="matrix(1 0 0 1 540 540)" id="8d71265c-1f70-4462-9fad-4a037c065d28"  >
<rect style="stroke: none; stroke-width: 1; stroke-dasharray: none; stroke-linecap: butt; stroke-dashoffset: 0; stroke-linejoin: miter; stroke-miterlimit: 4; fill: rgb(255,255,255); fill-rule: nonzero; opacity: 1; visibility: hidden;" vector-effect="non-scaling-stroke"  x="-540" y="-540" rx="0" ry="0" width="1080" height="1080" />
</g>
<g transform="matrix(1 0 0 1 540 540)" id="74e58f08-cf35-4d80-8c51-cb305c2476b8"  >
</g>
<g transform="matrix(2.35 0 0 2.35 540 540)"  >
<g style="" vector-effect="non-scaling-stroke"   >
		<g transform="matrix(1 0 0 1 0 0)"  >
<path style="stroke: none; stroke-width: 1; stroke-dasharray: none; stroke-linecap: butt; stroke-dashoffset: 0; stroke-linejoin: miter; stroke-miterlimit: 4; fill: rgb(254,255,255); fill-rule: nonzero; opacity: 1;" vector-effect="non-scaling-stroke"  transform=" translate(-206.5, -144)" d="M 254 287 C 169.333344 287 85.166695 287 1.000034 287 C 1.000023 191.666702 1.000023 96.333397 1.000011 1.000072 C 137.999939 1.000048 274.999878 1.000048 411.999878 1.000024 C 411.999908 96.33326 411.999908 191.666519 411.999939 286.999878 C 359.5 287 307 287 254 287 M 269.955109 43.432266 C 270.954163 41.985516 271.953217 40.538769 273.707397 37.998531 C 269.07312 38.652901 265.203186 37.764576 263.087219 42.577736 C 254.401398 39.307831 245.715561 36.037926 236.398956 32.84153 C 236.23671 33.219234 236.074478 33.596939 235.392609 34.384232 C 226.101944 49.263756 211.185181 50.904285 201.021149 45.105671 C 195.90123 42.184742 191.974701 37.17197 187.123383 32.754387 C 169.967819 40.684395 151.47673 47.465439 131.280975 48.260231 C 131.280975 50.941483 131.280975 53.192165 131.280975 55.563446 C 150.603149 55.640617 168.024963 49.180084 185.449829 42.098881 C 186.660736 43.525074 187.776093 44.838722 189.833176 47.26152 C 179.523499 50.852047 170.204391 54.097595 160.406525 57.509872 C 160.406525 58.597889 160.406525 60.684181 160.406525 63.091503 C 161.77623 63.091503 162.904083 63.170238 164.018051 63.079243 C 174.364517 62.234074 183.661697 58.364285 192.578491 53.293026 C 194.003693 52.482468 196.009064 51.765263 197.470352 52.125118 C 201.282715 53.063942 204.942032 54.624321 208.677063 55.942005 C 208.677063 57.679451 208.677063 59.335686 208.399963 61.187374 C 208.493561 61.46146 208.587158 61.73555 208.81337 62.904793 C 208.770935 65.915337 208.728516 68.925888 208.036987 71.806656 C 207.184814 70.272514 206.36879 68.716942 205.473923 67.208115 C 202.367279 61.969837 199.105621 61.829491 195.201172 66.798256 C 191.763412 67.41758 188.325668 68.036903 184.233337 68.853546 C 182.832993 69.931023 181.432663 71.008499 179.652405 72.101967 C 179.652405 72.101967 179.275589 72.153061 178.436569 72.064934 C 174.245438 71.356689 171.079727 73.707214 170.467026 77.114006 C 170.04126 79.481232 172.570663 82.379944 173.931778 85.53714 C 173.993927 85.698486 174.056061 85.859833 174.007889 86.851036 C 174.072937 93.614838 177.194336 98.991913 181.834747 103.572273 C 189.251282 110.892838 198.694839 113.892075 208.583069 116.042801 C 214.566299 117.34417 220.738251 118.441727 226.307587 120.835594 C 236.085693 125.038521 236.522064 132.180344 227.850266 138.445511 C 225.50267 140.141602 222.858597 141.427338 220.207275 142.985657 C 228.385666 148.228836 229.057602 148.174011 235.481522 141.989349 C 244.726028 133.089188 243.688889 121.868759 232.520325 115.465973 C 227.995316 112.871841 222.726913 111.461586 217.668777 109.937439 C 210.530396 107.786469 203.035614 106.638832 196.129288 103.944427 C 188.206345 100.853401 182.416351 95.181541 181.620895 85.352684 C 182.4422 82.973351 183.263519 80.594017 184.648788 77.932655 C 185.470215 77.304169 186.291641 76.675682 187.71933 76.392776 C 188.126816 77.071968 188.468811 77.803017 188.956314 78.418869 C 189.803757 79.489395 190.741089 80.48877 191.640717 81.517975 C 192.047211 79.910873 192.585632 78.321045 192.799408 76.688713 C 192.893097 75.973206 192.324158 75.170921 192.729034 74.267761 C 194.130661 74.930374 195.532272 75.592995 196.988358 76.948883 C 197.720901 77.555351 198.453461 78.161819 199.186005 78.768288 C 201.438736 74.662697 205.569901 77.149376 208.810349 76.982735 C 208.810349 86.066528 208.810349 95.150314 208.810349 104.425774 C 211.5811 104.79538 213.626297 105.068207 215.957794 105.379227 C 215.957794 94.257088 215.957794 83.631882 216.182556 72.537125 C 216.247345 72.37616 216.312119 72.215202 217.149551 72.036423 C 219.179886 71.749268 221.210205 71.462105 223.071503 71.861267 C 223.030197 72.895897 222.825851 74.806641 222.972031 74.833847 C 225.190903 75.246788 228.054718 76.390862 229.59404 75.447937 C 233.711609 72.925713 236.610123 74.684029 239.409058 77.132278 C 244.837067 81.88015 245.140778 90.570602 239.248764 96.241501 C 234.734802 100.586052 229.02742 103.690659 224.203354 107.097778 C 234.4375 111.795494 231.450699 112.27269 240.804779 105.746254 C 241.886963 104.991203 242.872345 104.062996 243.783081 103.101799 C 256.575958 89.59967 252.039886 70.760132 235.144608 65.958588 C 236.870224 59.894115 236.235153 59.02943 228.632416 57.32951 C 230.217377 56.120323 231.699066 54.989941 233.865753 54.033447 C 234.727097 54.146717 235.588425 54.259987 236.486542 54.38739 C 236.486542 54.38739 236.515503 54.414906 236.366791 54.855431 C 236.366791 54.855431 236.621979 55.244087 237.061539 55.782799 C 239.386368 57.125874 241.711197 58.468948 244.737854 60.198776 C 251.26561 61.398285 257.793365 62.59779 266.020752 64.109612 C 264.70694 60.387779 263.889893 58.073242 263.340729 55.213421 C 264.27301 52.720497 263.262054 52.298084 261.001953 52.868324 C 259.326752 53.290989 257.582214 53.43882 255.868546 53.70908 C 255.813782 53.393505 255.759018 53.077927 255.704254 52.762352 C 257.142334 51.856689 258.580414 50.951031 260.663605 49.978745 C 260.878326 49.953625 261.093048 49.928501 261.862213 50.312485 C 264.232208 50.912056 266.602203 51.511623 269.433716 52.574902 C 270.288666 52.686333 271.143646 52.797764 272.717743 53.197876 C 279.656281 54.209095 286.594788 55.22031 293.72998 56.260185 C 293.72998 52.974804 293.72998 50.741756 293.72998 48.710068 C 285.624115 47.398151 277.831879 46.136993 269.975067 44.542892 C 269.975067 44.542892 269.892426 44.214024 269.955109 43.432266 M 300.91626 240.18779 C 298.61908 238.759506 296.321869 237.331207 294.159363 235.986649 C 294.928925 235.117523 295.994934 234.048965 296.829102 232.822693 C 296.951477 232.642838 295.605316 231.173721 295.554565 231.208176 C 293.390808 232.677536 290.630859 233.847031 289.377167 235.919998 C 288.057739 238.101654 289.716034 239.771683 292.508698 240.084778 C 294.045593 240.257095 295.494629 241.213104 296.242035 241.968552 C 295.235138 243.150391 294.228241 244.33223 293.221375 245.514099 C 295.109436 245.830032 296.997467 246.14595 299.837006 246.463257 C 306.273163 246.584244 312.711731 246.838837 319.143616 246.7229 C 320.57312 246.697159 321.979065 245.365891 323.395874 244.635727 C 322.078522 243.726746 320.848907 242.633362 319.422058 241.954498 C 317.553162 241.065323 315.528564 240.503418 313.469238 239.088608 C 313.306671 238.388779 313.144104 237.68895 313.034302 236.926834 C 313.034302 236.926834 312.979736 236.866135 313.194183 236.730453 C 313.295502 236.451324 313.224121 236.234467 313.139313 235.143707 C 313.048523 221.482651 313.095917 207.818649 312.804993 194.16185 C 312.671997 187.918686 312.160767 181.946091 321.013092 181.695755 C 321.725128 181.675613 322.386261 179.85466 323.071045 178.870529 C 322.059509 178.293137 321.084564 177.313477 320.029236 177.217484 C 317.384888 176.976913 314.662323 177.435989 312.047028 177.070755 C 307.221252 176.39682 304.560425 178.316818 302.361542 182.650421 C 295.81424 195.553894 288.820648 208.231323 281.972504 220.981522 C 280.125641 224.420197 278.175934 227.803635 275.82254 232.020294 C 274.19397 229.78299 273.056793 228.422516 272.138519 226.927612 C 264.297577 214.163422 255.792923 201.738815 248.926178 188.46785 C 244.207397 179.348145 238.37175 175.113342 228.286224 177.123489 C 227.805283 177.219345 227.227142 176.989014 226.801025 177.166656 C 225.707672 177.622452 224.674484 178.222565 223.617264 178.765015 C 224.567413 179.657288 225.368393 180.992142 226.491669 181.370682 C 234.350342 184.018936 236.802963 187.472305 236.307251 195.780945 C 235.593735 207.740234 234.848587 219.697632 234.121765 231.656128 C 233.638596 239.605652 233.618805 239.531555 225.862015 241.990082 C 224.738098 242.346298 223.965546 243.811111 223.030396 244.762909 C 224.112915 245.467667 225.185364 246.764084 226.279572 246.7827 C 234.411942 246.921158 242.548645 246.806 250.880554 247.578369 C 252.169006 255.492935 255.023865 259.772461 258.751434 259.170868 C 257.87265 255.929199 256.994995 252.691696 256.117371 249.454193 C 256.774445 249.241943 257.431519 249.029678 258.088623 248.817429 C 259.750885 251.868195 261.413177 254.918976 263.075439 257.969757 C 263.495453 258.024078 263.915436 258.07843 264.335449 258.132751 C 264.632294 256.920715 265.284607 255.665268 265.143219 254.506699 C 264.927917 252.742554 263.98233 251.073669 263.706635 249.308167 C 263.566223 248.408752 264.210114 247.386856 264.499481 246.420349 C 265.313324 247.035126 266.427917 247.482285 266.882263 248.297424 C 268.046783 250.386795 268.917847 252.639709 269.964966 254.957214 C 275.326965 253.67543 271.186768 250.082489 272.598755 247.812653 C 273.384979 247.506622 274.171173 247.200592 275.230133 247.551086 C 278.563568 253.156021 280.304382 253.24614 287.619629 248.192474 C 285.746429 239.202911 285.457275 238.737717 280.832611 236.228668 C 287.92688 223.352356 295.021179 210.476044 302.115479 197.599731 C 302.782898 197.838425 303.450317 198.077118 304.117737 198.315811 C 304.117737 207.53743 304.117737 216.759033 303.96994 226.89386 C 304.031158 230.276993 304.092346 233.66011 303.989105 237.692886 C 303.329132 238.80835 302.669128 239.923813 301.515289 240.945648 C 301.34848 240.929672 301.181671 240.913681 300.91626 240.18779 M 349.77301 211.30751 C 349.01709 212.395279 348.261169 213.483047 347.068695 215.199051 C 350.495972 214.845901 352.33197 214.656723 355.526245 214.327591 C 352.49646 216.238358 350.62793 217.004532 349.328888 218.329193 C 347.194824 220.505417 348.499664 224.785538 351.44397 224.718048 C 354.381012 224.650726 357.455444 223.350494 360.063751 221.873901 C 360.628754 221.554047 359.516388 218.166534 359.075409 216.214844 C 358.822662 215.096298 358.366241 214.023788 358.735992 212.925446 C 360.155365 213.234497 361.574768 213.543549 363.560425 214.227005 C 365.121246 215.455307 366.682068 216.683624 368.53067 218.552277 C 369.852966 219.393387 371.598419 219.939865 372.424622 221.126404 C 376.078796 226.374237 374.626434 234.539047 369.421082 238.671997 C 364.225311 242.797348 358.236908 243.670395 352.618408 240.426147 C 347.771393 237.627365 342.430298 234.454697 344.552734 226.799606 C 344.966675 225.306641 342.339996 222.970657 341.115784 221.023499 C 340.140991 222.667572 338.978577 224.234192 338.256927 225.982712 C 337.769653 227.163284 337.903656 228.60025 337.294708 229.40831 C 336.229401 225.626312 332.28363 221.728836 338.195709 218.416626 C 333.497253 216.252548 329.348877 218.052109 330.222687 221.658829 C 331.252289 225.908615 332.401093 230.434372 337.26059 233.127472 C 336.972046 235.661774 336.683502 238.196075 336.52063 239.626663 C 340.399811 241.441132 343.403168 242.910416 346.460632 244.256805 C 349.173645 245.451508 351.854614 246.931992 354.70932 247.555176 C 367.110809 250.262375 379.338348 242.208328 381.686737 230.032333 C 383.888733 218.615433 376.658997 208.160599 364.6763 205.56749 C 364.6763 205.56749 364.287628 205.50087 363.665894 205.130463 C 358.362213 202.917892 352.655457 201.338058 347.880127 198.296066 C 343.934174 195.782379 343.321533 190.946442 345.519012 186.61087 C 347.743622 182.221863 352.00412 180.186615 356.402832 181.895035 C 360.349518 183.427872 363.770874 186.542801 367.089996 189.354095 C 368.509583 190.556488 368.894012 192.907608 370.111877 194.450043 C 370.807404 195.330933 372.233673 195.634827 373.330933 196.198502 C 373.736267 195.221161 374.463715 194.253021 374.491974 193.264877 C 374.624695 188.626038 374.637421 183.979904 374.521912 179.340637 C 374.494171 178.227234 373.812225 177.130142 373.431183 176.025558 C 372.925232 175.817871 372.419281 175.610184 371.91333 175.402512 C 370.957611 177.159775 370.001862 178.917038 369.197205 180.396561 C 366.343353 179.129471 364.425537 178.11377 362.400024 177.406494 C 352.55484 173.968735 342.13678 178.09671 338.355286 186.854782 C 334.521423 195.734146 338.493652 204.77832 348.431213 209.804688 C 349.015472 210.10022 349.585144 210.42453 349.77301 211.30751 M 93.076767 215.639801 C 94.391441 216.660431 96.371529 217.414658 96.905296 218.74794 C 99.186569 224.446136 100.967194 230.342209 103.077461 236.112335 C 104.448341 239.860733 103.476112 241.685974 99.347649 242.111694 C 98.130524 242.237213 97.065056 243.833359 95.930092 244.755569 C 97.168488 245.461441 98.390213 246.741043 99.648048 246.777588 C 106.449722 246.975159 113.26355 246.971725 120.065086 246.767822 C 121.375977 246.728531 122.650864 245.488052 123.942368 244.801712 C 123.025459 243.835815 122.239403 242.240356 121.16803 242.017685 C 117.389519 241.232346 115.787331 238.736557 114.412712 235.460587 C 106.541389 216.701752 98.582657 197.978516 90.448036 179.332855 C 89.551102 177.276947 87.482407 174.601974 85.709419 174.401138 C 84.175072 174.227325 81.651443 176.834778 80.656601 178.773071 C 71.015709 197.557037 61.519199 216.416992 52.205112 235.365173 C 50.450966 238.933746 48.582832 241.487045 44.328651 241.964066 C 43.139202 242.097427 42.127949 243.819992 41.034946 244.813538 C 42.318993 245.498734 43.584965 246.732132 44.890186 246.775162 C 50.855133 246.971817 56.837276 246.978806 62.799057 246.723236 C 64.435684 246.653061 66.023239 245.438324 67.633324 244.74881 C 66.137825 243.810928 64.743172 242.354782 63.126385 242.040176 C 59.458122 241.326385 58.155853 239.694778 59.655174 236.145538 C 61.980515 230.640915 64.374191 225.162796 66.568741 219.606232 C 67.804268 216.477905 69.939125 215.490433 73.165192 215.57489 C 79.491631 215.740509 85.825462 215.624115 93.076767 215.639801 M 225.317902 167.769363 C 231.027817 160.207565 229.651871 152.834808 221.374207 148.315857 C 218.505417 146.749725 215.062103 146.267593 212.091415 144.849854 C 206.028961 141.956589 199.542343 139.505524 194.289368 135.487793 C 188.992203 131.436234 190.056808 126.168282 195.741669 122.404274 C 197.77858 121.055603 200.021271 120.017693 202.170044 118.837952 C 202.167114 118.433533 202.164169 118.029106 202.16124 117.624687 C 198.331528 117.288704 194.022995 115.69101 190.786819 116.919083 C 186.190063 118.663498 183.132751 123.504517 183.655334 128.540268 C 184.088715 132.716492 185.870224 137.303497 188.470367 140.587448 C 193.586304 147.048737 201.248474 149.825638 209.033981 152.02211 C 212.050873 152.873245 215.200195 153.682724 217.846054 155.256302 C 219.364944 156.159637 220.822922 158.580994 220.773514 160.2742 C 220.731216 161.724136 218.503876 163.110336 217.24292 164.524719 C 217.345596 158.122223 214.177185 156.413361 209.094299 156.210327 C 208.914276 158.840057 208.740402 161.380112 208.555801 164.076553 C 203.233856 161.527527 202.906464 160.360489 206.162628 154.59819 C 203.254974 154.222992 200.636627 153.885117 198.01828 153.547256 C 197.709747 157.014679 196.907333 160.538132 197.291931 163.926895 C 197.497757 165.740479 199.443268 167.759064 201.127441 168.935013 C 209.921494 175.075333 214.096436 176.279587 225.317902 167.769363 M 189.99176 203.500275 C 189.99176 213.662811 189.992828 223.825333 189.991379 233.987869 C 189.990402 240.832703 189.970444 240.722214 183.13945 241.858521 C 181.725418 242.09375 180.504044 243.487122 179.193893 244.34671 C 180.713013 245.176163 182.207474 246.663452 183.755508 246.721481 C 190.548309 246.976166 197.363159 246.976349 204.154572 246.695251 C 205.823608 246.626175 207.434433 245.150192 209.072021 244.320984 C 207.559921 243.49324 206.046951 241.969498 204.535858 241.971375 C 200.395828 241.976501 199.050705 240.330811 199.095108 236.245728 C 199.26889 220.254135 199.225342 204.25914 199.122726 188.266312 C 199.098236 184.449615 199.029022 181.183792 204.389572 181.608154 C 205.273422 181.678116 206.304977 179.882111 207.268295 178.948471 C 206.040787 178.285278 204.833267 177.095917 203.582352 177.04834 C 197.596756 176.82074 191.592987 176.742737 185.610626 176.983459 C 184.059387 177.045898 182.562134 178.449814 181.04007 179.237549 C 182.558517 180.111954 184.061279 181.684631 185.598618 181.719223 C 189.08316 181.797623 190.224136 183.063248 190.058716 186.5103 C 189.803467 191.829208 189.991653 197.169403 189.99176 203.500275 M 145.163467 182.096573 C 145.720291 183.851379 146.746094 185.602371 146.760483 187.361603 C 146.887192 202.852661 146.83725 218.345184 146.832474 233.83728 C 146.830338 240.727493 146.804947 240.621262 139.969437 241.779221 C 138.541458 242.021118 137.3004 243.366333 135.973206 244.20311 C 137.422134 245.080902 138.84407 246.659927 140.3246 246.716919 C 147.282288 246.984756 154.261307 246.978073 161.220032 246.723099 C 162.776443 246.666077 164.281799 245.214981 165.810669 244.405701 C 164.320251 243.549957 162.817535 241.955109 161.341766 241.979675 C 157.221298 242.048218 155.867065 240.572906 155.922012 236.394547 C 156.134415 220.238922 156.084793 204.078186 155.950882 187.920883 C 155.919952 184.189285 156.019379 181.338593 160.988449 181.616058 C 161.914337 181.66777 162.956299 179.640778 163.944687 178.57309 C 162.759506 178.037552 161.587524 177.075958 160.386871 177.038712 C 154.566376 176.858093 148.73082 176.75676 142.917236 177.009613 C 141.21106 177.083801 139.559464 178.41246 137.882843 179.166183 C 139.519577 180.070755 141.138199 181.011169 142.805939 181.854446 C 143.217911 182.062744 143.789444 181.955444 145.163467 182.096573 M 164.128525 92.79705 C 162.424088 93.540245 160.719635 94.283447 159.015198 95.026649 C 159.097839 95.603279 159.180496 96.179909 159.263138 96.756538 C 161.22966 96.581886 163.560516 97.000183 165.066025 96.075188 C 166.762543 95.032837 168.971375 92.600182 168.75412 91.089035 C 168.131836 86.760818 166.44931 82.574394 165.032471 78.383339 C 164.835938 77.801971 163.832138 77.251259 163.124435 77.126457 C 159.887207 76.55558 154.496933 80.426315 154.074768 83.503624 C 153.583481 87.084702 157.136215 90.745354 161.202759 91.05481 C 162.335938 91.141045 163.426147 91.791771 164.128525 92.79705 M 233.543228 267.115051 C 232.707306 264.445831 231.999863 261.725891 230.975754 259.13092 C 230.531189 258.004456 229.089905 256.163239 228.690048 256.305176 C 225.864609 257.308167 222.577026 258.181671 220.696716 260.24469 C 219.528702 261.526215 219.789383 265.27948 220.849838 267.069733 C 221.776062 268.633362 224.675308 269.130157 226.790024 269.837921 C 227.638199 270.121826 228.719345 269.709625 229.694458 269.614258 C 229.850632 270.032715 230.006821 270.451141 230.162994 270.869568 C 228.106415 271.991882 226.04985 273.114166 223.993271 274.236481 C 224.087814 274.770081 224.182358 275.303711 224.276886 275.837341 C 226.260208 275.616333 228.505768 275.907867 230.167145 275.057709 C 232.852356 273.683655 234.953354 271.460022 233.543228 267.115051 M 208.833969 128.53186 C 208.835709 131.531204 208.450699 134.605438 209.010544 137.496704 C 209.270859 138.841141 211.249313 140.499725 212.67012 140.747498 C 213.633591 140.915527 215.924942 138.937637 215.998306 137.813477 C 216.35321 132.374985 216.158295 126.900597 216.158295 121.316589 C 213.625595 120.756088 211.56073 120.299118 208.833908 119.695656 C 208.833908 122.655144 208.833908 125.110344 208.833969 128.53186 M 325.457886 235.300659 C 326.465393 234.306381 327.47287 233.312103 328.480377 232.31781 C 327.183624 232.270309 325.884216 232.149368 324.590881 232.196335 C 323.342682 232.241684 322.1008 232.46022 320.856171 232.602661 C 320.79129 232.243073 320.72644 231.883499 320.661591 231.523926 C 322.98999 230.467026 325.318359 229.410141 327.628387 228.361603 C 325.66803 222.902008 323.324677 221.164978 319.578857 222.290054 C 315.558472 223.497604 313.697632 227.319962 315.203979 231.990448 C 316.807892 236.963455 320.838684 236.246918 325.457886 235.300659 M 295.424835 42.896824 C 294.041931 39.350754 293.088379 35.51609 291.016327 32.433205 C 290.388763 31.499542 286.611328 32.421337 284.39032 32.961048 C 283.60376 33.152187 283.155273 34.734566 282.189362 36.252308 C 285.276794 35.897301 287.242432 35.671284 289.208069 35.445267 C 288.178558 37.101086 286.786896 37.537956 286.011322 38.481342 C 284.939209 39.785374 283.285889 42.15078 283.741821 42.851871 C 284.694855 44.317406 286.870636 45.798588 288.534546 45.787849 C 290.661102 45.774124 292.778168 44.294548 295.424835 42.896824 M 208.70108 262.994629 C 206.809479 264.704651 203.965073 266.085083 203.23465 268.196747 C 201.918884 272.000671 205.315979 276.446808 208.986679 276.984009 C 212.910767 277.558319 216.438751 275.073334 216.939819 271.382141 C 217.516449 267.13446 214.378082 263.582733 208.70108 262.994629 M 151.975662 91.485413 C 151.446777 89.935287 151.144348 88.254982 150.343185 86.861366 C 148.511169 83.674461 144.237183 83.002609 140.741516 85.151001 C 137.79631 86.96109 136.566605 91.666626 139.020126 94.20813 C 140.769943 96.020699 143.551849 97.53447 146.016663 97.788277 C 149.334534 98.129921 151.376434 95.653221 151.975662 91.485413 M 236.428467 261.627808 C 238.861877 262.746155 241.455566 264.973511 243.680893 264.651947 C 245.665146 264.365173 248.178314 261.52536 248.797287 259.341492 C 249.964737 255.222534 247.230377 251.963562 243.416855 251.329254 C 241.302216 250.977554 238.177811 252.826736 236.571472 254.630478 C 235.47464 255.862137 236.214294 258.729218 236.428467 261.627808 M 126.840553 87.832596 C 127.949524 91.26915 128.818176 94.808067 130.227463 98.116714 C 132.047531 102.389847 135.021194 102.894722 136.904984 100.591827 C 133.926254 94.408257 131.174759 88.696381 128.423264 82.984512 C 127.892189 83.103569 127.361115 83.222618 126.830032 83.341675 C 126.737755 84.603317 126.64547 85.864952 126.840553 87.832596 M 199.242355 276.073547 C 197.81424 272.03244 196.458755 267.962738 194.891037 263.976532 C 194.608841 263.258972 193.452728 262.885101 192.700073 262.35257 C 192.171707 263.107513 191.028412 264.088226 191.2099 264.582611 C 193.063339 269.631622 194.990967 274.667969 197.27562 279.530273 C 197.670029 280.36969 199.81987 280.545288 201.191177 280.668945 C 201.615875 280.707245 202.625519 279.095978 202.557617 279.026031 C 201.703629 278.146271 200.701035 277.410767 199.242355 276.073547 M 303.515442 37.039467 C 302.399323 33.843967 301.283203 30.648468 300.167053 27.452969 C 299.518463 27.038273 298.869843 26.623575 298.221222 26.208879 C 297.847168 27.290724 296.929901 28.533054 297.193817 29.426384 C 298.287231 33.127312 299.011902 37.298985 301.291748 40.170555 C 303.045441 42.379372 304.057007 39.868576 303.515442 37.039467 z" stroke-linecap="round" />
</g>
		<g transform="matrix(1 0 0 1 66.55 68.1)"  >
<path style="stroke: none; stroke-width: 1; stroke-dasharray: none; stroke-linecap: butt; stroke-dashoffset: 0; stroke-linejoin: miter; stroke-miterlimit: 4; fill: rgb(23,151,255); fill-rule: nonzero; opacity: 1;" vector-effect="non-scaling-stroke"  transform=" translate(-273.05, -212.1)" d="M 274.957397 246.894562 C 274.171173 247.200592 273.384979 247.506622 272.078247 247.566284 C 270.078735 245.164719 268.599731 243.009552 267.058167 240.505737 C 259.151367 226.040329 251.307144 211.923569 243.462936 197.806793 C 242.827164 198.029358 242.191391 198.251938 241.555618 198.474503 C 241.555618 210.684464 241.712646 222.897507 241.473969 235.102798 C 241.385468 239.628998 242.725479 241.982254 247.498413 241.858414 C 251.096008 241.76506 251.644974 243.876236 250.734039 246.815781 C 250.716446 246.801865 250.683975 246.770416 250.683975 246.770416 C 242.548645 246.806 234.411942 246.921158 226.279572 246.7827 C 225.185364 246.764084 224.112915 245.467667 223.030396 244.762909 C 223.965546 243.811111 224.738098 242.346298 225.862015 241.990082 C 233.618805 239.531555 233.638596 239.605652 234.121765 231.656128 C 234.848587 219.697632 235.593735 207.740234 236.307251 195.780945 C 236.802963 187.472305 234.350342 184.018936 226.491669 181.370682 C 225.368393 180.992142 224.567413 179.657288 223.617264 178.765015 C 224.674484 178.222565 225.707672 177.622452 226.801025 177.166656 C 227.227142 176.989014 227.805283 177.219345 228.286224 177.123489 C 238.37175 175.113342 244.207397 179.348145 248.926178 188.46785 C 255.792923 201.738815 264.297577 214.163422 272.138519 226.927612 C 273.056793 228.422516 274.19397 229.78299 275.82254 232.020294 C 278.175934 227.803635 280.125641 224.420197 281.972504 220.981522 C 288.820648 208.231323 295.81424 195.553894 302.361542 182.650421 C 304.560425 178.316818 307.221252 176.39682 312.047028 177.070755 C 314.662323 177.435989 317.384888 176.976913 320.029236 177.217484 C 321.084564 177.313477 322.059509 178.293137 323.071045 178.870514 C 322.386261 179.85466 321.725128 181.675613 321.013092 181.695755 C 312.160767 181.946091 312.671997 187.918686 312.804993 194.16185 C 313.095917 207.818649 313.048523 221.482651 313.06076 235.808105 C 312.982208 236.472504 312.979736 236.866135 312.979736 236.866135 C 312.979736 236.866135 313.034302 236.926834 312.616547 236.958984 C 310.517029 235.948929 308.736603 235.022675 307.246521 233.755173 C 306.98526 233.532928 307.829803 231.812378 308.365021 230.902176 C 309.036072 229.760849 309.914917 228.741714 310.704102 227.669861 C 309.272705 227.411545 307.828491 227.207367 306.414886 226.873703 C 305.623047 226.686813 304.881775 226.2854 304.117737 225.980637 C 304.117737 216.759033 304.117737 207.53743 304.117737 198.315811 C 303.450317 198.077118 302.782898 197.838425 302.115479 197.599731 C 295.021179 210.476044 287.92688 223.352356 280.470398 236.807037 C 278.391296 240.555115 276.674347 243.724838 274.957397 246.894562 z" stroke-linecap="round" />
</g>
		<g transform="matrix(1 0 0 1 -6.37 -74.93)"  >
<path style="stroke: none; stroke-width: 1; stroke-dasharray: none; stroke-linecap: butt; stroke-dashoffset: 0; stroke-linejoin: miter; stroke-miterlimit: 4; fill: rgb(16,147,255); fill-rule: nonzero; opacity: 1;" vector-effect="non-scaling-stroke"  transform=" translate(-200.13, -69.07)" d="M 237.029739 32.768021 C 245.715561 36.037926 254.401398 39.307831 263.689209 42.797264 C 264.867554 43.296715 265.443848 43.576633 266.019043 44.240009 C 267.002655 47.119377 267.987427 49.615288 268.972198 52.111198 C 266.602203 51.511623 264.232208 50.912056 261.832947 49.968372 C 260.608276 47.503914 259.913239 44.488411 258.099396 43.474545 C 255.426895 41.98074 252.369064 42.916615 250.521149 46.22588 C 248.027344 45.343571 245.766113 44.747574 243.813034 43.618538 C 239.732925 41.259911 237.522385 42.850605 236.09523 47.190285 C 236.188705 49.874165 236.319229 52.123711 236.449768 54.373257 C 235.588425 54.259987 234.727097 54.146717 233.289062 53.662193 C 230.090256 50.99963 227.492401 51.343277 224.515686 53.480568 C 222.379654 54.046032 220.504898 54.232399 218.940506 55.028622 C 217.79834 55.60994 217.064896 56.994354 215.830383 58.101589 C 215.641998 59.787178 215.772522 61.391945 215.602844 63.145077 C 213.731186 65.254845 212.159744 67.216255 210.588303 69.177658 C 212.378128 70.453995 214.167969 71.730339 215.957794 73.006683 C 215.957794 83.631882 215.957794 94.257088 215.957794 105.379227 C 213.626297 105.068207 211.5811 104.79538 208.810349 104.425774 C 208.810349 95.150314 208.810349 86.066528 208.849091 76.117348 C 208.820587 74.146782 208.753326 73.041611 208.686081 71.936432 C 208.728516 68.925888 208.770935 65.915337 208.822418 62.202499 C 208.779984 61.330772 208.728516 61.161346 208.677063 60.99192 C 208.677063 59.335686 208.677063 57.679451 208.677063 55.942005 C 204.942032 54.624321 201.282715 53.063942 197.470352 52.125118 C 196.009064 51.765263 194.003693 52.482468 192.578491 53.293026 C 183.661697 58.364285 174.364517 62.234074 164.018051 63.079243 C 162.904083 63.170238 161.77623 63.091503 160.406525 63.091503 C 160.406525 60.684181 160.406525 58.597889 160.406525 57.509872 C 170.204391 54.097595 179.523499 50.852047 189.833176 47.26152 C 187.776093 44.838722 186.660736 43.525074 185.449829 42.098881 C 168.024963 49.180084 150.603149 55.640617 131.280975 55.563446 C 131.280975 53.192165 131.280975 50.941483 131.280975 48.260231 C 151.47673 47.465439 169.967819 40.684395 187.123383 32.754387 C 191.974701 37.17197 195.90123 42.184742 201.021149 45.105671 C 211.185181 50.904285 226.101944 49.263756 235.91037 34.054695 C 236.628677 33.406113 236.829208 33.087067 237.029739 32.768021 z" stroke-linecap="round" />
</g>
		<g transform="matrix(1 0 0 1 -124.01 66.66)"  >
<path style="stroke: none; stroke-width: 1; stroke-dasharray: none; stroke-linecap: butt; stroke-dashoffset: 0; stroke-linejoin: miter; stroke-miterlimit: 4; fill: rgb(26,152,255); fill-rule: nonzero; opacity: 1;" vector-effect="non-scaling-stroke"  transform=" translate(-82.49, -210.66)" d="M 92.616501 215.632111 C 85.825462 215.624115 79.491631 215.740509 73.165192 215.57489 C 69.939125 215.490433 67.804268 216.477905 66.568741 219.606232 C 64.374191 225.162796 61.980515 230.640915 59.655174 236.145538 C 58.155853 239.694778 59.458122 241.326385 63.126385 242.040176 C 64.743172 242.354782 66.137825 243.810928 67.633316 244.74881 C 66.023239 245.438324 64.435684 246.653061 62.799057 246.723236 C 56.837276 246.978806 50.855133 246.971817 44.890186 246.775162 C 43.584965 246.732132 42.318993 245.498734 41.03495 244.813538 C 42.127949 243.819992 43.139202 242.097427 44.328651 241.964066 C 48.582832 241.487045 50.450966 238.933746 52.205112 235.365173 C 61.519199 216.416992 71.015709 197.557037 80.656601 178.773071 C 81.651443 176.834778 84.175072 174.227325 85.709419 174.401138 C 87.482407 174.601974 89.551102 177.276947 90.448036 179.332855 C 98.582657 197.978516 106.541389 216.701752 114.412712 235.460587 C 115.787331 238.736557 117.389519 241.232346 121.16803 242.017685 C 122.239403 242.240356 123.025459 243.835815 123.942368 244.801697 C 122.650864 245.488052 121.375977 246.728531 120.065086 246.767822 C 113.26355 246.971725 106.449722 246.975159 99.648048 246.777588 C 98.390213 246.741043 97.168488 245.461441 95.930084 244.755554 C 97.065056 243.833359 98.130524 242.237213 99.347649 242.111694 C 103.476112 241.685974 104.448341 239.860733 103.077461 236.112335 C 100.967194 230.342209 99.186569 224.446136 96.905296 218.74794 C 96.371529 217.414658 94.391441 216.660431 92.616501 215.632111 M 74.17868 202.713867 C 73.095535 205.013763 72.012383 207.313675 70.81736 209.851135 C 78.592201 209.851135 85.656212 209.851135 93.658447 209.851135 C 90.218323 202.033661 87.04261 194.817032 83.866898 187.600403 C 83.326347 187.656036 82.785797 187.71167 82.245255 187.767319 C 79.690063 192.538391 77.134872 197.309464 74.17868 202.713867 z" stroke-linecap="round" />
</g>
		<g transform="matrix(1 0 0 1 -0.34 1.17)"  >
<path style="stroke: none; stroke-width: 1; stroke-dasharray: none; stroke-linecap: butt; stroke-dashoffset: 0; stroke-linejoin: miter; stroke-miterlimit: 4; fill: rgb(23,151,255); fill-rule: nonzero; opacity: 1;" vector-effect="non-scaling-stroke"  transform=" translate(-206.16, -145.17)" d="M 225.078735 168.048737 C 214.096436 176.279587 209.921494 175.075333 201.127441 168.935013 C 199.443268 167.759064 197.497757 165.740479 197.291931 163.926895 C 196.907333 160.538132 197.709747 157.014679 198.01828 153.547256 C 200.636627 153.885117 203.254974 154.222992 206.162628 154.59819 C 202.906464 160.360489 203.233856 161.527527 208.555801 164.076553 C 208.740402 161.380112 208.914276 158.840057 209.094299 156.210327 C 214.177185 156.413361 217.345596 158.122223 217.24292 164.524719 C 218.503876 163.110336 220.731216 161.724136 220.773514 160.2742 C 220.822922 158.580994 219.364944 156.159637 217.846054 155.256302 C 215.200195 153.682724 212.050873 152.873245 209.033981 152.02211 C 201.248474 149.825638 193.586304 147.048737 188.470367 140.587448 C 185.870224 137.303497 184.088715 132.716492 183.655334 128.540268 C 183.132751 123.504517 186.190063 118.663498 190.786819 116.919083 C 194.022995 115.69101 198.331528 117.288704 202.16124 117.624687 C 202.164169 118.029106 202.167114 118.433533 202.170044 118.837952 C 200.021271 120.017693 197.77858 121.055603 195.741669 122.404274 C 190.056808 126.168282 188.992203 131.436234 194.289368 135.487793 C 199.542343 139.505524 206.028961 141.956589 212.091415 144.849854 C 215.062103 146.267593 218.505417 146.749725 221.374207 148.315857 C 229.651871 152.834808 231.027817 160.207565 225.078735 168.048737 z" stroke-linecap="round" />
</g>
		<g transform="matrix(1 0 0 1 1.58 -27.58)"  >
<path style="stroke: none; stroke-width: 1; stroke-dasharray: none; stroke-linecap: butt; stroke-dashoffset: 0; stroke-linejoin: miter; stroke-miterlimit: 4; fill: rgb(24,151,255); fill-rule: nonzero; opacity: 1;" vector-effect="non-scaling-stroke"  transform=" translate(-208.08, -116.42)" d="M 181.265045 86.064598 C 182.416351 95.181541 188.206345 100.853401 196.129288 103.944427 C 203.035614 106.638832 210.530396 107.786469 217.668777 109.937439 C 222.726913 111.461586 227.995316 112.871841 232.520325 115.465973 C 243.688889 121.868759 244.726028 133.089188 235.481522 141.989349 C 229.057602 148.174011 228.385666 148.228836 220.207275 142.985657 C 222.858597 141.427338 225.50267 140.141602 227.850266 138.445511 C 236.522064 132.180344 236.085693 125.038521 226.307587 120.835594 C 220.738251 118.441727 214.566299 117.34417 208.583069 116.042801 C 198.694839 113.892075 189.251282 110.892838 181.834747 103.572273 C 177.194336 98.991913 174.072937 93.614838 174.469849 86.425255 C 177.042892 86.021187 179.153961 86.042892 181.265045 86.064598 z" stroke-linecap="round" />
</g>
		<g transform="matrix(1 0 0 1 -12.37 67.87)"  >
<path style="stroke: none; stroke-width: 1; stroke-dasharray: none; stroke-linecap: butt; stroke-dashoffset: 0; stroke-linejoin: miter; stroke-miterlimit: 4; fill: rgb(20,149,255); fill-rule: nonzero; opacity: 1;" vector-effect="non-scaling-stroke"  transform=" translate(-194.13, -211.87)" d="M 189.99176 203.000427 C 189.991653 197.169403 189.803467 191.829208 190.058716 186.5103 C 190.224136 183.063248 189.08316 181.797623 185.598618 181.719223 C 184.061279 181.684631 182.558517 180.111954 181.04007 179.237549 C 182.562134 178.449814 184.059387 177.045898 185.610626 176.983459 C 191.592987 176.742737 197.596756 176.82074 203.582352 177.04834 C 204.833267 177.095917 206.040787 178.285278 207.26828 178.948456 C 206.304977 179.882111 205.273422 181.678116 204.389572 181.608154 C 199.029022 181.183792 199.098236 184.449615 199.122726 188.266312 C 199.225342 204.25914 199.26889 220.254135 199.095108 236.245728 C 199.050705 240.330811 200.395828 241.976501 204.535858 241.971375 C 206.046951 241.969498 207.559921 243.49324 209.072021 244.320984 C 207.434433 245.150192 205.823608 246.626175 204.154572 246.695251 C 197.363159 246.976349 190.548309 246.976166 183.755508 246.721481 C 182.207474 246.663452 180.713013 245.176163 179.193893 244.34671 C 180.504044 243.487122 181.725418 242.09375 183.13945 241.858521 C 189.970444 240.722214 189.990402 240.832703 189.991379 233.987869 C 189.992828 223.825333 189.99176 213.662811 189.99176 203.000427 z" stroke-linecap="round" />
</g>
		<g transform="matrix(1 0 0 1 -55.61 67.89)"  >
<path style="stroke: none; stroke-width: 1; stroke-dasharray: none; stroke-linecap: butt; stroke-dashoffset: 0; stroke-linejoin: miter; stroke-miterlimit: 4; fill: rgb(20,149,255); fill-rule: nonzero; opacity: 1;" vector-effect="non-scaling-stroke"  transform=" translate(-150.89, -211.89)" d="M 144.725555 182.044891 C 143.789444 181.955444 143.217911 182.062744 142.805939 181.854446 C 141.138199 181.011169 139.519577 180.070755 137.882843 179.166183 C 139.559464 178.41246 141.21106 177.083801 142.917236 177.009613 C 148.73082 176.75676 154.566376 176.858093 160.386871 177.038712 C 161.587524 177.075958 162.759506 178.037552 163.944687 178.57309 C 162.956299 179.640778 161.914337 181.66777 160.988449 181.616058 C 156.019379 181.338593 155.919952 184.189285 155.950882 187.920883 C 156.084793 204.078186 156.134415 220.238922 155.922012 236.394547 C 155.867065 240.572906 157.221298 242.048218 161.341766 241.979675 C 162.817535 241.955109 164.320251 243.549957 165.810669 244.405701 C 164.281799 245.214981 162.776443 246.666077 161.220032 246.723099 C 154.261307 246.978073 147.282288 246.984756 140.3246 246.716919 C 138.84407 246.659927 137.422134 245.080902 135.973206 244.20311 C 137.3004 243.366333 138.541458 242.021118 139.969437 241.779221 C 146.804947 240.621262 146.830338 240.727493 146.832474 233.83728 C 146.83725 218.345184 146.887192 202.852661 146.760483 187.361603 C 146.746094 185.602371 145.720291 183.851379 144.725555 182.044891 z" stroke-linecap="round" />
</g>
		<g transform="matrix(1 0 0 1 152.8 82.96)"  >
<path style="stroke: none; stroke-width: 1; stroke-dasharray: none; stroke-linecap: butt; stroke-dashoffset: 0; stroke-linejoin: miter; stroke-miterlimit: 4; fill: rgb(26,152,255); fill-rule: nonzero; opacity: 1;" vector-effect="non-scaling-stroke"  transform=" translate(-359.3, -226.96)" d="M 337.759766 229.922531 C 337.903656 228.60025 337.769653 227.163284 338.256927 225.982712 C 338.978577 224.234192 340.140991 222.667572 341.115784 221.023499 C 342.339996 222.970657 344.966675 225.306641 344.552734 226.799606 C 342.430298 234.454697 347.771393 237.627365 352.618408 240.426147 C 358.236908 243.670395 364.225311 242.797348 369.421082 238.671997 C 374.626434 234.539047 376.078796 226.374237 372.424622 221.126404 C 371.598419 219.939865 369.852966 219.393387 368.606628 217.994171 C 367.441284 213.571426 366.199951 209.706772 364.958618 205.842117 C 376.658997 208.160599 383.888733 218.615433 381.686737 230.032333 C 379.338348 242.208328 367.110809 250.262375 354.70932 247.555176 C 351.854614 246.931992 349.173645 245.451508 346.460632 244.256805 C 343.403168 242.910416 340.399811 241.441132 336.52063 239.626663 C 336.683502 238.196075 336.972046 235.661774 337.462402 232.482056 C 337.696075 231.198608 337.727905 230.560562 337.759766 229.922531 z" stroke-linecap="round" />
</g>
		<g transform="matrix(1 0 0 1 149.26 50.63)"  >
<path style="stroke: none; stroke-width: 1; stroke-dasharray: none; stroke-linecap: butt; stroke-dashoffset: 0; stroke-linejoin: miter; stroke-miterlimit: 4; fill: rgb(25,151,255); fill-rule: nonzero; opacity: 1;" vector-effect="non-scaling-stroke"  transform=" translate(-355.76, -194.63)" d="M 362.994141 213.8526 C 361.574768 213.543549 360.155365 213.234497 358.075653 212.699158 C 354.997406 211.893723 352.579529 211.31459 350.161621 210.735443 C 349.585144 210.42453 349.015472 210.10022 348.431213 209.804688 C 338.493652 204.77832 334.521423 195.734146 338.355286 186.854782 C 342.13678 178.09671 352.55484 173.968735 362.400024 177.406494 C 364.425537 178.11377 366.343353 179.129471 369.197205 180.396561 C 370.001862 178.917038 370.957611 177.159775 371.91333 175.402512 C 372.419281 175.610184 372.925232 175.817871 373.431183 176.025558 C 373.812225 177.130142 374.494171 178.227234 374.521912 179.340637 C 374.637421 183.979904 374.624695 188.626038 374.491974 193.264877 C 374.463715 194.253021 373.736267 195.221161 373.330933 196.198502 C 372.233673 195.634827 370.807404 195.330933 370.111877 194.450043 C 368.894012 192.907608 368.509583 190.556488 367.089996 189.354095 C 363.770874 186.542801 360.349518 183.427872 356.402832 181.895035 C 352.00412 180.186615 347.743622 182.221863 345.519012 186.61087 C 343.321533 190.946442 343.934174 195.782379 347.880127 198.296066 C 352.655457 201.338058 358.362213 202.917892 363.774231 205.658081 C 363.586426 208.741348 363.290283 211.296967 362.994141 213.8526 z" stroke-linecap="round" />
</g>
		<g transform="matrix(1 0 0 1 30.53 -55.34)"  >
<path style="stroke: none; stroke-width: 1; stroke-dasharray: none; stroke-linecap: butt; stroke-dashoffset: 0; stroke-linejoin: miter; stroke-miterlimit: 4; fill: rgb(25,151,255); fill-rule: nonzero; opacity: 1;" vector-effect="non-scaling-stroke"  transform=" translate(-237.03, -88.66)" d="M 235.030563 66.684837 C 252.039886 70.760132 256.575958 89.59967 243.783081 103.101799 C 242.872345 104.062996 241.886963 104.991203 240.804779 105.746254 C 231.450699 112.27269 234.4375 111.795494 224.203354 107.097778 C 229.02742 103.690659 234.734802 100.586052 239.248764 96.241501 C 245.140778 90.570602 244.837067 81.88015 239.409058 77.132278 C 236.610123 74.684029 233.711609 72.925713 229.59404 75.447937 C 228.054718 76.390862 225.190903 75.246788 222.972031 74.833847 C 222.825851 74.806641 223.030197 72.895897 223.125427 71.484871 C 223.179367 71.108475 223.092621 71.130516 223.385406 70.981255 C 224.970612 69.615204 226.263046 68.398422 227.967316 67.168259 C 230.596283 66.998199 232.813431 66.841515 235.030563 66.684837 z" stroke-linecap="round" />
</g>
		<g transform="matrix(1 0 0 1 55.24 106.04)"  >
<path style="stroke: none; stroke-width: 1; stroke-dasharray: none; stroke-linecap: butt; stroke-dashoffset: 0; stroke-linejoin: miter; stroke-miterlimit: 4; fill: rgb(234,235,235); fill-rule: nonzero; opacity: 1;" vector-effect="non-scaling-stroke"  transform=" translate(-261.74, -250.04)" d="M 267.120758 240.85437 C 268.599731 243.009552 270.078735 245.164719 271.760071 247.569672 C 271.186768 250.082489 275.326965 253.67543 269.964966 254.957214 C 268.917847 252.639709 268.046783 250.386795 266.882263 248.297424 C 266.427917 247.482285 265.313324 247.035126 264.499481 246.420349 C 264.210114 247.386856 263.566223 248.408752 263.706635 249.308167 C 263.98233 251.073669 264.927917 252.742554 265.143219 254.506699 C 265.284607 255.665268 264.632294 256.920715 264.335449 258.132751 C 263.915436 258.07843 263.495453 258.024078 263.075439 257.969757 C 261.413177 254.918976 259.750885 251.868195 258.088623 248.817429 C 257.431519 249.029678 256.774445 249.241943 256.117371 249.454193 C 256.994995 252.691696 257.87265 255.929199 258.751434 259.170868 C 255.023865 259.772461 252.169006 255.492935 250.782257 247.174393 C 250.683975 246.770416 250.716446 246.801865 251.135681 246.846619 C 256.74353 244.879028 261.932129 242.866699 267.120758 240.85437 z" stroke-linecap="round" />
</g>
		<g transform="matrix(1 0 0 1 75.38 -93.43)"  >
<path style="stroke: none; stroke-width: 1; stroke-dasharray: none; stroke-linecap: butt; stroke-dashoffset: 0; stroke-linejoin: miter; stroke-miterlimit: 4; fill: rgb(25,151,255); fill-rule: nonzero; opacity: 1;" vector-effect="non-scaling-stroke"  transform=" translate(-281.88, -50.57)" d="M 270.039673 44.875839 C 277.831879 46.136993 285.624115 47.398151 293.72998 48.710068 C 293.72998 50.741756 293.72998 52.974804 293.72998 56.260185 C 286.594788 55.22031 279.656281 54.209095 272.357117 52.666782 C 271.344208 49.715736 270.691925 47.295788 270.039673 44.875839 z" stroke-linecap="round" />
</g>
		<g transform="matrix(1 0 0 1 47.49 -86.51)"  >
<path style="stroke: none; stroke-width: 1; stroke-dasharray: none; stroke-linecap: butt; stroke-dashoffset: 0; stroke-linejoin: miter; stroke-miterlimit: 4; fill: rgb(28,150,250); fill-rule: nonzero; opacity: 1;" vector-effect="non-scaling-stroke"  transform=" translate(-253.99, -57.49)" d="M 263.072845 55.758698 C 263.889893 58.073242 264.70694 60.387779 266.020752 64.109612 C 257.793365 62.59779 251.26561 61.398285 244.337051 59.656776 C 243.272552 56.33704 239.519165 53.51342 244.407043 50.871063 C 246.498123 51.560566 248.241684 52.191982 250.318359 53.007244 C 254.791946 54.046959 258.932404 54.902828 263.072845 55.758698 z" stroke-linecap="round" />
</g>
		<g transform="matrix(1 0 0 1 -45.1 -57.09)"  >
<path style="stroke: none; stroke-width: 1; stroke-dasharray: none; stroke-linecap: butt; stroke-dashoffset: 0; stroke-linejoin: miter; stroke-miterlimit: 4; fill: rgb(235,235,235); fill-rule: nonzero; opacity: 1;" vector-effect="non-scaling-stroke"  transform=" translate(-161.4, -86.91)" d="M 164.332306 92.490288 C 163.426147 91.791771 162.335938 91.141045 161.202759 91.05481 C 157.136215 90.745354 153.583481 87.084702 154.074768 83.503624 C 154.496933 80.426315 159.887207 76.55558 163.124435 77.126457 C 163.832138 77.251259 164.835938 77.801971 165.032471 78.383339 C 166.44931 82.574394 168.131836 86.760818 168.75412 91.089035 C 168.971375 92.600182 166.762543 95.032837 165.066025 96.075188 C 163.560516 97.000183 161.22966 96.581886 159.263138 96.756538 C 159.180496 96.179909 159.097839 95.603279 159.015198 95.026649 C 160.719635 94.283447 162.424088 93.540245 164.332306 92.490288 M 158.566269 82.15844 C 159.297424 83.993698 160.028595 85.828957 160.75975 87.664215 C 161.465256 86.943703 162.903076 85.882019 162.753082 85.560066 C 161.988113 83.91806 163.098755 80.239647 158.566269 82.15844 z" stroke-linecap="round" />
</g>
		<g transform="matrix(1 0 0 1 20.5 122.07)"  >
<path style="stroke: none; stroke-width: 1; stroke-dasharray: none; stroke-linecap: butt; stroke-dashoffset: 0; stroke-linejoin: miter; stroke-miterlimit: 4; fill: rgb(235,235,235); fill-rule: nonzero; opacity: 1;" vector-effect="non-scaling-stroke"  transform=" translate(-227, -266.07)" d="M 233.685211 267.497742 C 234.953354 271.460022 232.852356 273.683655 230.167145 275.057709 C 228.505768 275.907867 226.260208 275.616333 224.276886 275.837341 C 224.182358 275.303711 224.087814 274.770081 223.993271 274.236481 C 226.04985 273.114166 228.106415 271.991882 230.162994 270.869568 C 230.006821 270.451141 229.850632 270.032715 229.694458 269.614258 C 228.719345 269.709625 227.638199 270.121826 226.790024 269.837921 C 224.675308 269.130157 221.776062 268.633362 220.849838 267.069733 C 219.789383 265.27948 219.528702 261.526215 220.696716 260.24469 C 222.577026 258.181671 225.864609 257.308167 228.690048 256.305176 C 229.089905 256.163239 230.531189 258.004456 230.975754 259.13092 C 231.999863 261.725891 232.707306 264.445831 233.685211 267.497742 M 226.226334 266.738373 C 230.090927 265.513306 227.847321 263.180664 226.997192 261.376465 C 226.719757 260.787689 225.197159 260.785645 224.244049 260.515259 C 224.219299 262.111847 224.086288 263.718597 224.233963 265.299042 C 224.279892 265.79071 225.086151 266.211304 226.226334 266.738373 z" stroke-linecap="round" />
</g>
		<g transform="matrix(1 0 0 1 5.96 -13.77)"  >
<path style="stroke: none; stroke-width: 1; stroke-dasharray: none; stroke-linecap: butt; stroke-dashoffset: 0; stroke-linejoin: miter; stroke-miterlimit: 4; fill: rgb(20,149,255); fill-rule: nonzero; opacity: 1;" vector-effect="non-scaling-stroke"  transform=" translate(-212.46, -130.23)" d="M 208.833939 128.048706 C 208.833908 125.110344 208.833908 122.655144 208.833908 119.695656 C 211.56073 120.299118 213.625595 120.756088 216.158295 121.316589 C 216.158295 126.900597 216.35321 132.374985 215.998306 137.813477 C 215.924942 138.937637 213.633591 140.915527 212.67012 140.747498 C 211.249313 140.499725 209.270859 138.841141 209.010544 137.496704 C 208.450699 134.605438 208.835709 131.531204 208.833939 128.048706 z" stroke-linecap="round" />
</g>
		<g transform="matrix(1 0 0 1 115.08 84.99)"  >
<path style="stroke: none; stroke-width: 1; stroke-dasharray: none; stroke-linecap: butt; stroke-dashoffset: 0; stroke-linejoin: miter; stroke-miterlimit: 4; fill: rgb(236,236,236); fill-rule: nonzero; opacity: 1;" vector-effect="non-scaling-stroke"  transform=" translate(-321.58, -228.99)" d="M 325.087311 235.459488 C 320.838684 236.246918 316.807892 236.963455 315.203979 231.990448 C 313.697632 227.319962 315.558472 223.497604 319.578857 222.290054 C 323.324677 221.164978 325.66803 222.902008 327.628387 228.361603 C 325.318359 229.410141 322.98999 230.467026 320.661591 231.523926 C 320.72644 231.883499 320.79129 232.243073 320.856171 232.602661 C 322.1008 232.46022 323.342682 232.241684 324.590881 232.196335 C 325.884216 232.149368 327.183624 232.270309 328.480377 232.31781 C 327.47287 233.312103 326.465393 234.306381 325.087311 235.459488 z" stroke-linecap="round" />
</g>
		<g transform="matrix(1 0 0 1 82.18 -105.09)"  >
<path style="stroke: none; stroke-width: 1; stroke-dasharray: none; stroke-linecap: butt; stroke-dashoffset: 0; stroke-linejoin: miter; stroke-miterlimit: 4; fill: rgb(235,235,235); fill-rule: nonzero; opacity: 1;" vector-effect="non-scaling-stroke"  transform=" translate(-288.68, -38.91)" d="M 295.162079 43.171768 C 292.778168 44.294548 290.661102 45.774124 288.534546 45.787849 C 286.870636 45.798588 284.694855 44.317406 283.741821 42.851871 C 283.285889 42.15078 284.939209 39.785374 286.011322 38.481342 C 286.786896 37.537956 288.178558 37.101086 289.208069 35.445267 C 287.242432 35.671284 285.276794 35.897301 282.189362 36.252308 C 283.155273 34.734566 283.60376 33.152187 284.39032 32.961048 C 286.611328 32.421337 290.388763 31.499542 291.016327 32.433205 C 293.088379 35.51609 294.041931 39.350754 295.162079 43.171768 z" stroke-linecap="round" />
</g>
		<g transform="matrix(1 0 0 1 3.48 126.03)"  >
<path style="stroke: none; stroke-width: 1; stroke-dasharray: none; stroke-linecap: butt; stroke-dashoffset: 0; stroke-linejoin: miter; stroke-miterlimit: 4; fill: rgb(236,236,236); fill-rule: nonzero; opacity: 1;" vector-effect="non-scaling-stroke"  transform=" translate(-209.98, -270.03)" d="M 209.112411 262.991913 C 214.378082 263.582733 217.516449 267.13446 216.939819 271.382141 C 216.438751 275.073334 212.910767 277.558319 208.986679 276.984009 C 205.315979 276.446808 201.918884 272.000671 203.23465 268.196747 C 203.965073 266.085083 206.809479 264.704651 209.112411 262.991913 M 211.855331 268.051483 C 210.678177 267.532013 209.501022 267.012543 208.323868 266.493042 C 208.112122 267.814453 207.506042 269.237549 207.812225 270.425446 C 208.061539 271.3927 209.40303 272.07843 210.260193 272.889008 C 210.831955 271.542358 211.403717 270.195709 211.855331 268.051483 z" stroke-linecap="round" />
</g>
		<g transform="matrix(1 0 0 1 147.14 73.87)"  >
<path style="stroke: none; stroke-width: 1; stroke-dasharray: none; stroke-linecap: butt; stroke-dashoffset: 0; stroke-linejoin: miter; stroke-miterlimit: 4; fill: rgb(234,235,235); fill-rule: nonzero; opacity: 1;" vector-effect="non-scaling-stroke"  transform=" translate(-353.64, -217.87)" d="M 349.967316 211.021484 C 352.579529 211.31459 354.997406 211.893723 357.708405 212.701721 C 358.366241 214.023788 358.822662 215.096298 359.075409 216.214844 C 359.516388 218.166534 360.628754 221.554047 360.063751 221.873901 C 357.455444 223.350494 354.381012 224.650726 351.44397 224.718048 C 348.499664 224.785538 347.194824 220.505417 349.328888 218.329193 C 350.62793 217.004532 352.49646 216.238358 355.526245 214.327591 C 352.33197 214.656723 350.495972 214.845901 347.068695 215.199051 C 348.261169 213.483047 349.01709 212.395279 349.967316 211.021484 z" stroke-linecap="round" />
</g>
		<g transform="matrix(1 0 0 1 104.9 98.17)"  >
<path style="stroke: none; stroke-width: 1; stroke-dasharray: none; stroke-linecap: butt; stroke-dashoffset: 0; stroke-linejoin: miter; stroke-miterlimit: 4; fill: rgb(25,151,255); fill-rule: nonzero; opacity: 1;" vector-effect="non-scaling-stroke"  transform=" translate(-311.4, -242.17)" d="M 302.009125 241.039261 C 302.669128 239.923813 303.329132 238.80835 304.328247 237.58728 C 306.629608 242.115585 310.102753 240.948654 313.570923 239.800735 C 315.528564 240.503418 317.553162 241.065323 319.422058 241.954498 C 320.848907 242.633362 322.078522 243.726746 323.395874 244.635742 C 321.979065 245.365891 320.57312 246.697159 319.143616 246.7229 C 312.711731 246.838837 306.273163 246.584244 299.410095 246.081131 C 299.991821 244.145752 301.000488 242.592514 302.009125 241.039261 z" stroke-linecap="round" />
</g>
		<g transform="matrix(1 0 0 1 -61.66 -53.14)"  >
<path style="stroke: none; stroke-width: 1; stroke-dasharray: none; stroke-linecap: butt; stroke-dashoffset: 0; stroke-linejoin: miter; stroke-miterlimit: 4; fill: rgb(236,236,236); fill-rule: nonzero; opacity: 1;" vector-effect="non-scaling-stroke"  transform=" translate(-144.84, -90.86)" d="M 151.963379 91.882996 C 151.376434 95.653221 149.334534 98.129921 146.016663 97.788277 C 143.551849 97.53447 140.769943 96.020699 139.020126 94.20813 C 136.566605 91.666626 137.79631 86.96109 140.741516 85.151001 C 144.237183 83.002609 148.511169 83.674461 150.343185 86.861366 C 151.144348 88.254982 151.446777 89.935287 151.963379 91.882996 M 145.997269 94.301231 C 146.310226 92.751877 146.991501 91.155342 146.80127 89.670456 C 146.682709 88.745049 145.247314 87.988335 144.402893 87.155907 C 143.614639 88.052917 141.988602 89.285446 142.189255 89.786423 C 142.899643 91.560265 144.234375 93.084091 145.997269 94.301231 z" stroke-linecap="round" />
</g>
		<g transform="matrix(1 0 0 1 74.86 100.5)"  >
<path style="stroke: none; stroke-width: 1; stroke-dasharray: none; stroke-linecap: butt; stroke-dashoffset: 0; stroke-linejoin: miter; stroke-miterlimit: 4; fill: rgb(234,235,235); fill-rule: nonzero; opacity: 1;" vector-effect="non-scaling-stroke"  transform=" translate(-281.36, -244.5)" d="M 275.09375 247.222824 C 276.674347 243.724838 278.391296 240.555115 280.361633 237.154938 C 285.457275 238.737717 285.746429 239.202911 287.619629 248.192474 C 280.304382 253.24614 278.563568 253.156021 275.09375 247.222824 z" stroke-linecap="round" />
</g>
		<g transform="matrix(1 0 0 1 36.02 113.98)"  >
<path style="stroke: none; stroke-width: 1; stroke-dasharray: none; stroke-linecap: butt; stroke-dashoffset: 0; stroke-linejoin: miter; stroke-miterlimit: 4; fill: rgb(235,235,235); fill-rule: nonzero; opacity: 1;" vector-effect="non-scaling-stroke"  transform=" translate(-242.52, -257.98)" d="M 236.28067 261.24646 C 236.214294 258.729218 235.47464 255.862137 236.571472 254.630478 C 238.177811 252.826736 241.302216 250.977554 243.416855 251.329254 C 247.230377 251.963562 249.964737 255.222534 248.797287 259.341492 C 248.178314 261.52536 245.665146 264.365173 243.680893 264.651947 C 241.455566 264.973511 238.861877 262.746155 236.28067 261.24646 M 245.672592 259.367645 C 244.967194 257.952057 244.482361 256.33194 243.450455 255.219147 C 243.023422 254.758621 240.504318 255.357086 240.49939 255.520859 C 240.443436 257.382935 240.69014 259.25415 240.855911 261.122894 C 242.351593 260.753601 243.84726 260.384308 245.672592 259.367645 z" stroke-linecap="round" />
</g>
		<g transform="matrix(1 0 0 1 -14.04 -72.4)"  >
<path style="stroke: none; stroke-width: 1; stroke-dasharray: none; stroke-linecap: butt; stroke-dashoffset: 0; stroke-linejoin: miter; stroke-miterlimit: 4; fill: rgb(43,150,236); fill-rule: nonzero; opacity: 1;" vector-effect="non-scaling-stroke"  transform=" translate(-192.46, -71.6)" d="M 196.933899 76.255615 C 195.532272 75.592995 194.130661 74.930374 192.044373 74.268394 C 189.993408 74.638588 188.627121 75.008156 187.195557 74.981384 C 186.382812 72.60878 185.635361 70.632507 184.887909 68.656235 C 188.325668 68.036903 191.763412 67.41758 195.910919 66.953415 C 197.816559 69.229195 199.248611 71.268997 200.023773 73.533638 C 200.193741 74.030243 198.025391 75.327217 196.933899 76.255615 z" stroke-linecap="round" />
</g>
		<g transform="matrix(1 0 0 1 -3.96 -73.02)"  >
<path style="stroke: none; stroke-width: 1; stroke-dasharray: none; stroke-linecap: butt; stroke-dashoffset: 0; stroke-linejoin: miter; stroke-miterlimit: 4; fill: rgb(216,232,245); fill-rule: nonzero; opacity: 1;" vector-effect="non-scaling-stroke"  transform=" translate(-202.54, -70.98)" d="M 196.961121 76.602249 C 198.025391 75.327217 200.193741 74.030243 200.023773 73.533638 C 199.248611 71.268997 197.816559 69.229195 196.280807 66.941452 C 199.105621 61.829491 202.367279 61.969837 205.473923 67.208115 C 206.36879 68.716942 207.184814 70.272514 208.361542 71.871544 C 208.753326 73.041611 208.820587 74.146782 208.785278 75.657089 C 205.569901 77.149376 201.438736 74.662697 199.186005 78.768288 C 198.453461 78.161819 197.720901 77.555351 196.961121 76.602249 z" stroke-linecap="round" />
</g>
		<g transform="matrix(1 0 0 1 23.62 -84.62)"  >
<path style="stroke: none; stroke-width: 1; stroke-dasharray: none; stroke-linecap: butt; stroke-dashoffset: 0; stroke-linejoin: miter; stroke-miterlimit: 4; fill: rgb(229,234,237); fill-rule: nonzero; opacity: 1;" vector-effect="non-scaling-stroke"  transform=" translate(-230.12, -59.38)" d="M 235.087585 66.321716 C 232.813431 66.841515 230.596283 66.998199 227.651031 67.018105 C 228.380615 65.512138 229.838303 64.142952 231.231262 62.834568 C 223.716141 60.33823 223.716141 60.33823 224.909988 53.362854 C 227.492401 51.343277 230.090256 50.99963 232.946564 53.575249 C 231.699066 54.989941 230.217377 56.120323 228.632416 57.32951 C 236.235153 59.02943 236.870224 59.894115 235.087585 66.321716 z" stroke-linecap="round" />
</g>
		<g transform="matrix(1 0 0 1 -74.71 -51.53)"  >
<path style="stroke: none; stroke-width: 1; stroke-dasharray: none; stroke-linecap: butt; stroke-dashoffset: 0; stroke-linejoin: miter; stroke-miterlimit: 4; fill: rgb(235,235,235); fill-rule: nonzero; opacity: 1;" vector-effect="non-scaling-stroke"  transform=" translate(-131.79, -92.47)" d="M 126.696869 87.479599 C 126.64547 85.864952 126.737755 84.603317 126.830032 83.341675 C 127.361115 83.222618 127.892189 83.103569 128.423264 82.984512 C 131.174759 88.696381 133.926254 94.408257 136.904984 100.591827 C 135.021194 102.894722 132.047531 102.389847 130.227463 98.116714 C 128.818176 94.808067 127.949524 91.26915 126.696869 87.479599 z" stroke-linecap="round" />
</g>
		<g transform="matrix(1 0 0 1 -9.62 127.51)"  >
<path style="stroke: none; stroke-width: 1; stroke-dasharray: none; stroke-linecap: butt; stroke-dashoffset: 0; stroke-linejoin: miter; stroke-miterlimit: 4; fill: rgb(235,235,235); fill-rule: nonzero; opacity: 1;" vector-effect="non-scaling-stroke"  transform=" translate(-196.88, -271.51)" d="M 199.48941 276.355957 C 200.701035 277.410767 201.703629 278.146271 202.557617 279.026031 C 202.625519 279.095978 201.615875 280.707245 201.191177 280.668945 C 199.81987 280.545288 197.670029 280.36969 197.27562 279.530273 C 194.990967 274.667969 193.063339 269.631622 191.2099 264.582611 C 191.028412 264.088226 192.171707 263.107513 192.700073 262.35257 C 193.452728 262.885101 194.608841 263.258972 194.891037 263.976532 C 196.458755 267.962738 197.81424 272.03244 199.48941 276.355957 z" stroke-linecap="round" />
</g>
		<g transform="matrix(1 0 0 1 13 -79.12)"  >
<path style="stroke: none; stroke-width: 1; stroke-dasharray: none; stroke-linecap: butt; stroke-dashoffset: 0; stroke-linejoin: miter; stroke-miterlimit: 4; fill: rgb(216,232,245); fill-rule: nonzero; opacity: 1;" vector-effect="non-scaling-stroke"  transform=" translate(-219.5, -64.88)" d="M 215.903046 62.996716 C 215.772522 61.391945 215.641998 59.787178 216.173492 58.12392 C 221.835159 61.024918 221.98201 66.308495 223.092621 71.130516 C 223.092621 71.130516 223.179367 71.108475 223.209961 71.141708 C 221.210205 71.462105 219.179886 71.749268 216.656647 71.602203 C 216.076859 68.444229 215.98996 65.720474 215.903046 62.996716 z" stroke-linecap="round" />
</g>
		<g transform="matrix(1 0 0 1 102.28 89.58)"  >
<path style="stroke: none; stroke-width: 1; stroke-dasharray: none; stroke-linecap: butt; stroke-dashoffset: 0; stroke-linejoin: miter; stroke-miterlimit: 4; fill: rgb(37,146,236); fill-rule: nonzero; opacity: 1;" vector-effect="non-scaling-stroke"  transform=" translate(-308.78, -233.58)" d="M 313.520081 239.444672 C 310.102753 240.948654 306.629608 242.115585 304.410492 237.262451 C 304.092346 233.66011 304.031158 230.276993 304.043823 226.437256 C 304.881775 226.2854 305.623047 226.686813 306.414886 226.873703 C 307.828491 227.207367 309.272705 227.411545 310.704102 227.669861 C 309.914917 228.741714 309.036072 229.760849 308.365021 230.902176 C 307.829803 231.812378 306.98526 233.532928 307.246521 233.755173 C 308.736603 235.022675 310.517029 235.948929 312.590179 236.990128 C 313.144104 237.68895 313.306671 238.388779 313.520081 239.444672 z" stroke-linecap="round" />
</g>
		<g transform="matrix(1 0 0 1 88.3 92.51)"  >
<path style="stroke: none; stroke-width: 1; stroke-dasharray: none; stroke-linecap: butt; stroke-dashoffset: 0; stroke-linejoin: miter; stroke-miterlimit: 4; fill: rgb(234,235,235); fill-rule: nonzero; opacity: 1;" vector-effect="non-scaling-stroke"  transform=" translate(-294.8, -236.51)" d="M 296.983276 241.815765 C 295.494629 241.213104 294.045593 240.257095 292.508698 240.084778 C 289.716034 239.771683 288.057739 238.101654 289.377167 235.919998 C 290.630859 233.847031 293.390808 232.677536 295.554565 231.208176 C 295.605316 231.173721 296.951477 232.642838 296.829102 232.822693 C 295.994934 234.048965 294.928925 235.117523 294.159363 235.986649 C 296.321869 237.331207 298.61908 238.759506 300.692383 240.774597 C 299.306732 241.512848 298.14502 241.664322 296.983276 241.815765 z" stroke-linecap="round" />
</g>
		<g transform="matrix(1 0 0 1 127.65 80.78)"  >
<path style="stroke: none; stroke-width: 1; stroke-dasharray: none; stroke-linecap: butt; stroke-dashoffset: 0; stroke-linejoin: miter; stroke-miterlimit: 4; fill: rgb(234,235,235); fill-rule: nonzero; opacity: 1;" vector-effect="non-scaling-stroke"  transform=" translate(-334.15, -224.78)" d="M 337.527222 229.665421 C 337.727905 230.560562 337.696075 231.198608 337.4552 232.082413 C 332.401093 230.434372 331.252289 225.908615 330.222687 221.658829 C 329.348877 218.052109 333.497253 216.252548 338.195709 218.416626 C 332.28363 221.728836 336.229401 225.626312 337.527222 229.665421 z" stroke-linecap="round" />
</g>
		<g transform="matrix(1 0 0 1 50.48 -92.77)"  >
<path style="stroke: none; stroke-width: 1; stroke-dasharray: none; stroke-linecap: butt; stroke-dashoffset: 0; stroke-linejoin: miter; stroke-miterlimit: 4; fill: rgb(229,234,237); fill-rule: nonzero; opacity: 1;" vector-effect="non-scaling-stroke"  transform=" translate(-256.98, -51.23)" d="M 263.206787 55.486061 C 258.932404 54.902828 254.791946 54.046959 250.322205 52.613213 C 250.344559 50.345348 250.696213 48.655365 251.422699 46.972549 C 254.537857 48.001598 257.278168 49.023483 260.018494 50.045372 C 258.580414 50.951031 257.142334 51.856689 255.704254 52.762352 C 255.759018 53.077927 255.813782 53.393505 255.868546 53.70908 C 257.582214 53.43882 259.326752 53.290989 261.001953 52.868324 C 263.262054 52.298084 264.27301 52.720497 263.206787 55.486061 z" stroke-linecap="round" />
</g>
		<g transform="matrix(1 0 0 1 -27.49 -64.92)"  >
<path style="stroke: none; stroke-width: 1; stroke-dasharray: none; stroke-linecap: butt; stroke-dashoffset: 0; stroke-linejoin: miter; stroke-miterlimit: 4; fill: rgb(51,153,236); fill-rule: nonzero; opacity: 1;" vector-effect="non-scaling-stroke"  transform=" translate(-179.01, -79.08)" d="M 181.442963 85.708641 C 179.153961 86.042892 177.042892 86.021187 174.524994 86.010323 C 174.056061 85.859833 173.993927 85.698486 173.934845 84.962906 C 174.157532 83.540771 174.377151 82.692871 174.964523 81.990356 C 176.816238 81.832497 178.300201 81.529259 179.784164 81.226028 C 178.849457 79.477348 177.914749 77.728668 177.055405 75.667175 C 177.845703 74.28727 178.560654 73.220169 179.275589 72.153061 C 179.275589 72.153061 179.652405 72.101967 179.990768 72.386261 C 181.581024 74.5186 182.832916 76.366646 184.084824 78.214684 C 183.263519 80.594017 182.4422 82.973351 181.442963 85.708641 z" stroke-linecap="round" />
</g>
		<g transform="matrix(1 0 0 1 -31.86 -65.66)"  >
<path style="stroke: none; stroke-width: 1; stroke-dasharray: none; stroke-linecap: butt; stroke-dashoffset: 0; stroke-linejoin: miter; stroke-miterlimit: 4; fill: rgb(236,236,236); fill-rule: nonzero; opacity: 1;" vector-effect="non-scaling-stroke"  transform=" translate(-174.64, -78.34)" d="M 178.856079 72.108994 C 178.560654 73.220169 177.845703 74.28727 176.791428 75.90184 C 175.833649 78.247871 175.21521 80.046425 174.596771 81.844978 C 174.377151 82.692871 174.157532 83.540771 173.858856 84.714935 C 172.570663 82.379944 170.04126 79.481232 170.467026 77.114006 C 171.079727 73.707214 174.245438 71.356689 178.856079 72.108994 z" stroke-linecap="round" />
</g>
		<g transform="matrix(1 0 0 1 33.68 -90.64)"  >
<path style="stroke: none; stroke-width: 1; stroke-dasharray: none; stroke-linecap: butt; stroke-dashoffset: 0; stroke-linejoin: miter; stroke-miterlimit: 4; fill: rgb(51,153,236); fill-rule: nonzero; opacity: 1;" vector-effect="non-scaling-stroke"  transform=" translate(-240.18, -53.36)" d="M 244.05954 50.812973 C 239.519165 53.51342 243.272552 56.33704 243.986145 59.463402 C 241.711197 58.468948 239.386368 57.125874 237.065216 55.3871 C 236.88443 54.799232 236.699966 54.607067 236.515503 54.414902 C 236.515503 54.414906 236.486542 54.38739 236.46814 54.380325 C 236.319229 52.123711 236.188705 49.874165 236.441925 47.256973 C 239.236969 48.197208 241.648254 49.505089 244.05954 50.812973 z" stroke-linecap="round" />
</g>
		<g transform="matrix(1 0 0 1 93.95 -110.38)"  >
<path style="stroke: none; stroke-width: 1; stroke-dasharray: none; stroke-linecap: butt; stroke-dashoffset: 0; stroke-linejoin: miter; stroke-miterlimit: 4; fill: rgb(236,236,236); fill-rule: nonzero; opacity: 1;" vector-effect="non-scaling-stroke"  transform=" translate(-300.45, -33.62)" d="M 303.659241 37.402565 C 304.057007 39.868576 303.045441 42.379372 301.291748 40.170555 C 299.011902 37.298985 298.287231 33.127312 297.193817 29.426384 C 296.929901 28.533054 297.847168 27.290724 298.221222 26.208879 C 298.869843 26.623575 299.518463 27.038273 300.167053 27.452969 C 301.283203 30.648468 302.399323 33.843967 303.659241 37.402565 z" stroke-linecap="round" />
</g>
		<g transform="matrix(1 0 0 1 49.72 -97.6)"  >
<path style="stroke: none; stroke-width: 1; stroke-dasharray: none; stroke-linecap: butt; stroke-dashoffset: 0; stroke-linejoin: miter; stroke-miterlimit: 4; fill: rgb(43,150,236); fill-rule: nonzero; opacity: 1;" vector-effect="non-scaling-stroke"  transform=" translate(-256.22, -46.4)" d="M 260.341064 50.012058 C 257.278168 49.023483 254.537857 48.001598 251.365723 46.803028 C 250.933929 46.626343 250.893311 46.270771 250.893311 46.270771 C 252.369064 42.916615 255.426895 41.98074 258.099396 43.474545 C 259.913239 44.488411 260.608276 47.503914 261.555695 49.763821 C 261.093048 49.928501 260.878326 49.953625 260.341064 50.012058 z" stroke-linecap="round" />
</g>
		<g transform="matrix(1 0 0 1 159.37 67.63)"  >
<path style="stroke: none; stroke-width: 1; stroke-dasharray: none; stroke-linecap: butt; stroke-dashoffset: 0; stroke-linejoin: miter; stroke-miterlimit: 4; fill: rgb(43,150,236); fill-rule: nonzero; opacity: 1;" vector-effect="non-scaling-stroke"  transform=" translate(-365.87, -211.63)" d="M 363.277283 214.039795 C 363.290283 211.296967 363.586426 208.741348 364.085083 205.843292 C 364.287628 205.50087 364.6763 205.56749 364.817444 205.704803 C 366.199951 209.706772 367.441284 213.571426 368.462738 217.674011 C 366.682068 216.683624 365.121246 215.455307 363.277283 214.039795 z" stroke-linecap="round" />
</g>
		<g transform="matrix(1 0 0 1 6.94 -76.04)"  >
<path style="stroke: none; stroke-width: 1; stroke-dasharray: none; stroke-linecap: butt; stroke-dashoffset: 0; stroke-linejoin: miter; stroke-miterlimit: 4; fill: rgb(37,146,236); fill-rule: nonzero; opacity: 1;" vector-effect="non-scaling-stroke"  transform=" translate(-213.44, -67.96)" d="M 215.602844 63.145077 C 215.98996 65.720474 216.076859 68.444229 216.270325 71.611122 C 216.312119 72.215202 216.247345 72.37616 216.070175 72.771904 C 214.167969 71.730339 212.378128 70.453995 210.588303 69.177658 C 212.159744 67.216255 213.731186 65.254845 215.602844 63.145077 z" stroke-linecap="round" />
</g>
		<g transform="matrix(1 0 0 1 -22.83 -70.59)"  >
<path style="stroke: none; stroke-width: 1; stroke-dasharray: none; stroke-linecap: butt; stroke-dashoffset: 0; stroke-linejoin: miter; stroke-miterlimit: 4; fill: rgb(20,149,255); fill-rule: nonzero; opacity: 1;" vector-effect="non-scaling-stroke"  transform=" translate(-183.67, -73.41)" d="M 184.366806 78.073669 C 182.832916 76.366646 181.581024 74.5186 180.180725 72.378265 C 181.432663 71.008499 182.832993 69.931023 184.560608 68.754898 C 185.635361 70.632507 186.382812 72.60878 187.148102 75.14653 C 187.165924 75.708015 187.113068 76.047188 187.113068 76.047188 C 186.291641 76.675682 185.470215 77.304169 184.366806 78.073669 z" stroke-linecap="round" />
</g>
		<g transform="matrix(1 0 0 1 62.4 -103.01)"  >
<path style="stroke: none; stroke-width: 1; stroke-dasharray: none; stroke-linecap: butt; stroke-dashoffset: 0; stroke-linejoin: miter; stroke-miterlimit: 4; fill: rgb(234,235,235); fill-rule: nonzero; opacity: 1;" vector-effect="non-scaling-stroke"  transform=" translate(-268.9, -40.99)" d="M 266.020172 43.856552 C 265.443848 43.576633 264.867554 43.296715 264.096405 42.876415 C 265.203186 37.764576 269.07312 38.652901 273.707397 37.998531 C 271.953217 40.538769 270.954163 41.985516 269.534302 43.81171 C 268.082397 44.07962 267.05127 43.96809 266.020172 43.856552 z" stroke-linecap="round" />
</g>
		<g transform="matrix(1 0 0 1 62.51 -95.63)"  >
<path style="stroke: none; stroke-width: 1; stroke-dasharray: none; stroke-linecap: butt; stroke-dashoffset: 0; stroke-linejoin: miter; stroke-miterlimit: 4; fill: rgb(43,150,236); fill-rule: nonzero; opacity: 1;" vector-effect="non-scaling-stroke"  transform=" translate(-269.01, -48.37)" d="M 266.019043 44.240013 C 267.05127 43.96809 268.082397 44.07962 269.50296 44.202591 C 269.892426 44.214024 269.975067 44.542892 270.007385 44.709366 C 270.691925 47.295788 271.344208 49.715736 271.997559 52.522442 C 271.143646 52.797764 270.288666 52.686333 269.202942 52.343048 C 267.987427 49.615288 267.002655 47.119377 266.019043 44.240013 z" stroke-linecap="round" />
</g>
		<g transform="matrix(1 0 0 1 90.99 99.52)"  >
<path style="stroke: none; stroke-width: 1; stroke-dasharray: none; stroke-linecap: butt; stroke-dashoffset: 0; stroke-linejoin: miter; stroke-miterlimit: 4; fill: rgb(51,153,236); fill-rule: nonzero; opacity: 1;" vector-effect="non-scaling-stroke"  transform=" translate(-297.49, -243.52)" d="M 296.612671 241.892166 C 298.14502 241.664322 299.306732 241.512848 300.741669 241.129547 C 301.181671 240.913681 301.34848 240.929672 301.762207 240.992462 C 301.000488 242.592514 299.991821 244.145752 298.934357 246.080444 C 296.997467 246.14595 295.109436 245.830032 293.221375 245.514099 C 294.228241 244.33223 295.235138 243.150391 296.612671 241.892166 z" stroke-linecap="round" />
</g>
		<g transform="matrix(1 0 0 1 -16.51 -66.07)"  >
<path style="stroke: none; stroke-width: 1; stroke-dasharray: none; stroke-linecap: butt; stroke-dashoffset: 0; stroke-linejoin: miter; stroke-miterlimit: 4; fill: rgb(229,234,237); fill-rule: nonzero; opacity: 1;" vector-effect="non-scaling-stroke"  transform=" translate(-189.99, -77.93)" d="M 187.416199 76.219986 C 187.113068 76.047188 187.165924 75.708015 187.213379 75.54287 C 188.627121 75.008156 189.993408 74.638588 191.707901 74.338531 C 192.324158 75.170921 192.893097 75.973206 192.799408 76.688713 C 192.585632 78.321045 192.047211 79.910873 191.640717 81.517975 C 190.741089 80.48877 189.803757 79.489395 188.956314 78.418869 C 188.468811 77.803017 188.126816 77.071968 187.416199 76.219986 z" stroke-linecap="round" />
</g>
		<g transform="matrix(1 0 0 1 106.6 92.54)"  >
<path style="stroke: none; stroke-width: 1; stroke-dasharray: none; stroke-linecap: butt; stroke-dashoffset: 0; stroke-linejoin: miter; stroke-miterlimit: 4; fill: rgb(25,151,255); fill-rule: nonzero; opacity: 1;" vector-effect="non-scaling-stroke"  transform=" translate(-313.1, -236.54)" d="M 313.086975 236.798294 C 312.979736 236.866135 312.982208 236.472504 312.98114 236.276184 C 313.224121 236.234467 313.295502 236.451324 313.086975 236.798294 z" stroke-linecap="round" />
</g>
		<g transform="matrix(1 0 0 1 2.14 -82.58)"  >
<path style="stroke: none; stroke-width: 1; stroke-dasharray: none; stroke-linecap: butt; stroke-dashoffset: 0; stroke-linejoin: miter; stroke-miterlimit: 4; fill: rgb(216,232,245); fill-rule: nonzero; opacity: 1;" vector-effect="non-scaling-stroke"  transform=" translate(-208.64, -61.42)" d="M 208.538513 61.089645 C 208.728516 61.161346 208.779984 61.330772 208.756104 61.754921 C 208.587158 61.73555 208.493561 61.46146 208.538513 61.089645 z" stroke-linecap="round" />
</g>
		<g transform="matrix(1 0 0 1 30.14 -89.11)"  >
<path style="stroke: none; stroke-width: 1; stroke-dasharray: none; stroke-linecap: butt; stroke-dashoffset: 0; stroke-linejoin: miter; stroke-miterlimit: 4; fill: rgb(16,147,255); fill-rule: nonzero; opacity: 1;" vector-effect="non-scaling-stroke"  transform=" translate(-236.64, -54.89)" d="M 236.441147 54.635166 C 236.699966 54.607067 236.88443 54.799232 236.845428 55.117744 C 236.621979 55.244087 236.366791 54.855431 236.441147 54.635166 z" stroke-linecap="round" />
</g>
		<g transform="matrix(1 0 0 1 29.95 -110.67)"  >
<path style="stroke: none; stroke-width: 1; stroke-dasharray: none; stroke-linecap: butt; stroke-dashoffset: 0; stroke-linejoin: miter; stroke-miterlimit: 4; fill: rgb(23,150,255); fill-rule: nonzero; opacity: 1;" vector-effect="non-scaling-stroke"  transform=" translate(-236.44, -33.33)" d="M 236.714355 32.804779 C 236.829208 33.087067 236.628677 33.406113 236.170181 33.849899 C 236.074478 33.596939 236.23671 33.219234 236.714355 32.804779 z" stroke-linecap="round" />
</g>
		<g transform="matrix(1 0 0 1 47.76 78.33)"  >
<path style="stroke: none; stroke-width: 1; stroke-dasharray: none; stroke-linecap: butt; stroke-dashoffset: 0; stroke-linejoin: miter; stroke-miterlimit: 4; fill: rgb(254,255,255); fill-rule: nonzero; opacity: 1;" vector-effect="non-scaling-stroke"  transform=" translate(-254.26, -222.33)" d="M 267.058167 240.505722 C 261.932129 242.866699 256.74353 244.879028 251.15329 246.860535 C 251.644974 243.876236 251.096008 241.76506 247.498413 241.858414 C 242.725479 241.982254 241.385468 239.628998 241.473969 235.102798 C 241.712646 222.897507 241.555618 210.684464 241.555618 198.474503 C 242.191391 198.251938 242.827164 198.029358 243.462936 197.806793 C 251.307144 211.923569 259.151367 226.040329 267.058167 240.505722 z" stroke-linecap="round" />
</g>
		<g transform="matrix(1 0 0 1 17.36 -81.77)"  >
<path style="stroke: none; stroke-width: 1; stroke-dasharray: none; stroke-linecap: butt; stroke-dashoffset: 0; stroke-linejoin: miter; stroke-miterlimit: 4; fill: rgb(254,255,255); fill-rule: nonzero; opacity: 1;" vector-effect="non-scaling-stroke"  transform=" translate(-223.86, -62.23)" d="M 223.385406 70.981255 C 221.98201 66.308495 221.835159 61.024918 216.492386 58.043102 C 217.064896 56.994354 217.79834 55.60994 218.940506 55.028622 C 220.504898 54.232399 222.379654 54.046032 224.515686 53.480568 C 223.716141 60.33823 223.716141 60.33823 231.231262 62.834568 C 229.838303 64.142952 228.380615 65.512138 227.239197 67.031479 C 226.263046 68.398422 224.970612 69.615204 223.385406 70.981255 z" stroke-linecap="round" />
</g>
		<g transform="matrix(1 0 0 1 37.23 -96.53)"  >
<path style="stroke: none; stroke-width: 1; stroke-dasharray: none; stroke-linecap: butt; stroke-dashoffset: 0; stroke-linejoin: miter; stroke-miterlimit: 4; fill: rgb(238,245,251); fill-rule: nonzero; opacity: 1;" vector-effect="non-scaling-stroke"  transform=" translate(-243.73, -47.47)" d="M 250.521149 46.22588 C 250.893311 46.270771 250.933929 46.626343 250.990906 46.795864 C 250.696213 48.655365 250.344559 50.345348 249.989075 52.429367 C 248.241684 52.191982 246.498123 51.560566 244.407043 50.871059 C 241.648254 49.505089 239.236969 48.197208 236.478989 46.822639 C 237.522385 42.850605 239.732925 41.259911 243.813034 43.618538 C 245.766113 44.747574 248.027344 45.343571 250.521149 46.22588 z" stroke-linecap="round" />
</g>
		<g transform="matrix(1 0 0 1 -124.26 54.73)"  >
<path style="stroke: none; stroke-width: 1; stroke-dasharray: none; stroke-linecap: butt; stroke-dashoffset: 0; stroke-linejoin: miter; stroke-miterlimit: 4; fill: rgb(249,252,255); fill-rule: nonzero; opacity: 1;" vector-effect="non-scaling-stroke"  transform=" translate(-82.24, -198.73)" d="M 74.379181 202.397202 C 77.134872 197.309464 79.690063 192.538391 82.245255 187.767319 C 82.785797 187.71167 83.326347 187.656036 83.866898 187.600403 C 87.04261 194.817032 90.218323 202.033661 93.658447 209.851135 C 85.656212 209.851135 78.592201 209.851135 70.81736 209.851135 C 72.012383 207.313675 73.095535 205.013763 74.379181 202.397202 z" stroke-linecap="round" />
</g>
		<g transform="matrix(1 0 0 1 -45.7 -59.43)"  >
<path style="stroke: none; stroke-width: 1; stroke-dasharray: none; stroke-linecap: butt; stroke-dashoffset: 0; stroke-linejoin: miter; stroke-miterlimit: 4; fill: rgb(254,255,255); fill-rule: nonzero; opacity: 1;" vector-effect="non-scaling-stroke"  transform=" translate(-160.8, -84.57)" d="M 158.829559 81.889275 C 163.098755 80.239647 161.988113 83.91806 162.753082 85.560066 C 162.903076 85.882019 161.465256 86.943703 160.75975 87.664215 C 160.028595 85.828957 159.297424 83.993698 158.829559 81.889275 z" stroke-linecap="round" />
</g>
		<g transform="matrix(1 0 0 1 19.76 119.61)"  >
<path style="stroke: none; stroke-width: 1; stroke-dasharray: none; stroke-linecap: butt; stroke-dashoffset: 0; stroke-linejoin: miter; stroke-miterlimit: 4; fill: rgb(254,255,255); fill-rule: nonzero; opacity: 1;" vector-effect="non-scaling-stroke"  transform=" translate(-226.26, -263.61)" d="M 225.88533 266.701416 C 225.086151 266.211304 224.279892 265.79071 224.233963 265.299042 C 224.086288 263.718597 224.219299 262.111847 224.244049 260.515259 C 225.197159 260.785645 226.719757 260.787689 226.997192 261.376465 C 227.847321 263.180664 230.090927 265.513306 225.88533 266.701416 z" stroke-linecap="round" />
</g>
		<g transform="matrix(1 0 0 1 3.32 125.69)"  >
<path style="stroke: none; stroke-width: 1; stroke-dasharray: none; stroke-linecap: butt; stroke-dashoffset: 0; stroke-linejoin: miter; stroke-miterlimit: 4; fill: rgb(254,255,255); fill-rule: nonzero; opacity: 1;" vector-effect="non-scaling-stroke"  transform=" translate(-209.82, -269.69)" d="M 211.915405 268.450256 C 211.403717 270.195709 210.831955 271.542358 210.260193 272.889008 C 209.40303 272.07843 208.061539 271.3927 207.812225 270.425446 C 207.506042 269.237549 208.112122 267.814453 208.323868 266.493042 C 209.501022 267.012543 210.678177 267.532013 211.915405 268.450256 z" stroke-linecap="round" />
</g>
		<g transform="matrix(1 0 0 1 -62 -53.17)"  >
<path style="stroke: none; stroke-width: 1; stroke-dasharray: none; stroke-linecap: butt; stroke-dashoffset: 0; stroke-linejoin: miter; stroke-miterlimit: 4; fill: rgb(254,255,255); fill-rule: nonzero; opacity: 1;" vector-effect="non-scaling-stroke"  transform=" translate(-144.5, -90.83)" d="M 145.664871 94.501953 C 144.234375 93.084091 142.899643 91.560265 142.189255 89.786423 C 141.988602 89.285446 143.614639 88.052917 144.402893 87.155914 C 145.247314 87.988335 146.682709 88.745049 146.80127 89.670456 C 146.991501 91.155342 146.310226 92.751877 145.664871 94.501953 z" stroke-linecap="round" />
</g>
		<g transform="matrix(1 0 0 1 36.5 114.09)"  >
<path style="stroke: none; stroke-width: 1; stroke-dasharray: none; stroke-linecap: butt; stroke-dashoffset: 0; stroke-linejoin: miter; stroke-miterlimit: 4; fill: rgb(254,255,255); fill-rule: nonzero; opacity: 1;" vector-effect="non-scaling-stroke"  transform=" translate(-243, -258.09)" d="M 245.507767 259.691345 C 243.84726 260.384308 242.351593 260.753601 240.855911 261.122894 C 240.69014 259.25415 240.443436 257.382935 240.49939 255.520859 C 240.504318 255.357086 243.023422 254.758621 243.450455 255.219147 C 244.482361 256.33194 244.967194 257.952057 245.507767 259.691345 z" stroke-linecap="round" />
</g>
		<g transform="matrix(1 0 0 1 -29.13 -64.9)"  >
<path style="stroke: none; stroke-width: 1; stroke-dasharray: none; stroke-linecap: butt; stroke-dashoffset: 0; stroke-linejoin: miter; stroke-miterlimit: 4; fill: rgb(23,151,255); fill-rule: nonzero; opacity: 1;" vector-effect="non-scaling-stroke"  transform=" translate(-177.37, -79.1)" d="M 174.964539 81.990356 C 175.21521 80.046425 175.833649 78.247871 176.716064 76.214653 C 177.914749 77.728668 178.849457 79.477348 179.784164 81.226028 C 178.300201 81.529259 176.816238 81.832497 174.964539 81.990356 z" stroke-linecap="round" />
</g>
</g>
</g>
</svg>