<svg version="1.1" id="Layer_1" xmlns="http://www.w3.org/2000/svg" xmlns:xlink="http://www.w3.org/1999/xlink" x="0px" y="0px"
	 width="100%" viewBox="0 0 167 57" enable-background="new 0 0 167 57" xml:space="preserve">
<path fill="#FCFDFC" opacity="1.000000" stroke="none" 
	d="
M3.000000,58.000000 
	C-0.085014,58.612232 1.037515,56.269524 1.033994,54.999905 
	C0.984074,37.000046 1.000000,19.000000 1.000000,1.000000 
	C56.666668,1.000000 112.333336,1.000000 168.000000,1.000000 
	C168.000000,18.833334 168.018753,36.666733 167.957092,54.499851 
	C167.953033,55.667660 167.333344,56.833336 166.504333,57.755356 
	C166.008682,57.510712 166.010590,57.021351 166.085129,56.599491 
	C164.413300,55.518215 162.668167,54.286392 160.920395,54.282646 
	C110.016167,54.173412 59.111668,54.186474 8.207212,54.182114 
	C7.043109,54.182014 5.694507,53.849560 4.769709,54.326717 
	C3.938460,54.755611 3.572542,56.086372 3.000440,57.264488 
	C2.999517,57.509659 3.000000,58.000000 3.000000,58.000000 
M63.151237,46.170681 
	C62.814388,44.082947 62.477535,41.995213 62.297977,40.882351 
	C62.547455,37.755657 62.737381,35.375298 63.015179,32.420715 
	C62.681629,32.326973 62.348080,32.233234 61.166061,31.945118 
	C56.773655,32.023178 52.381248,32.101242 47.468018,32.074493 
	C47.385590,32.376541 47.303162,32.678585 47.013397,33.892578 
	C47.082676,38.266525 47.151951,42.640476 47.102486,47.532303 
	C47.396748,47.628609 47.691010,47.724911 48.891029,48.055122 
	C53.263290,47.992584 57.635551,47.930046 62.583561,47.979328 
	C62.699986,47.654758 62.816406,47.330193 63.151237,46.170681 
M83.194283,6.946474 
	C97.656708,20.940264 112.109612,34.943932 126.599655,48.909065 
	C127.758369,50.025806 129.147156,51.676300 130.473663,51.719879 
	C138.491623,51.983250 146.522568,51.850937 155.661011,51.850937 
	C144.979248,42.339928 135.191360,33.624836 125.339722,23.985785 
	C125.339722,17.053665 125.339722,10.121545 125.339722,3.130663 
	C122.226044,3.130663 119.983955,3.130663 117.681252,3.130663 
	C117.681252,13.038650 117.681252,22.649410 117.096008,31.929842 
	C111.695496,28.517691 110.072296,23.586412 110.888397,17.425257 
	C111.093857,15.874154 110.550720,13.034479 109.654572,12.709583 
	C99.952110,9.191983 90.110443,6.058367 79.502525,2.554262 
	C80.925797,4.638110 81.734039,5.821477 81.628067,7.195449 
	C78.197571,5.277776 76.724297,8.350103 75.147697,10.108301 
	C71.795479,13.846633 68.319252,15.254297 63.373306,13.213079 
	C60.222359,11.912664 56.676060,11.570216 52.635242,10.644292 
	C53.306377,11.872754 53.500340,12.515617 53.915165,12.945208 
	C65.940010,25.398062 77.969276,37.846859 90.068436,50.227303 
	C90.911713,51.090191 92.286003,51.885342 93.437149,51.919914 
	C99.162895,52.091892 104.896614,51.998428 112.004318,51.998428 
	C99.464226,38.809723 87.907600,26.655354 76.215317,14.358302 
	C77.694748,12.645453 80.125786,9.830853 83.194283,6.946474 
M39.852951,27.352367 
	C31.877621,35.352074 23.902292,43.351776 15.926961,51.351479 
	C18.003672,51.816162 19.871227,51.730427 20.865353,50.754749 
	C31.404900,40.410778 41.828964,29.948292 52.180637,19.416040 
	C52.743942,18.842905 52.382828,17.361197 52.452023,16.302422 
	C51.951054,16.100945 51.450089,15.899467 50.949120,15.697989 
	C47.418247,19.417238 43.887379,23.136486 39.852951,27.352367 
z"/>
<path fill="#CCE6E7" opacity="1.000000" stroke="none" 
	d="
M3.468657,58.000000 
	C3.000000,58.000000 2.999517,57.509659 3.468345,57.283524 
	C33.296017,57.111050 62.654858,57.164711 92.010185,57.413773 
	C92.006668,57.609180 92.000000,58.000000 92.000000,58.000000 
	C62.645771,58.000000 33.291542,58.000000 3.468657,58.000000 
z"/>
<path fill="#D0ECF5" opacity="1.000000" stroke="none" 
	d="
M92.468658,58.000000 
	C92.000000,58.000000 92.006668,57.609180 92.474541,57.355312 
	C117.298470,57.074745 141.654526,57.048050 166.010590,57.021351 
	C166.010590,57.021351 166.008682,57.510712 166.004333,57.755356 
	C141.645767,58.000000 117.291542,58.000000 92.468658,58.000000 
z"/>
<path fill="#080808" opacity="1.000000" stroke="none" 
	d="
M82.542274,7.004843 
	C81.734039,5.821477 80.925797,4.638110 79.502525,2.554262 
	C90.110443,6.058367 99.952110,9.191983 109.654572,12.709583 
	C110.550720,13.034479 111.093857,15.874154 110.888397,17.425257 
	C110.072296,23.586412 111.695496,28.517691 117.513641,32.477253 
	C120.233047,33.300739 122.534821,33.576817 125.403481,33.920887 
	C125.403481,30.415478 125.403481,27.662609 125.403481,24.909739 
	C135.191360,33.624836 144.979248,42.339928 155.661011,51.850937 
	C146.522568,51.850937 138.491623,51.983250 130.473663,51.719879 
	C129.147156,51.676300 127.758369,50.025806 126.599655,48.909065 
	C112.109612,34.943932 97.656708,20.940264 82.827347,7.018639 
	C82.460403,7.090804 82.542274,7.004843 82.542274,7.004843 
z"/>
<path fill="#28A9D4" opacity="1.000000" stroke="none" 
	d="
M82.508614,7.053528 
	C80.125786,9.830853 77.694748,12.645453 76.215317,14.358302 
	C87.907600,26.655354 99.464226,38.809723 112.004318,51.998428 
	C104.896614,51.998428 99.162895,52.091892 93.437149,51.919914 
	C92.286003,51.885342 90.911713,51.090191 90.068436,50.227303 
	C77.969276,37.846859 65.940010,25.398062 53.915165,12.945208 
	C53.500340,12.515617 53.306377,11.872754 52.635242,10.644292 
	C56.676060,11.570216 60.222359,11.912664 63.373306,13.213079 
	C68.319252,15.254297 71.795479,13.846633 75.147697,10.108301 
	C76.724297,8.350103 78.197571,5.277776 82.085175,7.100146 
	C82.542274,7.004843 82.460403,7.090804 82.508614,7.053528 
z"/>
<path fill="#37AFD7" opacity="1.000000" stroke="none" 
	d="
M166.085129,56.599491 
	C141.654526,57.048050 117.298470,57.074745 92.478058,57.159904 
	C62.654858,57.164711 33.296017,57.111050 3.469267,57.038353 
	C3.572542,56.086372 3.938460,54.755611 4.769709,54.326717 
	C5.694507,53.849560 7.043109,54.182014 8.207212,54.182114 
	C59.111668,54.186474 110.016167,54.173412 160.920395,54.282646 
	C162.668167,54.286392 164.413300,55.518215 166.085129,56.599491 
z"/>
<path fill="#020202" opacity="1.000000" stroke="none" 
	d="
M62.927307,32.994934 
	C62.737381,35.375298 62.547455,37.755657 62.297977,40.882351 
	C62.477535,41.995213 62.814388,44.082947 62.844955,46.680786 
	C62.290386,47.360455 62.113430,47.585991 62.007812,47.867508 
	C57.635551,47.930046 53.263290,47.992584 48.354549,47.766285 
	C47.666710,47.261768 47.467762,47.107426 47.221230,47.014423 
	C47.151951,42.640476 47.082676,38.266525 47.284916,33.345467 
	C47.763367,32.635872 47.907505,32.429520 47.988842,32.179302 
	C52.381248,32.101242 56.773655,32.023178 61.695190,32.230286 
	C62.409744,32.746975 62.644073,32.906799 62.927307,32.994934 
z"/>
<path fill="#27A7D3" opacity="1.000000" stroke="none" 
	d="
M125.371597,24.447762 
	C125.403481,27.662609 125.403481,30.415478 125.403481,33.920887 
	C122.534821,33.576817 120.233047,33.300739 117.806259,32.642418 
	C117.681252,22.649410 117.681252,13.038650 117.681252,3.130663 
	C119.983955,3.130663 122.226044,3.130663 125.339722,3.130663 
	C125.339722,10.121545 125.339722,17.053665 125.371597,24.447762 
z"/>
<path fill="#27A7D1" opacity="1.000000" stroke="none" 
	d="
M40.104729,27.104050 
	C43.887379,23.136486 47.418247,19.417238 50.949120,15.697989 
	C51.450089,15.899467 51.951054,16.100945 52.452023,16.302422 
	C52.382828,17.361197 52.743942,18.842905 52.180637,19.416040 
	C41.828964,29.948292 31.404900,40.410778 20.865353,50.754749 
	C19.871227,51.730427 18.003672,51.816162 15.926961,51.351479 
	C23.902292,43.351776 31.877621,35.352074 40.104729,27.104050 
z"/>
<path fill="#050505" opacity="1.000000" stroke="none" 
	d="
M47.728432,32.126900 
	C47.907505,32.429520 47.763367,32.635872 47.388588,32.889496 
	C47.303162,32.678585 47.385590,32.376541 47.728432,32.126900 
z"/>
<path fill="#020202" opacity="1.000000" stroke="none" 
	d="
M62.971245,32.707825 
	C62.644073,32.906799 62.409744,32.746975 62.119423,32.327477 
	C62.348080,32.233234 62.681629,32.326973 62.971245,32.707825 
z"/>
<path fill="#050505" opacity="1.000000" stroke="none" 
	d="
M47.161858,47.273361 
	C47.467762,47.107426 47.666710,47.261768 47.901672,47.649330 
	C47.691010,47.724911 47.396748,47.628609 47.161858,47.273361 
z"/>
<path fill="#050505" opacity="1.000000" stroke="none" 
	d="
M62.295685,47.923416 
	C62.113430,47.585991 62.290386,47.360455 62.735752,47.098259 
	C62.816406,47.330193 62.699986,47.654758 62.295685,47.923416 
z"/>
</svg>