<?xml version="1.0" encoding="UTF-8" standalone="no" ?>
<!DOCTYPE svg PUBLIC "-//W3C//DTD SVG 1.1//EN" "http://www.w3.org/Graphics/SVG/1.1/DTD/svg11.dtd">
<svg xmlns="http://www.w3.org/2000/svg" xmlns:xlink="http://www.w3.org/1999/xlink" version="1.1" width="1080" height="1080" viewBox="0 0 1080 1080" xml:space="preserve">
<desc>Created with Fabric.js 5.2.4</desc>
<defs>
</defs>
<g transform="matrix(1 0 0 1 540 540)" id="8d71265c-1f70-4462-9fad-4a037c065d28"  >
<rect style="stroke: none; stroke-width: 1; stroke-dasharray: none; stroke-linecap: butt; stroke-dashoffset: 0; stroke-linejoin: miter; stroke-miterlimit: 4; fill: rgb(255,255,255); fill-rule: nonzero; opacity: 1; visibility: hidden;" vector-effect="non-scaling-stroke"  x="-540" y="-540" rx="0" ry="0" width="1080" height="1080" />
</g>
<g transform="matrix(1 0 0 1 540 540)" id="74e58f08-cf35-4d80-8c51-cb305c2476b8"  >
</g>
<g transform="matrix(1.58 0 0 1.58 540 540)"  >
<g style="" vector-effect="non-scaling-stroke"   >
		<g transform="matrix(1 0 0 1 0 0)"  >
<path style="stroke: none; stroke-width: 1; stroke-dasharray: none; stroke-linecap: butt; stroke-dashoffset: 0; stroke-linejoin: miter; stroke-miterlimit: 4; fill: rgb(254,254,254); fill-rule: nonzero; opacity: 1;" vector-effect="non-scaling-stroke"  transform=" translate(-256.94, -257.05)" d="M 308 513 C 205.358261 513 103.216515 513 1.037387 513 C 1.037387 342.399902 1.037387 171.799789 1.037387 1.099841 C 171.558426 1.099841 342.116913 1.099841 512.837708 1.099841 C 512.837708 171.666534 512.837708 342.333252 512.837708 513 C 444.799774 513 376.649872 513 308 513 M 263.024567 370.045349 C 263.024567 370.045349 263.081146 370.114166 263.550537 369.763275 C 263.815613 369.248047 264.080719 368.732849 264.186005 368.178558 C 264.186005 368.178558 264.227203 368.33783 264.783569 368.176025 C 265.212219 367.798492 265.6409 367.42099 266.022156 366.995758 C 266.022156 366.995758 266.028656 367.062744 266.592773 366.976776 C 266.815765 366.680847 267.038788 366.384918 268.008209 366.07251 C 275.190399 364.141754 279.021698 366.648712 279.828125 374.292084 C 280.665588 382.229584 281.082672 390.210938 281.725067 398.169769 C 282.14502 403.372498 284.28418 405.426147 288.788574 405.074493 C 292.860596 404.756592 294.966156 401.686554 294.492004 396.894012 C 293.6427 388.309814 292.886047 379.716248 292.00177 371.135742 C 291.358582 364.894653 288.988586 359.520477 283.014587 356.7117 C 276.72818 353.756012 270.670441 355.05423 265.193054 358.937225 C 263.280914 360.292755 261.834198 362.30484 259.915527 364.28479 C 258.045441 356.183441 255.065018 354.74649 249.298706 359.277679 C 249.202133 365.183563 249.10556 371.089417 248.882462 377.910187 C 248.957764 381.607269 249.033081 385.304352 248.978333 389.920776 C 249.27533 394.375 249.572311 398.829224 249.920013 403.980865 C 253.569824 408.681946 257.006439 408.685486 261.236542 403.219513 C 261.30069 400.270264 261.331024 397.319824 261.435608 394.372009 C 261.710297 386.632172 262.017365 378.893494 262.169434 371.123108 C 262.169434 371.123108 262.202698 371.26474 262.71402 371.048492 C 262.847168 370.716034 262.980316 370.383575 263.024567 370.045349 M 250.780701 453.409729 C 250.862167 451.210541 250.943649 449.011353 250.977081 446.237732 C 249.296509 445.835388 247.615952 445.433014 245.142105 445.094543 C 244.773376 448.245026 244.404633 451.395538 244.035889 454.546021 C 244.468567 454.893616 244.90123 455.241211 245.333908 455.588776 C 246.910431 454.735596 248.486954 453.882416 250.001877 453.004456 C 250.001877 453.004456 250.036209 453.06131 250.780701 453.409729 M 173.98613 447.180084 C 172.371445 445.212952 170.622681 444.056763 168.332413 446.261108 C 166.12468 448.385986 165.337585 450.695526 167.458893 453.34967 C 169.060974 455.354095 170.654587 455.214417 172.907532 453.092621 C 173.330872 451.349915 173.754211 449.607208 173.98613 447.180084 M 440.393799 76.769936 C 436.082306 77.741013 436.879028 81.23671 437.068237 84.095833 C 437.378784 88.789963 441.062897 89.959946 444.835205 89.947792 C 446.771606 89.941566 448.703186 88.44429 450.636963 87.620842 C 450.457794 87.200089 450.278625 86.779343 450.099457 86.358589 C 444.191986 89.131126 440.187988 88.219505 439.497711 83.547485 C 439.193298 81.487312 440.45694 79.19548 441.70697 77.031166 C 442.262238 77.707809 443.287262 78.384216 443.287628 79.061142 C 443.288849 81.406204 442.933716 83.751457 442.67691 86.494514 C 446.65564 83.895607 448.521271 81.242897 444.697571 76.445068 C 447.470215 77.592865 448.848816 78.163582 450.677795 78.920731 C 447.232574 73.438011 445.27771 73.143936 440.393799 76.769936 M 212.981522 399.741943 C 213.065903 400.495514 213.150299 401.249115 213.263 402.648499 C 213.802231 403.536133 214.341461 404.423737 215.16539 405.920288 C 221.592728 409.149017 225.712555 406.726501 226.026672 399.544647 C 226.337677 392.43399 226.391037 385.298798 227.047745 378.219818 C 227.928314 368.727966 231.066681 366.863434 240.607086 368.721497 C 242.247711 369.041016 244.82103 367.899933 245.994934 366.575256 C 248.243134 364.038269 247.465775 361.264343 244.606461 359.456238 C 243.10997 358.509918 241.379425 357.797302 239.657639 357.368317 C 233.62355 355.864929 229.540436 358.848175 226.343765 364.573486 C 225.883713 359.732056 224.552795 356.261963 220.193527 356.495636 C 215.853348 356.728241 214.913406 360.301331 214.792206 364.111023 C 214.634109 369.080383 214.327698 374.044952 213.935028 379.903625 C 213.677933 386.268402 213.420837 392.633148 212.981522 399.741943 M 171.155502 191.917404 C 171.155502 191.917404 171.010559 191.796356 171.010559 191.796356 C 171.010559 191.796356 171.246964 191.820068 170.931778 192.642593 C 170.939697 193.307205 170.841721 193.993164 170.970871 194.633316 C 175.290344 216.043304 179.585876 237.458572 184.109802 258.825439 C 184.32634 259.848145 186.648529 261.188324 187.886414 261.088898 C 191.646423 260.786896 195.343079 259.772125 199.087158 259.178436 C 205.677689 258.133392 206.395309 257.22467 207.208069 250.628708 C 208.623505 239.141907 210.320175 227.690048 211.811981 216.21225 C 212.884705 207.958755 213.815994 199.686905 214.902222 190.659973 C 200.03244 201.601868 185.631271 201.472992 171.155502 191.917404 M 153.11116 264.384949 C 162.529755 262.420105 165.90657 257.024567 165.489746 247.134384 C 164.822037 231.291534 165.779373 215.379822 154.303146 202.147293 C 167.166245 182.195374 170.818726 159.560074 174.070023 136.082901 C 162.308685 142.09021 151.399292 147.993073 140.182053 153.237564 C 135.338425 155.502167 133.93277 158.518936 133.899185 163.606354 C 133.811844 176.838577 131.429352 189.66391 124.93441 201.428024 C 124.073036 202.98822 122.834427 204.340134 121.243797 206.505554 C 120.528305 178.213943 119.84481 151.187881 119.135254 123.131073 C 106.813927 130.276611 95.477264 136.760025 84.292915 143.496307 C 83.313339 144.086304 82.866043 146.367706 82.965332 147.808792 C 83.559853 156.437561 84.35524 165.053192 85.142525 173.667831 C 87.049828 194.537994 88.997597 215.404419 90.913849 236.273773 C 92.353409 251.951569 93.769341 267.631531 95.248688 283.891968 C 104.699478 280.63736 113.779434 277.510468 122.350853 274.558716 C 122.350853 258.401489 122.350853 242.904266 122.350853 227.407028 C 135.902618 239.176254 132.29126 255.436386 134.400711 270.15741 C 138.685303 269.101562 143.130661 268.006104 147.219955 267.560516 C 143.256134 271.812561 138.69989 275.66098 135.464935 280.409546 C 130.391953 287.85614 125.892075 295.748657 121.81414 303.789398 C 120.251846 306.869904 121.569748 311.084473 125.067314 312.311035 C 127.023422 312.99707 130.051498 311.160553 132.391037 310.033936 C 133.986649 309.265594 135.27449 307.81073 136.615753 306.571686 C 139.229263 304.157288 141.620636 304.063263 144.518707 306.406738 C 149.802109 310.679047 155.251282 314.762299 160.793365 318.696075 C 192.1595 340.95993 226.144196 353.433502 265.246429 345.960205 C 279.331024 343.268311 293.033234 338.953247 303.910614 329.271667 C 315.210327 319.214172 325.751587 308.284943 336.356628 297.474121 C 342.475983 291.236053 342.249359 290.971771 350.318909 294.121399 C 353.414215 295.329498 356.588684 296.116913 358.88446 293.083801 C 361.203278 290.020203 359.679993 286.933685 357.527435 284.487915 C 354.016388 280.498596 350.488007 276.442474 346.46051 273.008514 C 340.04071 267.534882 333.386963 262.28775 326.467224 257.468872 C 323.095612 255.120895 318.814087 254.812393 315.488525 258.107025 C 312.066193 261.497528 313.018555 265.565704 315.084961 269.124573 C 317.218933 272.799774 319.999786 276.099335 322.908478 280.132935 C 318.028015 285.43869 313.308533 290.792908 308.351349 295.917206 C 292.636444 312.162048 273.25061 321.383667 250.968842 323.450653 C 221.85376 326.151581 195.202225 318.523926 171.361298 301.45755 C 167.584671 298.754059 164.145416 295.473999 160.105347 293.279449 C 157.243088 291.724609 157.176636 290.300385 158.599609 288.134705 C 164.073334 279.804077 161.959595 270.61319 153.11116 264.384949 M 272.144012 131.576645 C 271.813934 137.333588 271.483856 143.09053 271.142639 149.041473 C 268.582794 148.224136 266.602417 147.367416 264.533722 146.967911 C 251.617767 144.47374 242.797913 150.786911 235.940948 160.752762 C 228.180389 172.031891 224.929916 184.937698 224.152527 198.330856 C 223.334091 212.43132 225.138306 226.245041 232.905914 238.569412 C 238.452667 247.370117 246.424652 252.325089 256.977325 251.800476 C 268.419464 251.231613 279.827393 250.002502 291.260834 249.215195 C 294.45639 248.995148 295.647919 247.828308 296.073608 244.469879 C 301.270233 203.472504 306.6745 162.501465 312.003448 121.520805 C 312.76123 115.693352 313.405487 109.851135 314.123627 103.837425 C 300.117737 105.237389 286.909637 106.55761 273.491852 107.898788 C 273.036072 115.71524 272.601654 123.165863 272.144012 131.576645 M 386.845215 128.27037 C 387.369659 126.723854 387.894135 125.177338 388.389862 123.715553 C 382.58136 119.198509 373.020508 116.742096 364.617798 117.497818 C 330.307861 120.583603 309.473511 143.349777 309.934845 177.664719 C 310.17691 195.673279 315.96228 204.389984 330.778015 208.731705 C 332.033264 209.099548 333.157623 209.909241 334.348572 210.50209 C 338.400848 212.519226 339.496307 216.042038 338.849304 220.130844 C 337.585724 228.116638 330.256714 231.586258 323.595276 226.796005 C 319.453369 223.817566 316.388458 219.341446 312.744568 215.435059 C 310.963562 221.800827 309.015289 228.637726 307.140198 235.494629 C 303.980103 247.050812 303.880493 247.40007 315.206116 251.324646 C 332.439453 257.296387 349.283691 258.004547 363.314026 243.828033 C 376.824219 230.177063 380.393494 213.188675 378.300537 194.636307 C 377.156708 184.497192 371.189087 178.529541 361.720673 175.618103 C 358.553314 174.644196 355.265533 173.901215 352.300476 172.490204 C 350.516876 171.641403 348.684998 169.971008 347.862427 168.208832 C 345.849121 163.895813 347.792755 157.536636 351.483765 154.636063 C 354.898804 151.952377 360.233276 152.139969 364.439545 155.382065 C 367.530762 157.764709 370.384491 160.45549 373.201508 162.885986 C 377.439056 152.128586 381.993683 140.56633 386.845215 128.27037 M 429.117828 330.685486 C 434.22113 317.12207 439.324432 303.558624 444.668915 289.354218 C 426.315674 287.985809 408.882446 286.685974 391.185089 285.366455 C 389.434174 304.06073 387.738434 322.166077 386.016937 340.546204 C 398.414612 343.138123 410.312744 345.62561 422.648407 348.204559 C 424.731964 342.518158 426.767761 336.962067 429.117828 330.685486 M 115.301949 374.740173 C 110.900299 362.849182 113.51944 352.021454 120.671982 342.120331 C 123.854477 337.714874 128.435608 335.573303 134.123276 336.091949 C 142.948517 336.896729 146.944199 342.729248 149.38414 350.306915 C 150.581406 354.025146 152.210342 357.421967 157.014328 356.144501 C 160.415192 355.240143 161.673248 351.092438 160.396957 346.479675 C 157.254944 335.123962 149.384781 328.022491 138.348892 326.130341 C 128.0009 324.356171 117.21582 325.326965 109.93541 334.829559 C 101.082588 346.384552 97.567902 359.262329 101.93998 373.604065 C 106.155945 387.433685 122.790497 397.917755 137.064331 395.619019 C 145.935165 394.19043 152.942337 389.962372 156.310486 381.095306 C 157.765732 377.26416 157.514557 373.850739 153.486191 371.726257 C 149.334534 369.536774 147.387253 372.609222 145.536957 375.410034 C 137.422073 387.693695 124.435158 387.705902 115.301949 374.740173 M 320.748444 377.937653 C 326.246277 376.799347 331.808136 375.90036 337.222595 374.450592 C 341.949432 373.184967 343.730682 369.850037 343.001221 365.017822 C 341.863403 357.480255 333.727509 349.572144 326.012299 349.046478 C 315.850037 348.354126 306.66095 350.789398 301.037659 360.065002 C 295.023682 369.985077 295.358093 380.557678 300.917755 390.422333 C 306.158234 399.720673 315.107086 401.58429 325.098328 399.990997 C 333.375305 398.671112 340.19519 395.110779 344.237793 387.478729 C 345.480743 385.132233 347.210968 382.231018 343.474304 380.295624 C 340.358795 378.681946 338.281403 380.290527 336.392609 382.72641 C 334.875641 384.6828 333.238159 386.617645 331.353363 388.204773 C 322.579163 395.593018 312.52121 391.842163 310.300568 380.159729 C 313.5047 379.498688 316.713531 378.83667 320.748444 377.937653 M 174.898468 402.904053 C 181.472504 404.898438 188.030411 406.017792 194.802979 403.574646 C 205.069305 399.871094 210.261505 390.046417 209.187241 376.487488 C 207.82103 359.244141 192.250015 350.275543 176.114426 354.943604 C 164.438309 358.321503 161.124344 368.195953 160.05603 378.908813 C 159.067291 388.823914 164.807648 397.919739 174.898468 402.904053 M 191.793747 147.358887 C 187.939499 160.42865 187.390411 173.349228 194.502518 185.548569 C 198.710709 192.76683 205.55069 192.97023 210.670486 186.358902 C 217.054077 178.11557 218.623901 168.364304 217.759491 158.474945 C 217.208603 152.172363 215.50853 145.623413 212.756744 139.944183 C 208.962051 132.112518 201.232605 132.065445 196.068466 139.178696 C 194.428589 141.437485 193.399185 144.139481 191.793747 147.358887 M 360.561127 391.931763 C 365.935577 389.014465 364.246033 383.973877 363.833618 379.677399 C 363.185272 372.923157 361.317749 366.268829 360.896118 359.51416 C 360.358551 350.902222 363.231232 348.203583 371.934326 348.083557 C 375.145355 348.039246 377.137512 346.897888 377.522491 343.759338 C 378.051697 339.44458 375.147247 337.858643 371.579559 337.27887 C 365.262177 336.252197 361.159821 339.128326 357.700012 345.936584 C 354.612885 344.858521 351.531189 342.661194 348.939941 343.136688 C 344.918518 343.874664 345.11731 347.95816 345.715973 351.338745 C 347.799194 363.102905 349.868347 374.871307 352.157135 386.596283 C 352.933563 390.573975 355.209839 393.235199 360.561127 391.931763 M 76.095695 278.629883 C 79.361214 275.049774 82.626724 271.469666 86.454781 267.272827 C 72.005524 262.896149 58.754166 258.882324 44.637501 254.606415 C 48.331676 270.273499 51.804401 285.022156 55.308868 299.763275 C 55.413906 300.205109 55.851585 300.567902 56.12886 300.960022 C 56.485069 300.849518 56.890232 300.851257 57.063629 300.651672 C 63.271648 293.505829 69.457977 286.341095 76.095695 278.629883 M 390.047394 214.353943 C 390.939026 216.109772 391.830688 217.865601 392.695312 219.568207 C 391.169586 219.881012 389.792908 220.163269 388.013824 220.528 C 388.814697 222.342499 389.412872 223.697754 389.860992 224.712997 C 387.940521 226.063889 386.345978 227.185547 384.751404 228.307205 C 387.070587 229.459351 389.38974 230.611511 391.954041 231.885437 C 390.502563 233.90239 388.934814 236.080872 387.367096 238.259354 C 387.654999 238.661896 387.942871 239.064438 388.230774 239.46698 C 390.753143 238.486542 393.275513 237.506104 395.722351 236.555008 C 395.60025 239.139526 395.48053 241.672882 395.36084 244.206238 C 395.832703 244.241409 396.304596 244.276566 396.776459 244.311737 C 398.737518 241.8992 400.698578 239.486679 402.629761 237.110916 C 405.590027 239.037979 408.37323 240.849792 411.156464 242.661591 C 411.490143 242.24881 411.823792 241.836029 412.157471 241.423248 C 411.350861 239.177475 410.54425 236.931686 409.706451 234.599045 C 415.22934 234.522949 415.345459 234.234039 412.519348 228.988968 C 413.716034 227.40033 414.83313 225.917358 415.950256 224.434387 C 414.814575 223.715088 413.678925 222.995804 412.856262 222.474762 C 413.540924 220.950638 414.292847 219.276703 415.0448 217.602768 C 413.220703 217.602768 411.396606 217.602768 409.084656 217.602768 C 409.084656 215.03923 409.084656 212.511154 409.084656 208.520401 C 406.41449 211.470322 404.790802 213.26413 402.654968 215.623703 C 402.11084 214.196686 401.622345 212.915619 401.13385 211.634537 C 400.674011 211.993576 400.214203 212.3526 399.754364 212.711624 C 399.289948 214.007324 398.825531 215.30304 398.2854 216.809937 C 396.415192 215.429367 394.799561 213.978546 392.936829 212.99646 C 392.250214 212.634476 390.980865 213.377884 390.047394 214.353943 M 289.027435 80.094559 C 289.9776 82.721916 290.554657 85.568024 291.944214 87.937744 C 297.20697 96.91288 308.244537 97.718193 314.724335 89.77916 C 320.521698 82.676231 319.923828 70.807472 313.4422 64.327217 C 307.688568 58.574802 299.611237 58.678886 294.14621 64.699188 C 290.428955 68.794144 288.776855 73.711182 289.027435 80.094559 M 209.134964 265.766235 C 207.710281 266.607666 206.247482 267.391449 204.869019 268.302765 C 202.16391 270.091156 200.31163 272.313843 201.772812 275.808716 C 203.320953 279.511566 206.260132 279.022491 209.332901 278.276733 C 216.158493 276.620178 220.800095 271.927582 225.251999 266.960846 C 232.84816 258.486206 229.245255 246.625504 216.730057 242.94693 C 219.1716 252.150253 219.052139 260.49704 209.134964 265.766235 M 203.327011 80.660988 C 207.864868 75.642136 212.853256 78.250618 217.977905 80.499374 C 219.985367 75.138466 216.739899 71.80999 214.215714 69.072311 C 212.101135 66.778862 208.436264 65.907684 205.434708 64.454559 C 205.22731 64.354156 204.828873 64.657684 204.516129 64.764137 C 197.0681 67.299553 186.888672 81.178947 187.036606 89.207275 C 187.072723 91.167 188.73526 93.096756 189.649994 95.040283 C 191.659302 93.996132 194.209991 93.410553 195.564346 91.81163 C 198.318054 88.56073 200.425644 84.762535 203.327011 80.660988 M 394.401917 104.140656 C 392.913025 102.573395 391.486938 100.940292 389.924225 99.450485 C 383.747742 93.562202 378.293274 94.178444 373.47998 101.325005 C 372.463989 102.833473 371.493805 104.434227 370.874664 106.128464 C 370.407776 107.406143 370.534912 108.900909 370.397644 110.299057 C 371.75354 110.223244 373.215912 110.451363 374.447296 110.020035 C 380.389252 107.938683 383.214844 108.426865 387.088043 113.324539 C 389.335327 116.166275 391.042572 119.452171 392.848633 122.620392 C 394.286102 125.142082 396.259491 127.49765 399.057404 125.802925 C 400.684357 124.817459 402.371002 121.398445 401.831573 119.831528 C 400.033295 114.607689 397.241669 109.725822 394.401917 104.140656 M 378.95816 446.537292 C 376.829651 446.204254 374.493011 445.221008 372.659119 445.808136 C 371.719879 446.108826 370.863525 449.554047 371.446075 450.971252 C 372.129852 452.634705 375.296936 455.040344 375.857941 454.688202 C 378.377777 453.106476 381.400024 451.123352 378.95816 446.537292 M 311.02594 444.229309 C 309.647186 444.295776 308.268433 444.362244 307.221252 444.41272 C 307.221252 448.097351 307.221252 451.16568 307.221252 453.613861 C 308.942932 452.639526 310.497467 451.759796 312.9133 450.392609 C 313.324127 449.211395 315.739746 446.537415 311.02594 444.229309 M 85.478607 326.977692 C 88.467583 326.039795 92.226761 325.3862 90.249245 320.962128 C 89.609222 319.530304 87.101242 318.072998 85.528549 318.156128 C 83.896294 318.242432 80.877922 320.599854 81.056549 321.23233 C 81.647644 323.325226 83.40744 325.088043 85.478607 326.977692 M 323.874329 451.270691 C 323.983398 452.446655 324.092438 453.622589 324.24472 455.264862 C 325.622803 453.496521 326.436371 451.396027 327.555206 451.218323 C 330.701813 450.718658 331.118652 449.206024 329.753784 446.949127 C 329.033539 445.758209 327.517639 445.048492 326.361023 444.121521 C 325.529297 445.555084 324.618774 446.95108 323.908112 448.442352 C 323.655884 448.97168 323.889923 449.732727 323.874329 451.270691 M 224.041275 450.245544 C 223.829849 448.710907 223.618408 447.1763 223.374725 445.407501 C 222.292389 446.628906 221.526459 447.493256 220.760513 448.357605 C 219.839249 447.128906 218.917969 445.900208 217.718597 444.300598 C 217.718597 448.117401 217.718597 451.498444 217.718597 455.806641 C 219.056503 453.534912 219.795609 452.279938 220.534683 451.024963 C 221.397873 451.942169 222.261047 452.859375 223.314011 453.97821 C 223.515839 452.877533 223.688538 451.935822 224.041275 450.245544 M 289.873322 445.321259 C 288.007111 445.477234 286.1409 445.633179 284.274689 445.789154 C 284.373413 446.399109 284.472137 447.009094 284.570862 447.619049 C 286.315125 447.067657 288.059357 446.516235 289.873322 445.321259 M 285.794403 454.776306 C 287.363953 454.25766 288.933472 453.738983 290.503021 453.220337 C 290.277313 452.677582 290.051636 452.134827 289.825928 451.592041 C 288.31366 452.496582 286.801422 453.401123 285.794403 454.776306 M 451.140411 80.828331 C 450.764343 81.143921 450.07959 81.457184 450.077148 81.775597 C 450.072357 82.417778 450.438629 83.062752 450.651794 83.706566 C 450.928467 83.671066 451.205139 83.635559 451.481781 83.600052 C 451.519775 82.825935 451.557739 82.051819 451.140411 80.828331 M 283.710632 450.55365 C 283.989319 450.288025 284.268005 450.02243 284.546722 449.756836 C 284.436584 449.641541 284.236816 449.419922 284.229309 449.42627 C 283.935455 449.674042 283.659119 449.942596 283.710632 450.55365 M 291.81604 447.774933 C 291.600342 447.776459 291.384613 447.777985 291.168915 447.77948 C 291.171967 447.920166 291.157806 448.179657 291.180786 448.182983 C 291.390503 448.21344 291.60672 448.199249 291.81604 447.774933 z" stroke-linecap="round" />
</g>
		<g transform="matrix(1 0 0 1 -128.43 -53.54)"  >
<path style="stroke: none; stroke-width: 1; stroke-dasharray: none; stroke-linecap: butt; stroke-dashoffset: 0; stroke-linejoin: miter; stroke-miterlimit: 4; fill: rgb(9,208,238); fill-rule: nonzero; opacity: 1;" vector-effect="non-scaling-stroke"  transform=" translate(-128.51, -203.51)" d="M 147.576019 266.910645 C 143.130661 268.006104 138.685303 269.101562 134.400711 270.15741 C 132.29126 255.436386 135.902618 239.176254 122.350853 227.407028 C 122.350853 242.904266 122.350853 258.401489 122.350853 274.558716 C 113.779434 277.510468 104.699478 280.63736 95.248688 283.891968 C 93.769341 267.631531 92.353409 251.951569 90.913849 236.273773 C 88.997597 215.404419 87.049828 194.537994 85.142525 173.667831 C 84.35524 165.053192 83.559853 156.437561 82.965332 147.808792 C 82.866043 146.367706 83.313339 144.086304 84.292915 143.496307 C 95.477264 136.760025 106.813927 130.276611 119.135254 123.131073 C 119.84481 151.187881 120.528305 178.213943 121.243797 206.505554 C 122.834427 204.340134 124.073036 202.98822 124.93441 201.428024 C 131.429352 189.66391 133.811844 176.838577 133.899185 163.606354 C 133.93277 158.518936 135.338425 155.502167 140.182053 153.237564 C 151.399292 147.993073 162.308685 142.09021 174.070023 136.082901 C 170.818726 159.560074 167.166245 182.195374 154.303146 202.147293 C 165.779373 215.379822 164.822037 231.291534 165.489746 247.134384 C 165.90657 257.024567 162.529755 262.420105 152.618423 264.765961 C 150.609131 265.734833 149.092575 266.322723 147.576019 266.910645 z" stroke-linecap="round" />
</g>
		<g transform="matrix(1 0 0 1 12.11 -79.21)"  >
<path style="stroke: none; stroke-width: 1; stroke-dasharray: none; stroke-linecap: butt; stroke-dashoffset: 0; stroke-linejoin: miter; stroke-miterlimit: 4; fill: rgb(241,130,23); fill-rule: nonzero; opacity: 1;" vector-effect="non-scaling-stroke"  transform=" translate(-269.05, -177.84)" d="M 272.155609 131.096558 C 272.601654 123.165863 273.036072 115.71524 273.491852 107.898788 C 286.909637 106.55761 300.117737 105.237389 314.123627 103.837425 C 313.405487 109.851135 312.76123 115.693352 312.003448 121.520805 C 306.6745 162.501465 301.270233 203.472504 296.073608 244.469879 C 295.647919 247.828308 294.45639 248.995148 291.260834 249.215195 C 279.827393 250.002502 268.419464 251.231613 256.977325 251.800476 C 246.424652 252.325089 238.452667 247.370117 232.905914 238.569412 C 225.138306 226.245041 223.334091 212.43132 224.152527 198.330856 C 224.929916 184.937698 228.180389 172.031891 235.940948 160.752762 C 242.797913 150.786911 251.617767 144.47374 264.533722 146.967911 C 266.602417 147.367416 268.582794 148.224136 271.142639 149.041473 C 271.483856 143.09053 271.813934 137.333588 272.155609 131.096558 M 255.80896 210.235306 C 257.033783 218.431305 259.378967 220.047119 267.548523 218.18576 C 267.876007 213.299896 268.21106 208.367691 268.533905 203.434692 C 268.609528 202.279175 268.595306 201.116287 268.706848 199.964951 C 268.975983 197.187805 268.987762 194.552338 265.541626 193.677567 C 262.336426 192.863968 259.59198 194.098099 258.59079 196.951462 C 257.199158 200.917557 256.68988 205.193253 255.80896 210.235306 z" stroke-linecap="round" />
</g>
		<g transform="matrix(1 0 0 1 89.91 -70.69)"  >
<path style="stroke: none; stroke-width: 1; stroke-dasharray: none; stroke-linecap: butt; stroke-dashoffset: 0; stroke-linejoin: miter; stroke-miterlimit: 4; fill: rgb(60,175,51); fill-rule: nonzero; opacity: 1;" vector-effect="non-scaling-stroke"  transform=" translate(-346.85, -186.36)" d="M 386.696777 128.637207 C 381.993683 140.56633 377.439056 152.128586 373.201508 162.885986 C 370.384491 160.45549 367.530762 157.764709 364.439545 155.382065 C 360.233276 152.139969 354.898804 151.952377 351.483765 154.636063 C 347.792755 157.536636 345.849121 163.895813 347.862427 168.208832 C 348.684998 169.971008 350.516876 171.641403 352.300476 172.490204 C 355.265533 173.901215 358.553314 174.644196 361.720673 175.618103 C 371.189087 178.529541 377.156708 184.497192 378.300537 194.636307 C 380.393494 213.188675 376.824219 230.177063 363.314026 243.828033 C 349.283691 258.004547 332.439453 257.296387 315.206116 251.324646 C 303.880493 247.40007 303.980103 247.050812 307.140198 235.494629 C 309.015289 228.637726 310.963562 221.800827 312.744568 215.435059 C 316.388458 219.341446 319.453369 223.817566 323.595276 226.796005 C 330.256714 231.586258 337.585724 228.116638 338.849304 220.130844 C 339.496307 216.042038 338.400848 212.519226 334.348572 210.50209 C 333.157623 209.909241 332.033264 209.099548 330.778015 208.731705 C 315.96228 204.389984 310.17691 195.673279 309.934845 177.664719 C 309.473511 143.349777 330.307861 120.583603 364.617798 117.497818 C 373.020508 116.742096 382.58136 119.198509 388.389862 123.715553 C 387.894135 125.177338 387.369659 126.723854 386.696777 128.637207 z" stroke-linecap="round" />
</g>
		<g transform="matrix(1 0 0 1 -16.33 44.85)"  >
<path style="stroke: none; stroke-width: 1; stroke-dasharray: none; stroke-linecap: butt; stroke-dashoffset: 0; stroke-linejoin: miter; stroke-miterlimit: 4; fill: rgb(20,71,89); fill-rule: nonzero; opacity: 1;" vector-effect="non-scaling-stroke"  transform=" translate(-240.6, -301.9)" d="M 147.39798 267.235565 C 149.092575 266.322723 150.609131 265.734833 152.445831 265.095642 C 161.959595 270.61319 164.073334 279.804077 158.599609 288.134705 C 157.176636 290.300385 157.243088 291.724609 160.105347 293.279449 C 164.145416 295.473999 167.584671 298.754059 171.361298 301.45755 C 195.202225 318.523926 221.85376 326.151581 250.968842 323.450653 C 273.25061 321.383667 292.636444 312.162048 308.351349 295.917206 C 313.308533 290.792908 318.028015 285.43869 322.908478 280.132935 C 319.999786 276.099335 317.218933 272.799774 315.084961 269.124573 C 313.018555 265.565704 312.066193 261.497528 315.488525 258.107025 C 318.814087 254.812393 323.095612 255.120895 326.467224 257.468872 C 333.386963 262.28775 340.04071 267.534882 346.46051 273.008514 C 350.488007 276.442474 354.016388 280.498596 357.527435 284.487915 C 359.679993 286.933685 361.203278 290.020203 358.88446 293.083801 C 356.588684 296.116913 353.414215 295.329498 350.318909 294.121399 C 342.249359 290.971771 342.475983 291.236053 336.356628 297.474121 C 325.751587 308.284943 315.210327 319.214172 303.910614 329.271667 C 293.033234 338.953247 279.331024 343.268311 265.246429 345.960205 C 226.144196 353.433502 192.1595 340.95993 160.793365 318.696075 C 155.251282 314.762299 149.802109 310.679047 144.518707 306.406738 C 141.620636 304.063263 139.229263 304.157288 136.615753 306.571686 C 135.27449 307.81073 133.986649 309.265594 132.391037 310.033936 C 130.051498 311.160553 127.023422 312.99707 125.067314 312.311035 C 121.569748 311.084473 120.251846 306.869904 121.81414 303.789398 C 125.892075 295.748657 130.391953 287.85614 135.464935 280.409546 C 138.69989 275.66098 143.256134 271.812561 147.39798 267.235565 z" stroke-linecap="round" />
</g>
		<g transform="matrix(1 0 0 1 158.41 59.74)"  >
<path style="stroke: none; stroke-width: 1; stroke-dasharray: none; stroke-linecap: butt; stroke-dashoffset: 0; stroke-linejoin: miter; stroke-miterlimit: 4; fill: rgb(241,131,26); fill-rule: nonzero; opacity: 1;" vector-effect="non-scaling-stroke"  transform=" translate(-415.34, -316.79)" d="M 428.960693 331.045715 C 426.767761 336.962067 424.731964 342.518158 422.648407 348.204559 C 410.312744 345.62561 398.414612 343.138123 386.016937 340.546204 C 387.738434 322.166077 389.434174 304.06073 391.185089 285.366455 C 408.882446 286.685974 426.315674 287.985809 444.668915 289.354218 C 439.324432 303.558624 434.22113 317.12207 428.960693 331.045715 M 410.849274 310.787231 C 410.796539 321.530243 414.499939 324.745972 424.176361 320.580475 C 422.852173 323.310242 422.382874 326.025604 421.075836 326.518219 C 419.532074 327.100067 417.257996 325.78363 415.312775 325.245789 C 414.167145 324.928955 413.045288 324.526184 411.91272 324.162048 C 411.932312 325.344238 411.5867 327.380249 412.030701 327.570129 C 414.934174 328.812042 418.118866 330.63913 420.992401 330.317352 C 423.315369 330.05719 426.97226 327.226868 427.186432 325.230713 C 427.942505 318.185272 427.496124 311.007965 427.412537 303.881744 C 427.407104 303.413818 426.619873 302.955048 425.996979 302.274139 C 424.901703 303.232513 423.995697 304.025269 423.105438 304.80426 C 416.711273 300.678864 412.743073 302.365601 410.849274 310.787231 M 403.180664 321.916779 C 403.720184 321.745636 404.588043 321.271759 404.750671 321.44812 C 407.834961 324.793365 408.985016 323.175903 409.099731 319.687347 C 409.247253 315.200287 409.274261 310.697601 409.044525 306.217468 C 408.981567 304.990204 407.814362 303.81958 407.1539 302.622955 C 406.365417 303.696594 405.040405 304.701324 404.891876 305.857178 C 404.491486 308.973511 404.975433 312.23526 404.332184 315.275055 C 404.013092 316.782959 401.987823 317.929871 400.734467 319.240112 C 399.818695 317.844513 398.327423 316.532776 398.109375 315.035553 C 397.682098 312.101593 398.17572 309.040863 397.848358 306.081268 C 397.718567 304.907806 396.418274 303.8638 395.650879 302.760803 C 394.82782 303.848846 393.419403 304.874054 393.294647 306.037018 C 392.959351 309.162476 393.073364 312.350464 393.188782 315.507019 C 393.425049 321.968292 396.162262 323.946198 403.180664 321.916779 z" stroke-linecap="round" />
</g>
		<g transform="matrix(1 0 0 1 -64.03 -31.17)"  >
<path style="stroke: none; stroke-width: 1; stroke-dasharray: none; stroke-linecap: butt; stroke-dashoffset: 0; stroke-linejoin: miter; stroke-miterlimit: 4; fill: rgb(225,27,56); fill-rule: nonzero; opacity: 1;" vector-effect="non-scaling-stroke"  transform=" translate(-192.91, -225.88)" d="M 171.145432 191.756302 C 185.631271 201.472992 200.03244 201.601868 214.902222 190.659973 C 213.815994 199.686905 212.884705 207.958755 211.811981 216.21225 C 210.320175 227.690048 208.623505 239.141907 207.208069 250.628708 C 206.395309 257.22467 205.677689 258.133392 199.087158 259.178436 C 195.343079 259.772125 191.646423 260.786896 187.886414 261.088898 C 186.648529 261.188324 184.32634 259.848145 184.109802 258.825439 C 179.585876 237.458572 175.290344 216.043304 170.970871 194.633316 C 170.841721 193.993164 170.939697 193.307205 171.05304 192.232803 C 171.174316 191.823013 171.145432 191.756302 171.145432 191.756302 z" stroke-linecap="round" />
</g>
		<g transform="matrix(1 0 0 1 -126.46 103.62)"  >
<path style="stroke: none; stroke-width: 1; stroke-dasharray: none; stroke-linecap: butt; stroke-dashoffset: 0; stroke-linejoin: miter; stroke-miterlimit: 4; fill: rgb(20,72,93); fill-rule: nonzero; opacity: 1;" vector-effect="non-scaling-stroke"  transform=" translate(-130.47, -360.67)" d="M 115.51796 375.065948 C 124.435158 387.705902 137.422073 387.693695 145.536957 375.410034 C 147.387253 372.609222 149.334534 369.536774 153.486191 371.726257 C 157.514557 373.850739 157.765732 377.26416 156.310486 381.095306 C 152.942337 389.962372 145.935165 394.19043 137.064331 395.619019 C 122.790497 397.917755 106.155945 387.433685 101.93998 373.604065 C 97.567902 359.262329 101.082588 346.384552 109.93541 334.829559 C 117.21582 325.326965 128.0009 324.356171 138.348892 326.130341 C 149.384781 328.022491 157.254944 335.123962 160.396957 346.479675 C 161.673248 351.092438 160.415192 355.240143 157.014328 356.144501 C 152.210342 357.421967 150.581406 354.025146 149.38414 350.306915 C 146.944199 342.729248 142.948517 336.896729 134.123276 336.091949 C 128.435608 335.573303 123.854477 337.714874 120.671982 342.120331 C 113.51944 352.021454 110.900299 362.849182 115.51796 375.065948 z" stroke-linecap="round" />
</g>
		<g transform="matrix(1 0 0 1 64.25 117.67)"  >
<path style="stroke: none; stroke-width: 1; stroke-dasharray: none; stroke-linecap: butt; stroke-dashoffset: 0; stroke-linejoin: miter; stroke-miterlimit: 4; fill: rgb(24,74,95); fill-rule: nonzero; opacity: 1;" vector-effect="non-scaling-stroke"  transform=" translate(-321.19, -374.72)" d="M 320.335419 378.056152 C 316.713531 378.83667 313.5047 379.498688 310.300568 380.159729 C 312.52121 391.842163 322.579163 395.593018 331.353363 388.204773 C 333.238159 386.617645 334.875641 384.6828 336.392609 382.72641 C 338.281403 380.290527 340.358795 378.681946 343.474304 380.295624 C 347.210968 382.231018 345.480743 385.132233 344.237793 387.478729 C 340.19519 395.110779 333.375305 398.671112 325.098328 399.990997 C 315.107086 401.58429 306.158234 399.720673 300.917755 390.422333 C 295.358093 380.557678 295.023682 369.985077 301.037659 360.065002 C 306.66095 350.789398 315.850037 348.354126 326.012299 349.046478 C 333.727509 349.572144 341.863403 357.480255 343.001221 365.017822 C 343.730682 369.850037 341.949432 373.184967 337.222595 374.450592 C 331.808136 375.90036 326.246277 376.799347 320.335419 378.056152 M 326.173279 369.805176 C 327.850067 369.34549 329.526886 368.885773 331.183441 368.431641 C 329.640717 361.172974 324.903015 356.993713 319.500275 357.919128 C 312.578064 359.104736 309.031616 364.217072 309.81076 372.453064 C 315.002594 371.628998 320.16803 370.809143 326.173279 369.805176 z" stroke-linecap="round" />
</g>
		<g transform="matrix(1 0 0 1 -72.3 122.29)"  >
<path style="stroke: none; stroke-width: 1; stroke-dasharray: none; stroke-linecap: butt; stroke-dashoffset: 0; stroke-linejoin: miter; stroke-miterlimit: 4; fill: rgb(21,73,94); fill-rule: nonzero; opacity: 1;" vector-effect="non-scaling-stroke"  transform=" translate(-184.64, -379.34)" d="M 174.561096 402.708008 C 164.807648 397.919739 159.067291 388.823914 160.05603 378.908813 C 161.124344 368.195953 164.438309 358.321503 176.114426 354.943604 C 192.250015 350.275543 207.82103 359.244141 209.187241 376.487488 C 210.261505 390.046417 205.069305 399.871094 194.802979 403.574646 C 188.030411 406.017792 181.472504 404.898438 174.561096 402.708008 M 196.929016 374.143127 C 196.582169 373.042236 196.317993 371.906769 195.874329 370.846405 C 193.825089 365.948547 189.52742 362.755554 184.823013 363.066376 C 179.954895 363.388092 175.926727 365.814758 174.803894 370.609283 C 173.62291 375.65213 172.896423 381.033173 173.317703 386.155701 C 173.756973 391.496857 178.876907 395.1875 184.103439 395.495209 C 189.188278 395.794617 194.02037 393.007141 195.543427 387.725037 C 196.707748 383.687103 196.533127 379.263092 196.929016 374.143127 z" stroke-linecap="round" />
</g>
		<g transform="matrix(1 0 0 1 -53.44 -94.5)"  >
<path style="stroke: none; stroke-width: 1; stroke-dasharray: none; stroke-linecap: butt; stroke-dashoffset: 0; stroke-linejoin: miter; stroke-miterlimit: 4; fill: rgb(225,29,58); fill-rule: nonzero; opacity: 1;" vector-effect="non-scaling-stroke"  transform=" translate(-203.5, -162.55)" d="M 191.942078 146.998779 C 193.399185 144.139481 194.428589 141.437485 196.068466 139.178696 C 201.232605 132.065445 208.962051 132.112518 212.756744 139.944183 C 215.50853 145.623413 217.208603 152.172363 217.759491 158.474945 C 218.623901 168.364304 217.054077 178.11557 210.670486 186.358902 C 205.55069 192.97023 198.710709 192.76683 194.502518 185.548569 C 187.390411 173.349228 187.939499 160.42865 191.942078 146.998779 z" stroke-linecap="round" />
</g>
		<g transform="matrix(1 0 0 1 14.86 124.21)"  >
<path style="stroke: none; stroke-width: 1; stroke-dasharray: none; stroke-linecap: butt; stroke-dashoffset: 0; stroke-linejoin: miter; stroke-miterlimit: 4; fill: rgb(20,73,94); fill-rule: nonzero; opacity: 1;" vector-effect="non-scaling-stroke"  transform=" translate(-271.8, -381.26)" d="M 249.925674 358.797302 C 255.065018 354.74649 258.045441 356.183441 259.915527 364.28479 C 261.834198 362.30484 263.280914 360.292755 265.193054 358.937225 C 270.670441 355.05423 276.72818 353.756012 283.014587 356.7117 C 288.988586 359.520477 291.358582 364.894653 292.00177 371.135742 C 292.886047 379.716248 293.6427 388.309814 294.492004 396.894012 C 294.966156 401.686554 292.860596 404.756592 288.788574 405.074493 C 284.28418 405.426147 282.14502 403.372498 281.725067 398.169769 C 281.082672 390.210938 280.665588 382.229584 279.828125 374.292084 C 279.021698 366.648712 275.190399 364.141754 267.368561 366.155182 C 266.495483 366.512817 266.262085 366.787781 266.028656 367.062744 C 266.028656 367.062744 266.022156 366.995758 265.724854 367.038971 C 265.027466 367.500732 264.62735 367.919281 264.227203 368.33783 C 264.227203 368.33783 264.186005 368.178558 263.950317 368.275635 C 263.503448 368.953217 263.292297 369.533691 263.081146 370.114166 C 263.081146 370.114166 263.024567 370.045349 262.821747 370.166199 C 262.480194 370.612946 262.341461 370.938843 262.202698 371.26474 C 262.202698 371.26474 262.169434 371.123108 261.873352 371.287445 C 261.050262 373.131775 260.132477 374.797089 260.068848 376.494446 C 259.870728 381.778168 259.880157 387.077362 260.034943 392.363983 C 260.14859 396.245453 260.617249 400.116486 260.927734 403.992188 C 257.006439 408.685486 253.569824 408.681946 250.06575 403.231201 C 250.740601 397.914795 252.907272 393.21402 249.108383 389.001434 C 249.033081 385.304352 248.957764 381.607269 249.241364 377.158508 C 249.708725 370.536957 249.8172 364.667145 249.925674 358.797302 z" stroke-linecap="round" />
</g>
		<g transform="matrix(1 0 0 1 104.55 107.67)"  >
<path style="stroke: none; stroke-width: 1; stroke-dasharray: none; stroke-linecap: butt; stroke-dashoffset: 0; stroke-linejoin: miter; stroke-miterlimit: 4; fill: rgb(21,73,94); fill-rule: nonzero; opacity: 1;" vector-effect="non-scaling-stroke"  transform=" translate(-361.49, -364.72)" d="M 360.221802 392.089233 C 355.209839 393.235199 352.933563 390.573975 352.157135 386.596283 C 349.868347 374.871307 347.799194 363.102905 345.715973 351.338745 C 345.11731 347.95816 344.918518 343.874664 348.939941 343.136688 C 351.531189 342.661194 354.612885 344.858521 357.700012 345.936584 C 361.159821 339.128326 365.262177 336.252197 371.579559 337.27887 C 375.147247 337.858643 378.051697 339.44458 377.522491 343.759338 C 377.137512 346.897888 375.145355 348.039246 371.934326 348.083557 C 363.231232 348.203583 360.358551 350.902222 360.896118 359.51416 C 361.317749 366.268829 363.185272 372.923157 363.833618 379.677399 C 364.246033 383.973877 365.935577 389.014465 360.221802 392.089233 z" stroke-linecap="round" />
</g>
		<g transform="matrix(1 0 0 1 -26.71 124.74)"  >
<path style="stroke: none; stroke-width: 1; stroke-dasharray: none; stroke-linecap: butt; stroke-dashoffset: 0; stroke-linejoin: miter; stroke-miterlimit: 4; fill: rgb(20,73,94); fill-rule: nonzero; opacity: 1;" vector-effect="non-scaling-stroke"  transform=" translate(-230.23, -381.79)" d="M 213.23468 402.002686 C 213.150299 401.249115 213.065903 400.495514 213.455902 399.263641 C 213.981873 392.194092 214.033493 385.602844 214.085098 379.011597 C 214.327698 374.044952 214.634109 369.080383 214.792206 364.111023 C 214.913406 360.301331 215.853348 356.728241 220.193527 356.495636 C 224.552795 356.261963 225.883713 359.732056 226.343765 364.573486 C 229.540436 358.848175 233.62355 355.864929 239.657639 357.368317 C 241.379425 357.797302 243.10997 358.509918 244.606461 359.456238 C 247.465775 361.264343 248.243134 364.038269 245.994934 366.575256 C 244.82103 367.899933 242.247711 369.041016 240.607086 368.721497 C 231.066681 366.863434 227.928314 368.727966 227.047745 378.219818 C 226.391037 385.298798 226.337677 392.43399 226.026672 399.544647 C 225.712555 406.726501 221.592728 409.149017 215.05304 405.254944 C 214.372025 403.727264 213.80336 402.86499 213.23468 402.002686 z" stroke-linecap="round" />
</g>
		<g transform="matrix(1 0 0 1 -191.39 20.73)"  >
<path style="stroke: none; stroke-width: 1; stroke-dasharray: none; stroke-linecap: butt; stroke-dashoffset: 0; stroke-linejoin: miter; stroke-miterlimit: 4; fill: rgb(19,208,238); fill-rule: nonzero; opacity: 1;" vector-effect="non-scaling-stroke"  transform=" translate(-65.55, -277.78)" d="M 75.871521 278.90448 C 69.457977 286.341095 63.271648 293.505829 57.063629 300.651672 C 56.890232 300.851257 56.485069 300.849518 56.12886 300.960022 C 55.851585 300.567902 55.413906 300.205109 55.308868 299.763275 C 51.804401 285.022156 48.331676 270.273499 44.637501 254.606415 C 58.754166 258.882324 72.005524 262.896149 86.454781 267.272827 C 82.626724 271.469666 79.361214 275.049774 75.871521 278.90448 M 55.801262 279.763763 C 56.613461 283.344696 57.425659 286.925659 58.403389 291.236389 C 64.676628 284.038788 70.39727 277.47522 76.639641 270.313019 C 68.130531 267.581055 60.261845 265.054657 51.516418 262.246796 C 52.929581 268.260559 54.192535 273.635132 55.801262 279.763763 z" stroke-linecap="round" />
</g>
		<g transform="matrix(1 0 0 1 143.41 -30.63)"  >
<path style="stroke: none; stroke-width: 1; stroke-dasharray: none; stroke-linecap: butt; stroke-dashoffset: 0; stroke-linejoin: miter; stroke-miterlimit: 4; fill: rgb(60,175,51); fill-rule: nonzero; opacity: 1;" vector-effect="non-scaling-stroke"  transform=" translate(-400.35, -226.42)" d="M 390.012329 213.985535 C 390.980865 213.377884 392.250214 212.634476 392.936829 212.99646 C 394.799561 213.978546 396.415192 215.429367 398.2854 216.809937 C 398.825531 215.30304 399.289948 214.007324 399.754364 212.711624 C 400.214203 212.3526 400.674011 211.993576 401.13385 211.634537 C 401.622345 212.915619 402.11084 214.196686 402.654968 215.623703 C 404.790802 213.26413 406.41449 211.470322 409.084656 208.520401 C 409.084656 212.511154 409.084656 215.03923 409.084656 217.602768 C 411.396606 217.602768 413.220703 217.602768 415.0448 217.602768 C 414.292847 219.276703 413.540924 220.950638 412.856262 222.474762 C 413.678925 222.995804 414.814575 223.715088 415.950256 224.434387 C 414.83313 225.917358 413.716034 227.40033 412.519348 228.988968 C 415.345459 234.234039 415.22934 234.522949 409.706451 234.599045 C 410.54425 236.931686 411.350861 239.177475 412.157471 241.423248 C 411.823792 241.836029 411.490143 242.24881 411.156464 242.661591 C 408.37323 240.849792 405.590027 239.037979 402.629761 237.110916 C 400.698578 239.486679 398.737518 241.8992 396.776459 244.311737 C 396.304596 244.276566 395.832703 244.241409 395.36084 244.206238 C 395.48053 241.672882 395.60025 239.139526 395.722351 236.555008 C 393.275513 237.506104 390.753143 238.486542 388.230774 239.46698 C 387.942871 239.064438 387.654999 238.661896 387.367096 238.259354 C 388.934814 236.080872 390.502563 233.90239 391.954041 231.885437 C 389.38974 230.611511 387.070587 229.459351 384.751404 228.30719 C 386.345978 227.185547 387.940521 226.063889 389.860992 224.712997 C 389.412872 223.697754 388.814697 222.342499 388.013824 220.528 C 389.792908 220.163269 391.169586 219.881012 392.695312 219.568207 C 391.830688 217.865601 390.939026 216.109772 390.012329 213.985535 M 402.714661 220.717834 C 399.717621 221.479996 395.032257 220.644852 396.285034 225.983398 C 396.983307 228.95903 399.016815 231.621353 400.412354 234.353897 C 407.996033 231.869522 409.907288 226.017899 405.278198 220.238556 C 404.996643 219.886993 403.930786 220.16362 402.714661 220.717834 z" stroke-linecap="round" />
</g>
		<g transform="matrix(1 0 0 1 46.91 -179.38)"  >
<path style="stroke: none; stroke-width: 1; stroke-dasharray: none; stroke-linecap: butt; stroke-dashoffset: 0; stroke-linejoin: miter; stroke-miterlimit: 4; fill: rgb(225,32,58); fill-rule: nonzero; opacity: 1;" vector-effect="non-scaling-stroke"  transform=" translate(-303.84, -77.67)" d="M 288.992676 79.667267 C 288.776855 73.711182 290.428955 68.794144 294.14621 64.699188 C 299.611237 58.678886 307.688568 58.574802 313.4422 64.327217 C 319.923828 70.807472 320.521698 82.676231 314.724335 89.77916 C 308.244537 97.718193 297.20697 96.91288 291.944214 87.937744 C 290.554657 85.568024 289.9776 82.721916 288.992676 79.667267 M 296.334778 84.976967 C 300.838593 90.086449 305.9151 90.73037 309.994141 86.709541 C 314.060699 82.701012 314.721008 75.357033 311.436096 70.671272 C 307.220245 64.657509 298.824646 65.293434 295.589996 71.918564 C 293.56012 76.076157 293.68457 80.238808 296.334778 84.976967 z" stroke-linecap="round" />
</g>
		<g transform="matrix(1 0 0 1 -41.7 3.82)"  >
<path style="stroke: none; stroke-width: 1; stroke-dasharray: none; stroke-linecap: butt; stroke-dashoffset: 0; stroke-linejoin: miter; stroke-miterlimit: 4; fill: rgb(24,74,95); fill-rule: nonzero; opacity: 1;" vector-effect="non-scaling-stroke"  transform=" translate(-215.23, -260.87)" d="M 209.429626 265.553864 C 219.052139 260.49704 219.1716 252.150253 216.730057 242.94693 C 229.245255 246.625504 232.84816 258.486206 225.251999 266.960846 C 220.800095 271.927582 216.158493 276.620178 209.332901 278.276733 C 206.260132 279.022491 203.320953 279.511566 201.772812 275.808716 C 200.31163 272.313843 202.16391 270.091156 204.869019 268.302765 C 206.247482 267.391449 207.710281 266.607666 209.429626 265.553864 z" stroke-linecap="round" />
</g>
		<g transform="matrix(1 0 0 1 -54.12 -177.31)"  >
<path style="stroke: none; stroke-width: 1; stroke-dasharray: none; stroke-linecap: butt; stroke-dashoffset: 0; stroke-linejoin: miter; stroke-miterlimit: 4; fill: rgb(241,130,23); fill-rule: nonzero; opacity: 1;" vector-effect="non-scaling-stroke"  transform=" translate(-202.82, -79.74)" d="M 203.063263 80.925438 C 200.425644 84.762535 198.318054 88.56073 195.564346 91.81163 C 194.209991 93.410553 191.659302 93.996132 189.649994 95.040283 C 188.73526 93.096756 187.072723 91.167 187.036606 89.207275 C 186.888672 81.178947 197.0681 67.299553 204.516129 64.764137 C 204.828873 64.657684 205.22731 64.354156 205.434708 64.454559 C 208.436264 65.907684 212.101135 66.778862 214.215714 69.072311 C 216.739899 71.80999 219.985367 75.138466 217.977905 80.499374 C 212.853256 78.250618 207.864868 75.642136 203.063263 80.925438 z" stroke-linecap="round" />
</g>
		<g transform="matrix(1 0 0 1 129.23 -146.13)"  >
<path style="stroke: none; stroke-width: 1; stroke-dasharray: none; stroke-linecap: butt; stroke-dashoffset: 0; stroke-linejoin: miter; stroke-miterlimit: 4; fill: rgb(241,131,26); fill-rule: nonzero; opacity: 1;" vector-effect="non-scaling-stroke"  transform=" translate(-386.17, -110.92)" d="M 394.616333 104.426781 C 397.241669 109.725822 400.033295 114.607689 401.831573 119.831528 C 402.371002 121.398445 400.684357 124.817459 399.057404 125.802925 C 396.259491 127.49765 394.286102 125.142082 392.848633 122.620392 C 391.042572 119.452171 389.335327 116.166275 387.088043 113.324539 C 383.214844 108.426865 380.389252 107.938683 374.447296 110.020035 C 373.215912 110.451363 371.75354 110.223244 370.397644 110.299057 C 370.534912 108.900909 370.407776 107.406143 370.874664 106.128464 C 371.493805 104.434227 372.463989 102.833473 373.47998 101.325005 C 378.293274 94.178444 383.747742 93.562202 389.924225 99.450485 C 391.486938 100.940292 392.913025 102.573395 394.616333 104.426781 z" stroke-linecap="round" />
</g>
		<g transform="matrix(1 0 0 1 118.67 193.13)"  >
<path style="stroke: none; stroke-width: 1; stroke-dasharray: none; stroke-linecap: butt; stroke-dashoffset: 0; stroke-linejoin: miter; stroke-miterlimit: 4; fill: rgb(229,234,236); fill-rule: nonzero; opacity: 1;" vector-effect="non-scaling-stroke"  transform=" translate(-375.61, -450.18)" d="M 379.20578 446.84967 C 381.400024 451.123352 378.377777 453.106476 375.857941 454.688202 C 375.296936 455.040344 372.129852 452.634705 371.446075 450.971252 C 370.863525 449.554047 371.719879 446.108826 372.659119 445.808136 C 374.493011 445.221008 376.829651 446.204254 379.20578 446.84967 z" stroke-linecap="round" />
</g>
		<g transform="matrix(1 0 0 1 53.65 191.93)"  >
<path style="stroke: none; stroke-width: 1; stroke-dasharray: none; stroke-linecap: butt; stroke-dashoffset: 0; stroke-linejoin: miter; stroke-miterlimit: 4; fill: rgb(102,124,135); fill-rule: nonzero; opacity: 1;" vector-effect="non-scaling-stroke"  transform=" translate(-310.59, -448.98)" d="M 311.394104 444.388123 C 315.739746 446.537415 313.324127 449.211395 312.9133 450.392609 C 310.497467 451.759796 308.942932 452.639526 307.221252 453.613861 C 307.221252 451.16568 307.221252 448.097351 307.221252 444.41272 C 308.268433 444.362244 309.647186 444.295776 311.394104 444.388123 z" stroke-linecap="round" />
</g>
		<g transform="matrix(1 0 0 1 186.83 -173.63)"  >
<path style="stroke: none; stroke-width: 1; stroke-dasharray: none; stroke-linecap: butt; stroke-dashoffset: 0; stroke-linejoin: miter; stroke-miterlimit: 4; fill: rgb(229,234,236); fill-rule: nonzero; opacity: 1;" vector-effect="non-scaling-stroke"  transform=" translate(-443.77, -83.42)" d="M 441.008667 77.00882 C 440.45694 79.19548 439.193298 81.487312 439.497711 83.547485 C 440.187988 88.219505 444.191986 89.131126 450.099457 86.358589 C 450.278625 86.779343 450.457794 87.200089 450.636963 87.620842 C 448.703186 88.44429 446.771606 89.941566 444.835205 89.947792 C 441.062897 89.959946 437.378784 88.789963 437.068237 84.095833 C 436.879028 81.23671 436.082306 77.741013 440.697083 76.885193 C 441.000336 77.000443 441.008667 77.00882 441.008667 77.00882 z" stroke-linecap="round" />
</g>
		<g transform="matrix(1 0 0 1 -171.01 65.52)"  >
<path style="stroke: none; stroke-width: 1; stroke-dasharray: none; stroke-linecap: butt; stroke-dashoffset: 0; stroke-linejoin: miter; stroke-miterlimit: 4; fill: rgb(252,243,234); fill-rule: nonzero; opacity: 1;" vector-effect="non-scaling-stroke"  transform=" translate(-85.92, -322.57)" d="M 85.098686 326.9776 C 83.40744 325.088043 81.647644 323.325226 81.056549 321.23233 C 80.877922 320.599854 83.896294 318.242432 85.528549 318.156128 C 87.101242 318.072998 89.609222 319.530304 90.249245 320.962128 C 92.226761 325.3862 88.467583 326.039795 85.098686 326.9776 M 86.820335 324.548431 C 87.399849 323.584076 87.979362 322.61969 88.558876 321.655334 C 87.387527 321.178833 86.190742 320.301392 85.054176 320.373505 C 84.352295 320.41803 83.742134 321.90863 83.090805 322.750061 C 84.098038 323.441376 85.10527 324.13266 86.820335 324.548431 z" stroke-linecap="round" />
</g>
		<g transform="matrix(1 0 0 1 70.2 192.64)"  >
<path style="stroke: none; stroke-width: 1; stroke-dasharray: none; stroke-linecap: butt; stroke-dashoffset: 0; stroke-linejoin: miter; stroke-miterlimit: 4; fill: rgb(102,124,135); fill-rule: nonzero; opacity: 1;" vector-effect="non-scaling-stroke"  transform=" translate(-327.14, -449.69)" d="M 323.888153 450.829346 C 323.889923 449.732727 323.655884 448.97168 323.908112 448.442352 C 324.618774 446.95108 325.529297 445.555084 326.361023 444.121521 C 327.517639 445.048492 329.033539 445.758209 329.753784 446.949127 C 331.118652 449.206024 330.701813 450.718658 327.555206 451.218323 C 326.436371 451.396027 325.622803 453.496521 324.24472 455.264862 C 324.092438 453.622589 323.983398 452.446655 323.888153 450.829346 z" stroke-linecap="round" />
</g>
		<g transform="matrix(1 0 0 1 -36.1 193)"  >
<path style="stroke: none; stroke-width: 1; stroke-dasharray: none; stroke-linecap: butt; stroke-dashoffset: 0; stroke-linejoin: miter; stroke-miterlimit: 4; fill: rgb(102,124,135); fill-rule: nonzero; opacity: 1;" vector-effect="non-scaling-stroke"  transform=" translate(-220.83, -450.05)" d="M 223.951248 450.619812 C 223.688538 451.935822 223.515839 452.877533 223.314011 453.97821 C 222.261047 452.859375 221.397873 451.942169 220.534698 451.024963 C 219.795609 452.279938 219.056503 453.534912 217.718597 455.806641 C 217.718597 451.498444 217.718597 448.117401 217.718597 444.300598 C 218.917969 445.900208 219.839249 447.128906 220.760529 448.357605 C 221.526459 447.493256 222.292389 446.628906 223.374725 445.407501 C 223.618408 447.1763 223.829849 448.710907 223.951248 450.619812 z" stroke-linecap="round" />
</g>
		<g transform="matrix(1 0 0 1 4 130.4)"  >
<path style="stroke: none; stroke-width: 1; stroke-dasharray: none; stroke-linecap: butt; stroke-dashoffset: 0; stroke-linejoin: miter; stroke-miterlimit: 4; fill: rgb(20,71,89); fill-rule: nonzero; opacity: 1;" vector-effect="non-scaling-stroke"  transform=" translate(-260.94, -387.45)" d="M 261.082153 403.605835 C 260.617249 400.116486 260.14859 396.245453 260.034943 392.363983 C 259.880157 387.077362 259.870728 381.778168 260.068848 376.494446 C 260.132477 374.797089 261.050262 373.131775 261.944397 371.30307 C 262.017365 378.893494 261.710297 386.632172 261.435608 394.372009 C 261.331024 397.319824 261.30069 400.270264 261.082153 403.605835 z" stroke-linecap="round" />
</g>
		<g transform="matrix(1 0 0 1 188.9 -176.6)"  >
<path style="stroke: none; stroke-width: 1; stroke-dasharray: none; stroke-linecap: butt; stroke-dashoffset: 0; stroke-linejoin: miter; stroke-miterlimit: 4; fill: rgb(229,234,236); fill-rule: nonzero; opacity: 1;" vector-effect="non-scaling-stroke"  transform=" translate(-445.84, -80.45)" d="M 440.997742 76.996597 C 445.27771 73.143936 447.232574 73.438011 450.677795 78.920731 C 448.848816 78.163582 447.470215 77.592865 444.697571 76.445068 C 448.521271 81.242897 446.65564 83.895607 442.67691 86.494514 C 442.933716 83.751457 443.288849 81.406204 443.287628 79.061142 C 443.287262 78.384216 442.262238 77.707809 441.357819 77.019989 C 441.008667 77.00882 441.000336 77.000443 440.997742 76.996597 M 444.556976 80.611259 C 444.504425 80.826286 444.451904 81.041306 444.399353 81.256332 C 444.52951 81.118507 444.659698 80.980675 444.556976 80.611259 z" stroke-linecap="round" />
</g>
		<g transform="matrix(1 0 0 1 -8.68 192.39)"  >
<path style="stroke: none; stroke-width: 1; stroke-dasharray: none; stroke-linecap: butt; stroke-dashoffset: 0; stroke-linejoin: miter; stroke-miterlimit: 4; fill: rgb(229,234,236); fill-rule: nonzero; opacity: 1;" vector-effect="non-scaling-stroke"  transform=" translate(-248.26, -449.44)" d="M 245.935379 445.03067 C 247.615952 445.433014 249.296509 445.835388 250.588562 446.653809 C 250.145416 449.067047 250.09082 451.064178 250.036224 453.06131 C 250.036209 453.06131 250.001877 453.004456 249.642929 452.992737 C 247.238678 454.392365 245.991867 454.257629 246.024475 451.374786 C 246.048401 449.260681 245.968826 447.145416 245.935379 445.03067 z" stroke-linecap="round" />
</g>
		<g transform="matrix(1 0 0 1 -7.48 110.82)"  >
<path style="stroke: none; stroke-width: 1; stroke-dasharray: none; stroke-linecap: butt; stroke-dashoffset: 0; stroke-linejoin: miter; stroke-miterlimit: 4; fill: rgb(20,71,89); fill-rule: nonzero; opacity: 1;" vector-effect="non-scaling-stroke"  transform=" translate(-249.46, -367.87)" d="M 249.612183 359.037476 C 249.8172 364.667145 249.708725 370.536957 249.304611 376.70105 C 249.10556 371.089417 249.202133 365.183563 249.612183 359.037476 z" stroke-linecap="round" />
</g>
		<g transform="matrix(1 0 0 1 -86.84 192.89)"  >
<path style="stroke: none; stroke-width: 1; stroke-dasharray: none; stroke-linecap: butt; stroke-dashoffset: 0; stroke-linejoin: miter; stroke-miterlimit: 4; fill: rgb(229,234,236); fill-rule: nonzero; opacity: 1;" vector-effect="non-scaling-stroke"  transform=" translate(-170.1, -449.94)" d="M 172.218887 453.293579 C 170.654587 455.214417 169.060974 455.354095 167.458893 453.34967 C 165.337585 450.695526 166.12468 448.385986 168.332413 446.261108 C 170.622681 444.056763 172.371445 445.212952 173.986359 447.601257 C 173.986603 448.02243 173.8004 448.185883 173.452728 448.089294 C 171.787216 448.18985 170.46936 448.386993 169.15152 448.584167 C 170.024857 449.971161 170.898178 451.358124 171.887024 452.879272 C 172.002518 453.013397 172.218887 453.293579 172.218887 453.293579 z" stroke-linecap="round" />
</g>
		<g transform="matrix(1 0 0 1 -43.17 132.12)"  >
<path style="stroke: none; stroke-width: 1; stroke-dasharray: none; stroke-linecap: butt; stroke-dashoffset: 0; stroke-linejoin: miter; stroke-miterlimit: 4; fill: rgb(20,71,89); fill-rule: nonzero; opacity: 1;" vector-effect="non-scaling-stroke"  transform=" translate(-213.76, -389.17)" d="M 214.010071 379.457611 C 214.033493 385.602844 213.981873 392.194092 213.546997 398.891632 C 213.420837 392.633148 213.677933 386.268402 214.010071 379.457611 z" stroke-linecap="round" />
</g>
		<g transform="matrix(1 0 0 1 -6.78 139.12)"  >
<path style="stroke: none; stroke-width: 1; stroke-dasharray: none; stroke-linecap: butt; stroke-dashoffset: 0; stroke-linejoin: miter; stroke-miterlimit: 4; fill: rgb(20,71,89); fill-rule: nonzero; opacity: 1;" vector-effect="non-scaling-stroke"  transform=" translate(-250.16, -396.17)" d="M 249.043365 389.461121 C 252.907272 393.21402 250.740601 397.914795 250.04039 402.882507 C 249.572311 398.829224 249.27533 394.375 249.043365 389.461121 z" stroke-linecap="round" />
</g>
		<g transform="matrix(1 0 0 1 -10.08 193.28)"  >
<path style="stroke: none; stroke-width: 1; stroke-dasharray: none; stroke-linecap: butt; stroke-dashoffset: 0; stroke-linejoin: miter; stroke-miterlimit: 4; fill: rgb(24,74,95); fill-rule: nonzero; opacity: 1;" vector-effect="non-scaling-stroke"  transform=" translate(-246.85, -450.33)" d="M 245.538742 445.062622 C 245.968826 447.145416 246.048401 449.260681 246.024475 451.374786 C 245.991867 454.257629 247.238678 454.392365 249.673737 453.005127 C 248.486954 453.882416 246.910431 454.735596 245.333908 455.588776 C 244.90123 455.241211 244.468567 454.893616 244.035889 454.546021 C 244.404633 451.395538 244.773376 448.245026 245.538742 445.062622 z" stroke-linecap="round" />
</g>
		<g transform="matrix(1 0 0 1 30.12 189.55)"  >
<path style="stroke: none; stroke-width: 1; stroke-dasharray: none; stroke-linecap: butt; stroke-dashoffset: 0; stroke-linejoin: miter; stroke-miterlimit: 4; fill: rgb(229,234,236); fill-rule: nonzero; opacity: 1;" vector-effect="non-scaling-stroke"  transform=" translate(-287.06, -446.6)" d="M 289.83847 445.643066 C 288.059357 446.516235 286.315125 447.067657 284.570862 447.619049 C 284.472137 447.009094 284.373413 446.399109 284.274689 445.789154 C 286.1409 445.633179 288.007111 445.477234 289.83847 445.643066 z" stroke-linecap="round" />
</g>
		<g transform="matrix(1 0 0 1 31.08 196.02)"  >
<path style="stroke: none; stroke-width: 1; stroke-dasharray: none; stroke-linecap: butt; stroke-dashoffset: 0; stroke-linejoin: miter; stroke-miterlimit: 4; fill: rgb(229,234,236); fill-rule: nonzero; opacity: 1;" vector-effect="non-scaling-stroke"  transform=" translate(-288.02, -453.07)" d="M 285.541779 454.540985 C 286.801422 453.401123 288.31366 452.496582 289.825928 451.592041 C 290.051636 452.134827 290.277313 452.677582 290.503021 453.220337 C 288.933472 453.738983 287.363953 454.25766 285.541779 454.540985 z" stroke-linecap="round" />
</g>
		<g transform="matrix(1 0 0 1 -6.43 193.04)"  >
<path style="stroke: none; stroke-width: 1; stroke-dasharray: none; stroke-linecap: butt; stroke-dashoffset: 0; stroke-linejoin: miter; stroke-miterlimit: 4; fill: rgb(24,74,95); fill-rule: nonzero; opacity: 1;" vector-effect="non-scaling-stroke"  transform=" translate(-250.51, -450.09)" d="M 250.408463 453.235535 C 250.09082 451.064178 250.145416 449.067047 250.612579 446.94104 C 250.943649 449.011353 250.862167 451.210541 250.408463 453.235535 z" stroke-linecap="round" />
</g>
		<g transform="matrix(1 0 0 1 -83.89 193.53)"  >
<path style="stroke: none; stroke-width: 1; stroke-dasharray: none; stroke-linecap: butt; stroke-dashoffset: 0; stroke-linejoin: miter; stroke-miterlimit: 4; fill: rgb(229,234,236); fill-rule: nonzero; opacity: 1;" vector-effect="non-scaling-stroke"  transform=" translate(-173.05, -450.58)" d="M 174.082062 447.943481 C 173.754211 449.607208 173.330872 451.349915 172.563202 453.193115 C 172.218887 453.293579 172.002518 453.013397 172.016296 452.579468 C 172.620178 450.825623 173.210281 449.505768 173.8004 448.185883 C 173.8004 448.185883 173.986603 448.02243 174.082062 447.943481 z" stroke-linecap="round" />
</g>
		<g transform="matrix(1 0 0 1 193.86 -174.67)"  >
<path style="stroke: none; stroke-width: 1; stroke-dasharray: none; stroke-linecap: butt; stroke-dashoffset: 0; stroke-linejoin: miter; stroke-miterlimit: 4; fill: rgb(229,234,236); fill-rule: nonzero; opacity: 1;" vector-effect="non-scaling-stroke"  transform=" translate(-450.79, -82.38)" d="M 451.368042 81.053017 C 451.557739 82.051819 451.519775 82.825935 451.481781 83.600052 C 451.205139 83.635559 450.928467 83.671066 450.651794 83.706566 C 450.438629 83.062752 450.072357 82.417778 450.077148 81.775597 C 450.07959 81.457184 450.764343 81.143921 451.368042 81.053017 z" stroke-linecap="round" />
</g>
		<g transform="matrix(1 0 0 1 -42.86 146.59)"  >
<path style="stroke: none; stroke-width: 1; stroke-dasharray: none; stroke-linecap: butt; stroke-dashoffset: 0; stroke-linejoin: miter; stroke-miterlimit: 4; fill: rgb(20,71,89); fill-rule: nonzero; opacity: 1;" vector-effect="non-scaling-stroke"  transform=" translate(-214.08, -403.64)" d="M 213.24884 402.325592 C 213.80336 402.86499 214.372025 403.727264 214.910675 404.95047 C 214.341461 404.423737 213.802231 403.536133 213.24884 402.325592 z" stroke-linecap="round" />
</g>
		<g transform="matrix(1 0 0 1 27.11 192.85)"  >
<path style="stroke: none; stroke-width: 1; stroke-dasharray: none; stroke-linecap: butt; stroke-dashoffset: 0; stroke-linejoin: miter; stroke-miterlimit: 4; fill: rgb(229,234,236); fill-rule: nonzero; opacity: 1;" vector-effect="non-scaling-stroke"  transform=" translate(-284.05, -449.9)" d="M 283.545593 450.381042 C 283.659119 449.942596 283.935455 449.674042 284.229309 449.42627 C 284.236816 449.419922 284.436584 449.641541 284.546722 449.756836 C 284.268005 450.02243 283.989319 450.288025 283.545593 450.381042 z" stroke-linecap="round" />
</g>
		<g transform="matrix(1 0 0 1 34.56 190.94)"  >
<path style="stroke: none; stroke-width: 1; stroke-dasharray: none; stroke-linecap: butt; stroke-dashoffset: 0; stroke-linejoin: miter; stroke-miterlimit: 4; fill: rgb(229,234,236); fill-rule: nonzero; opacity: 1;" vector-effect="non-scaling-stroke"  transform=" translate(-291.49, -447.99)" d="M 291.818542 447.986511 C 291.60672 448.199249 291.390503 448.21344 291.180786 448.182983 C 291.157806 448.179657 291.171967 447.920166 291.168915 447.77948 C 291.384613 447.777985 291.600342 447.776459 291.818542 447.986511 z" stroke-linecap="round" />
</g>
		<g transform="matrix(1 0 0 1 8.19 110.61)"  >
<path style="stroke: none; stroke-width: 1; stroke-dasharray: none; stroke-linecap: butt; stroke-dashoffset: 0; stroke-linejoin: miter; stroke-miterlimit: 4; fill: rgb(20,71,89); fill-rule: nonzero; opacity: 1;" vector-effect="non-scaling-stroke"  transform=" translate(-265.13, -367.66)" d="M 264.505371 368.256927 C 264.62735 367.919281 265.027466 367.500732 265.748596 367.062836 C 265.6409 367.42099 265.212219 367.798492 264.505371 368.256927 z" stroke-linecap="round" />
</g>
		<g transform="matrix(1 0 0 1 6.74 112.07)"  >
<path style="stroke: none; stroke-width: 1; stroke-dasharray: none; stroke-linecap: butt; stroke-dashoffset: 0; stroke-linejoin: miter; stroke-miterlimit: 4; fill: rgb(20,71,89); fill-rule: nonzero; opacity: 1;" vector-effect="non-scaling-stroke"  transform=" translate(-263.68, -369.12)" d="M 263.315857 369.938721 C 263.292297 369.533691 263.503448 368.953217 264.030212 368.295166 C 264.080719 368.732849 263.815613 369.248047 263.315857 369.938721 z" stroke-linecap="round" />
</g>
		<g transform="matrix(1 0 0 1 -85.83 -65.22)"  >
<path style="stroke: none; stroke-width: 1; stroke-dasharray: none; stroke-linecap: butt; stroke-dashoffset: 0; stroke-linejoin: miter; stroke-miterlimit: 4; fill: rgb(225,27,56); fill-rule: nonzero; opacity: 1;" vector-effect="non-scaling-stroke"  transform=" translate(-171.11, -191.83)" d="M 171.210632 191.821533 C 171.246964 191.820068 171.010559 191.796356 171.010559 191.796356 C 171.010559 191.796356 171.155502 191.917404 171.150467 191.836853 C 171.145432 191.756302 171.174316 191.823013 171.210632 191.821533 z" stroke-linecap="round" />
</g>
		<g transform="matrix(1 0 0 1 5.72 113.61)"  >
<path style="stroke: none; stroke-width: 1; stroke-dasharray: none; stroke-linecap: butt; stroke-dashoffset: 0; stroke-linejoin: miter; stroke-miterlimit: 4; fill: rgb(20,71,89); fill-rule: nonzero; opacity: 1;" vector-effect="non-scaling-stroke"  transform=" translate(-262.66, -370.66)" d="M 262.458374 371.156616 C 262.341461 370.938843 262.480194 370.612946 262.866211 370.169067 C 262.980316 370.383575 262.847168 370.716034 262.458374 371.156616 z" stroke-linecap="round" />
</g>
		<g transform="matrix(1 0 0 1 9.71 109.54)"  >
<path style="stroke: none; stroke-width: 1; stroke-dasharray: none; stroke-linecap: butt; stroke-dashoffset: 0; stroke-linejoin: miter; stroke-miterlimit: 4; fill: rgb(20,71,89); fill-rule: nonzero; opacity: 1;" vector-effect="non-scaling-stroke"  transform=" translate(-266.65, -366.59)" d="M 266.31073 367.019775 C 266.262085 366.787781 266.495483 366.512817 266.995361 366.163422 C 267.038788 366.384918 266.815765 366.680847 266.31073 367.019775 z" stroke-linecap="round" />
</g>
		<g transform="matrix(1 0 0 1 5.37 -50.9)"  >
<path style="stroke: none; stroke-width: 1; stroke-dasharray: none; stroke-linecap: butt; stroke-dashoffset: 0; stroke-linejoin: miter; stroke-miterlimit: 4; fill: rgb(254,249,249); fill-rule: nonzero; opacity: 1;" vector-effect="non-scaling-stroke"  transform=" translate(-262.31, -206.15)" d="M 255.805939 209.785858 C 256.68988 205.193253 257.199158 200.917557 258.59079 196.951462 C 259.59198 194.098099 262.336426 192.863968 265.541626 193.677567 C 268.987762 194.552338 268.975983 197.187805 268.706848 199.964951 C 268.595306 201.116287 268.609528 202.279175 268.533905 203.434692 C 268.21106 208.367691 267.876007 213.299896 267.548523 218.18576 C 259.378967 220.047119 257.033783 218.431305 255.805939 209.785858 z" stroke-linecap="round" />
</g>
		<g transform="matrix(1 0 0 1 162.31 59.26)"  >
<path style="stroke: none; stroke-width: 1; stroke-dasharray: none; stroke-linecap: butt; stroke-dashoffset: 0; stroke-linejoin: miter; stroke-miterlimit: 4; fill: rgb(252,243,234); fill-rule: nonzero; opacity: 1;" vector-effect="non-scaling-stroke"  transform=" translate(-419.25, -316.31)" d="M 410.882996 310.361206 C 412.743073 302.365601 416.711273 300.678864 423.105438 304.80426 C 423.995697 304.025269 424.901703 303.232513 425.996979 302.274139 C 426.619873 302.955048 427.407104 303.413818 427.412537 303.881744 C 427.496124 311.007965 427.942505 318.185272 427.186432 325.230713 C 426.97226 327.226868 423.315369 330.05719 420.992401 330.317352 C 418.118866 330.63913 414.934174 328.812042 412.030701 327.570129 C 411.5867 327.380249 411.932312 325.344238 411.91272 324.162048 C 413.045288 324.526184 414.167145 324.928955 415.312775 325.245789 C 417.257996 325.78363 419.532074 327.100067 421.075836 326.518219 C 422.382874 326.025604 422.852173 323.310242 424.176361 320.580475 C 414.499939 324.745972 410.796539 321.530243 410.882996 310.361206 M 420.793671 318.303986 C 424.402557 315.836975 424.212952 312.258118 422.531769 309.150238 C 421.873535 307.933441 418.872192 307.984131 416.938019 307.457581 C 416.374268 309.925232 415.100769 312.516724 415.502014 314.815979 C 415.759491 316.291687 418.483887 317.336945 420.793671 318.303986 z" stroke-linecap="round" />
</g>
		<g transform="matrix(1 0 0 1 144.21 55.9)"  >
<path style="stroke: none; stroke-width: 1; stroke-dasharray: none; stroke-linecap: butt; stroke-dashoffset: 0; stroke-linejoin: miter; stroke-miterlimit: 4; fill: rgb(252,243,234); fill-rule: nonzero; opacity: 1;" vector-effect="non-scaling-stroke"  transform=" translate(-401.14, -312.95)" d="M 402.86673 322.167236 C 396.162262 323.946198 393.425049 321.968292 393.188782 315.507019 C 393.073364 312.350464 392.959351 309.162476 393.294647 306.037018 C 393.419403 304.874054 394.82782 303.848846 395.650879 302.760803 C 396.418274 303.8638 397.718567 304.907806 397.848358 306.081268 C 398.17572 309.040863 397.682098 312.101593 398.109375 315.035553 C 398.327423 316.532776 399.818695 317.844513 400.734467 319.240112 C 401.987823 317.929871 404.013092 316.782959 404.332184 315.275055 C 404.975433 312.23526 404.491486 308.973511 404.891876 305.857178 C 405.040405 304.701324 406.365417 303.696594 407.15387 302.622955 C 407.814362 303.81958 408.981567 304.990204 409.044525 306.217468 C 409.274261 310.697601 409.247253 315.200287 409.099731 319.687347 C 408.985016 323.175903 407.834961 324.793365 404.750671 321.44812 C 404.588043 321.271759 403.720184 321.745636 402.86673 322.167236 z" stroke-linecap="round" />
</g>
		<g transform="matrix(1 0 0 1 63.51 108.07)"  >
<path style="stroke: none; stroke-width: 1; stroke-dasharray: none; stroke-linecap: butt; stroke-dashoffset: 0; stroke-linejoin: miter; stroke-miterlimit: 4; fill: rgb(248,250,250); fill-rule: nonzero; opacity: 1;" vector-effect="non-scaling-stroke"  transform=" translate(-320.44, -365.12)" d="M 325.753357 369.897217 C 320.16803 370.809143 315.002594 371.628998 309.81076 372.453064 C 309.031616 364.217072 312.578064 359.104736 319.500275 357.919128 C 324.903015 356.993713 329.640717 361.172974 331.183441 368.431641 C 329.526886 368.885773 327.850067 369.34549 325.753357 369.897217 z" stroke-linecap="round" />
</g>
		<g transform="matrix(1 0 0 1 -71.87 122.23)"  >
<path style="stroke: none; stroke-width: 1; stroke-dasharray: none; stroke-linecap: butt; stroke-dashoffset: 0; stroke-linejoin: miter; stroke-miterlimit: 4; fill: rgb(252,252,253); fill-rule: nonzero; opacity: 1;" vector-effect="non-scaling-stroke"  transform=" translate(-185.07, -379.28)" d="M 196.941559 374.576965 C 196.533127 379.263092 196.707748 383.687103 195.543427 387.725037 C 194.02037 393.007141 189.188278 395.794617 184.103439 395.495209 C 178.876907 395.1875 173.756973 391.496857 173.317703 386.155701 C 172.896423 381.033173 173.62291 375.65213 174.803894 370.609283 C 175.926727 365.814758 179.954895 363.388092 184.823013 363.066376 C 189.52742 362.755554 193.825089 365.948547 195.874329 370.846405 C 196.317993 371.906769 196.582169 373.042236 196.941559 374.576965 z" stroke-linecap="round" />
</g>
		<g transform="matrix(1 0 0 1 -192.86 19.69)"  >
<path style="stroke: none; stroke-width: 1; stroke-dasharray: none; stroke-linecap: butt; stroke-dashoffset: 0; stroke-linejoin: miter; stroke-miterlimit: 4; fill: rgb(248,254,254); fill-rule: nonzero; opacity: 1;" vector-effect="non-scaling-stroke"  transform=" translate(-64.08, -276.74)" d="M 55.628376 279.386719 C 54.192535 273.635132 52.929581 268.260559 51.516418 262.246796 C 60.261845 265.054657 68.130531 267.581055 76.639641 270.313019 C 70.39727 277.47522 64.676628 284.038788 58.403389 291.236389 C 57.425659 286.925659 56.613461 283.344696 55.628376 279.386719 z" stroke-linecap="round" />
</g>
		<g transform="matrix(1 0 0 1 144.99 -29.84)"  >
<path style="stroke: none; stroke-width: 1; stroke-dasharray: none; stroke-linecap: butt; stroke-dashoffset: 0; stroke-linejoin: miter; stroke-miterlimit: 4; fill: rgb(248,250,250); fill-rule: nonzero; opacity: 1;" vector-effect="non-scaling-stroke"  transform=" translate(-401.93, -227.21)" d="M 402.97226 220.432892 C 403.930786 220.16362 404.996643 219.886993 405.278198 220.238556 C 409.907288 226.017899 407.996033 231.869522 400.412354 234.353897 C 399.016815 231.621353 396.983307 228.95903 396.285034 225.983398 C 395.032257 220.644852 399.717621 221.479996 402.97226 220.432892 z" stroke-linecap="round" />
</g>
		<g transform="matrix(1 0 0 1 46.91 -179.14)"  >
<path style="stroke: none; stroke-width: 1; stroke-dasharray: none; stroke-linecap: butt; stroke-dashoffset: 0; stroke-linejoin: miter; stroke-miterlimit: 4; fill: rgb(254,249,249); fill-rule: nonzero; opacity: 1;" vector-effect="non-scaling-stroke"  transform=" translate(-303.85, -77.91)" d="M 296.135956 84.643074 C 293.68457 80.238808 293.56012 76.076157 295.589996 71.918564 C 298.824646 65.293434 307.220245 64.657509 311.436096 70.671272 C 314.721008 75.357033 314.060699 82.701012 309.994141 86.709541 C 305.9151 90.73037 300.838593 90.086449 296.135956 84.643074 z" stroke-linecap="round" />
</g>
		<g transform="matrix(1 0 0 1 -171.11 65.48)"  >
<path style="stroke: none; stroke-width: 1; stroke-dasharray: none; stroke-linecap: butt; stroke-dashoffset: 0; stroke-linejoin: miter; stroke-miterlimit: 4; fill: rgb(254,254,254); fill-rule: nonzero; opacity: 1;" vector-effect="non-scaling-stroke"  transform=" translate(-85.82, -322.53)" d="M 86.466423 324.686188 C 85.10527 324.13266 84.098038 323.441376 83.090805 322.750061 C 83.742134 321.90863 84.352295 320.41803 85.054176 320.373505 C 86.190742 320.301392 87.387527 321.178833 88.558868 321.655334 C 87.979362 322.61969 87.399849 323.584076 86.466423 324.686188 z" stroke-linecap="round" />
</g>
		<g transform="matrix(1 0 0 1 187.6 -176.06)"  >
<path style="stroke: none; stroke-width: 1; stroke-dasharray: none; stroke-linecap: butt; stroke-dashoffset: 0; stroke-linejoin: miter; stroke-miterlimit: 4; fill: rgb(254,254,254); fill-rule: nonzero; opacity: 1;" vector-effect="non-scaling-stroke"  transform=" translate(-444.54, -80.99)" d="M 444.673401 80.727051 C 444.659698 80.980675 444.52951 81.118507 444.399353 81.256332 C 444.451904 81.041306 444.504425 80.826286 444.673401 80.727051 z" stroke-linecap="round" />
</g>
		<g transform="matrix(1 0 0 1 -85.64 193.22)"  >
<path style="stroke: none; stroke-width: 1; stroke-dasharray: none; stroke-linecap: butt; stroke-dashoffset: 0; stroke-linejoin: miter; stroke-miterlimit: 4; fill: rgb(254,254,254); fill-rule: nonzero; opacity: 1;" vector-effect="non-scaling-stroke"  transform=" translate(-171.3, -450.27)" d="M 173.452728 448.089294 C 173.210281 449.505768 172.620178 450.825623 171.900787 452.445312 C 170.898178 451.358124 170.024857 449.971161 169.15152 448.584167 C 170.46936 448.386993 171.787216 448.18985 173.452728 448.089294 z" stroke-linecap="round" />
</g>
		<g transform="matrix(1 0 0 1 162.61 55.9)"  >
<path style="stroke: none; stroke-width: 1; stroke-dasharray: none; stroke-linecap: butt; stroke-dashoffset: 0; stroke-linejoin: miter; stroke-miterlimit: 4; fill: rgb(241,131,26); fill-rule: nonzero; opacity: 1;" vector-effect="non-scaling-stroke"  transform=" translate(-419.54, -312.95)" d="M 420.448059 318.439575 C 418.483887 317.336945 415.759491 316.291687 415.502014 314.815979 C 415.100769 312.516724 416.374268 309.925232 416.937988 307.457581 C 418.872192 307.984131 421.873535 307.933441 422.531769 309.150238 C 424.212952 312.258118 424.402557 315.836975 420.448059 318.439575 z" stroke-linecap="round" />
</g>
</g>
</g>
</svg>